<ttFont>
<head>
    <!-- Most of this table will be recalculated by the compiler -->
    <tableVersion value="1.0"/>
    <fontRevision value="1.00100708008"/>
    <checkSumAdjustment value="0xe639470c"/>
    <magicNumber value="0x5f0f3cf5"/>
    <flags value="00000000 00001011"/>
    <unitsPerEm value="1000"/>
    <created value="Wed Jan 11 23:24:40 2012"/>
    <modified value="Wed Jan 11 23:24:40 2012"/>
    <xMin value="-34"/>
    <yMin value="-254"/>
    <xMax value="1058"/>
    <yMax value="978"/>
    <macStyle value="00000000 00000000"/>
    <lowestRecPPEM value="8"/>
    <fontDirectionHint value="2"/>
    <indexToLocFormat value="0"/>
    <glyphDataFormat value="0"/>
  </head>
    <TTGlyph name="A" xMin="9" yMin="0" xMax="721" yMax="718">
      <contour>
        <pt x="721" y="0" on="1"/>
        <pt x="465" y="0" on="1"/>
        <pt x="465" y="28" on="1"/>
        <pt x="497" y="28" on="1"/>
        <pt x="541" y="28" on="0"/>
        <pt x="541" y="56" on="1"/>
        <pt x="541" y="60" on="0"/>
        <pt x="531" y="90" on="1"/>
        <pt x="463" y="268" on="1"/>
        <pt x="211" y="268" on="1"/>
        <pt x="145" y="98" on="1"/>
        <pt x="145" y="96" on="0"/>
        <pt x="131" y="51" on="0"/>
        <pt x="131" y="34" on="0"/>
        <pt x="153" y="28" on="0"/>
        <pt x="189" y="28" on="1"/>
        <pt x="205" y="28" on="1"/>
        <pt x="205" y="0" on="1"/>
        <pt x="9" y="0" on="1"/>
        <pt x="9" y="28" on="1"/>
        <pt x="23" y="28" on="1"/>
        <pt x="56" y="28" on="0"/>
        <pt x="86" y="51" on="0"/>
        <pt x="97" y="78" on="1"/>
        <pt x="317" y="652" on="1"/>
        <pt x="322" y="653" on="0"/>
        <pt x="348" y="680" on="0"/>
        <pt x="370" y="709" on="0"/>
        <pt x="370" y="713" on="0"/>
        <pt x="369" y="714" on="1"/>
        <pt x="383" y="718" on="1"/>
        <pt x="629" y="74" on="1"/>
        <pt x="640" y="51" on="0"/>
        <pt x="663" y="28" on="0"/>
        <pt x="685" y="28" on="1"/>
        <pt x="721" y="28" on="1"/>
      </contour>
      <contour>
        <pt x="445" y="310" on="1"/>
        <pt x="337" y="596" on="1"/>
        <pt x="227" y="310" on="1"/>
      </contour>
    </TTGlyph>
    <TTGlyph name="AE" xMin="22" yMin="0" xMax="976" yMax="700">
      <contour>
        <pt x="942" y="0" on="1"/>
        <pt x="404" y="0" on="1"/>
        <pt x="404" y="28" on="1"/>
        <pt x="438" y="28" on="1"/>
        <pt x="467" y="28" on="0"/>
        <pt x="486" y="50" on="0"/>
        <pt x="486" y="74" on="1"/>
        <pt x="486" y="326" on="1"/>
        <pt x="300" y="326" on="1"/>
        <pt x="172" y="98" on="1"/>
        <pt x="148" y="58" on="0"/>
        <pt x="148" y="33" on="0"/>
        <pt x="171" y="28" on="0"/>
        <pt x="204" y="28" on="1"/>
        <pt x="220" y="28" on="1"/>
        <pt x="220" y="0" on="1"/>
        <pt x="22" y="0" on="1"/>
        <pt x="22" y="28" on="1"/>
        <pt x="36" y="28" on="1"/>
        <pt x="69" y="28" on="0"/>
        <pt x="101" y="51" on="0"/>
        <pt x="116" y="78" on="1"/>
        <pt x="440" y="672" on="1"/>
        <pt x="376" y="672" on="1"/>
        <pt x="376" y="700" on="1"/>
        <pt x="934" y="700" on="1"/>
        <pt x="944" y="562" on="1"/>
        <pt x="916" y="556" on="1"/>
        <pt x="914" y="592" on="0"/>
        <pt x="856" y="658" on="0"/>
        <pt x="804" y="658" on="1"/>
        <pt x="624" y="658" on="1"/>
        <pt x="602" y="658" on="0"/>
        <pt x="580" y="644" on="0"/>
        <pt x="576" y="628" on="0"/>
        <pt x="576" y="614" on="1"/>
        <pt x="576" y="370" on="1"/>
        <pt x="776" y="370" on="1"/>
        <pt x="790" y="370" on="0"/>
        <pt x="806" y="373" on="0"/>
        <pt x="820" y="391" on="0"/>
        <pt x="820" y="408" on="1"/>
        <pt x="820" y="454" on="1"/>
        <pt x="850" y="454" on="1"/>
        <pt x="850" y="246" on="1"/>
        <pt x="820" y="246" on="1"/>
        <pt x="820" y="288" on="1"/>
        <pt x="820" y="312" on="0"/>
        <pt x="796" y="328" on="0"/>
        <pt x="776" y="328" on="1"/>
        <pt x="576" y="328" on="1"/>
        <pt x="576" y="86" on="1"/>
        <pt x="576" y="72" on="0"/>
        <pt x="580" y="56" on="0"/>
        <pt x="602" y="42" on="0"/>
        <pt x="624" y="42" on="1"/>
        <pt x="812" y="42" on="1"/>
        <pt x="866" y="42" on="0"/>
        <pt x="946" y="110" on="0"/>
        <pt x="948" y="142" on="1"/>
        <pt x="976" y="138" on="1"/>
      </contour>
      <contour>
        <pt x="486" y="370" on="1"/>
        <pt x="486" y="666" on="1"/>
        <pt x="484" y="666" on="1"/>
        <pt x="324" y="370" on="1"/>
      </contour>
    </TTGlyph>
    <TTGlyph name="Aacute" xMin="10" yMin="0" xMax="722" yMax="900">
      <contour>
        <pt x="722" y="0" on="1"/>
        <pt x="466" y="0" on="1"/>
        <pt x="466" y="28" on="1"/>
        <pt x="498" y="28" on="1"/>
        <pt x="542" y="28" on="0"/>
        <pt x="542" y="56" on="1"/>
        <pt x="542" y="60" on="0"/>
        <pt x="532" y="90" on="1"/>
        <pt x="464" y="268" on="1"/>
        <pt x="212" y="268" on="1"/>
        <pt x="146" y="98" on="1"/>
        <pt x="146" y="96" on="0"/>
        <pt x="132" y="51" on="0"/>
        <pt x="132" y="34" on="0"/>
        <pt x="154" y="28" on="0"/>
        <pt x="190" y="28" on="1"/>
        <pt x="206" y="28" on="1"/>
        <pt x="206" y="0" on="1"/>
        <pt x="10" y="0" on="1"/>
        <pt x="10" y="28" on="1"/>
        <pt x="24" y="28" on="1"/>
        <pt x="57" y="28" on="0"/>
        <pt x="87" y="51" on="0"/>
        <pt x="98" y="78" on="1"/>
        <pt x="318" y="652" on="1"/>
        <pt x="326" y="653" on="0"/>
        <pt x="371" y="707" on="0"/>
        <pt x="371" y="713" on="0"/>
        <pt x="370" y="714" on="1"/>
        <pt x="384" y="718" on="1"/>
        <pt x="630" y="74" on="1"/>
        <pt x="641" y="51" on="0"/>
        <pt x="664" y="28" on="0"/>
        <pt x="686" y="28" on="1"/>
        <pt x="722" y="28" on="1"/>
      </contour>
      <contour>
        <pt x="446" y="310" on="1"/>
        <pt x="338" y="596" on="1"/>
        <pt x="228" y="310" on="1"/>
      </contour>
      <contour>
        <pt x="481" y="842" on="1"/>
        <pt x="302" y="760" on="1"/>
        <pt x="283" y="782" on="1"/>
        <pt x="429" y="900" on="1"/>
      </contour>
    </TTGlyph>
    <TTGlyph name="Acircumflex" xMin="10" yMin="0" xMax="722" yMax="940">
      <contour>
        <pt x="478" y="772" on="1"/>
        <pt x="452" y="760" on="1"/>
        <pt x="364" y="858" on="1"/>
        <pt x="278" y="760" on="1"/>
        <pt x="252" y="772" on="1"/>
        <pt x="336" y="940" on="1"/>
        <pt x="394" y="940" on="1"/>
      </contour>
      <contour>
        <pt x="722" y="0" on="1"/>
        <pt x="466" y="0" on="1"/>
        <pt x="466" y="28" on="1"/>
        <pt x="498" y="28" on="1"/>
        <pt x="542" y="28" on="0"/>
        <pt x="542" y="56" on="1"/>
        <pt x="542" y="60" on="0"/>
        <pt x="532" y="90" on="1"/>
        <pt x="464" y="268" on="1"/>
        <pt x="212" y="268" on="1"/>
        <pt x="146" y="98" on="1"/>
        <pt x="146" y="96" on="0"/>
        <pt x="132" y="51" on="0"/>
        <pt x="132" y="34" on="0"/>
        <pt x="154" y="28" on="0"/>
        <pt x="190" y="28" on="1"/>
        <pt x="206" y="28" on="1"/>
        <pt x="206" y="0" on="1"/>
        <pt x="10" y="0" on="1"/>
        <pt x="10" y="28" on="1"/>
        <pt x="24" y="28" on="1"/>
        <pt x="57" y="28" on="0"/>
        <pt x="87" y="51" on="0"/>
        <pt x="98" y="78" on="1"/>
        <pt x="318" y="652" on="1"/>
        <pt x="326" y="653" on="0"/>
        <pt x="371" y="707" on="0"/>
        <pt x="371" y="713" on="0"/>
        <pt x="370" y="714" on="1"/>
        <pt x="384" y="718" on="1"/>
        <pt x="630" y="74" on="1"/>
        <pt x="641" y="51" on="0"/>
        <pt x="664" y="28" on="0"/>
        <pt x="686" y="28" on="1"/>
        <pt x="722" y="28" on="1"/>
      </contour>
      <contour>
        <pt x="446" y="310" on="1"/>
        <pt x="338" y="596" on="1"/>
        <pt x="228" y="310" on="1"/>
      </contour>
    </TTGlyph>
    <TTGlyph name="Adieresis" xMin="10" yMin="0" xMax="722" yMax="930">
      <contour>
        <pt x="722" y="0" on="1"/>
        <pt x="466" y="0" on="1"/>
        <pt x="466" y="28" on="1"/>
        <pt x="498" y="28" on="1"/>
        <pt x="542" y="28" on="0"/>
        <pt x="542" y="56" on="1"/>
        <pt x="542" y="60" on="0"/>
        <pt x="532" y="90" on="1"/>
        <pt x="464" y="268" on="1"/>
        <pt x="212" y="268" on="1"/>
        <pt x="146" y="98" on="1"/>
        <pt x="146" y="96" on="0"/>
        <pt x="132" y="51" on="0"/>
        <pt x="132" y="34" on="0"/>
        <pt x="154" y="28" on="0"/>
        <pt x="190" y="28" on="1"/>
        <pt x="206" y="28" on="1"/>
        <pt x="206" y="0" on="1"/>
        <pt x="10" y="0" on="1"/>
        <pt x="10" y="28" on="1"/>
        <pt x="24" y="28" on="1"/>
        <pt x="57" y="28" on="0"/>
        <pt x="87" y="51" on="0"/>
        <pt x="98" y="78" on="1"/>
        <pt x="318" y="652" on="1"/>
        <pt x="326" y="653" on="0"/>
        <pt x="371" y="707" on="0"/>
        <pt x="371" y="713" on="0"/>
        <pt x="370" y="714" on="1"/>
        <pt x="384" y="718" on="1"/>
        <pt x="630" y="74" on="1"/>
        <pt x="641" y="51" on="0"/>
        <pt x="664" y="28" on="0"/>
        <pt x="686" y="28" on="1"/>
        <pt x="722" y="28" on="1"/>
      </contour>
      <contour>
        <pt x="446" y="310" on="1"/>
        <pt x="338" y="596" on="1"/>
        <pt x="228" y="310" on="1"/>
      </contour>
      <contour>
        <pt x="291" y="930" on="0"/>
        <pt x="318" y="900" on="0"/>
        <pt x="318" y="853" on="0"/>
        <pt x="280" y="822" on="0"/>
        <pt x="234" y="822" on="0"/>
        <pt x="210" y="853" on="0"/>
        <pt x="210" y="897" on="0"/>
        <pt x="247" y="930" on="0"/>
      </contour>
      <contour>
        <pt x="495" y="930" on="0"/>
        <pt x="520" y="900" on="0"/>
        <pt x="520" y="853" on="0"/>
        <pt x="482" y="822" on="0"/>
        <pt x="437" y="822" on="0"/>
        <pt x="412" y="852" on="0"/>
        <pt x="412" y="897" on="0"/>
        <pt x="450" y="930" on="0"/>
      </contour>
    </TTGlyph>
    <TTGlyph name="Agrave" xMin="10" yMin="0" xMax="722" yMax="900">
      <contour>
        <pt x="722" y="0" on="1"/>
        <pt x="466" y="0" on="1"/>
        <pt x="466" y="28" on="1"/>
        <pt x="498" y="28" on="1"/>
        <pt x="542" y="28" on="0"/>
        <pt x="542" y="56" on="1"/>
        <pt x="542" y="60" on="0"/>
        <pt x="532" y="90" on="1"/>
        <pt x="464" y="268" on="1"/>
        <pt x="212" y="268" on="1"/>
        <pt x="146" y="98" on="1"/>
        <pt x="146" y="96" on="0"/>
        <pt x="132" y="51" on="0"/>
        <pt x="132" y="34" on="0"/>
        <pt x="154" y="28" on="0"/>
        <pt x="190" y="28" on="1"/>
        <pt x="206" y="28" on="1"/>
        <pt x="206" y="0" on="1"/>
        <pt x="10" y="0" on="1"/>
        <pt x="10" y="28" on="1"/>
        <pt x="24" y="28" on="1"/>
        <pt x="57" y="28" on="0"/>
        <pt x="87" y="51" on="0"/>
        <pt x="98" y="78" on="1"/>
        <pt x="318" y="652" on="1"/>
        <pt x="326" y="653" on="0"/>
        <pt x="371" y="707" on="0"/>
        <pt x="371" y="713" on="0"/>
        <pt x="370" y="714" on="1"/>
        <pt x="384" y="718" on="1"/>
        <pt x="630" y="74" on="1"/>
        <pt x="641" y="51" on="0"/>
        <pt x="664" y="28" on="0"/>
        <pt x="686" y="28" on="1"/>
        <pt x="722" y="28" on="1"/>
      </contour>
      <contour>
        <pt x="446" y="310" on="1"/>
        <pt x="338" y="596" on="1"/>
        <pt x="228" y="310" on="1"/>
      </contour>
      <contour>
        <pt x="428" y="760" on="1"/>
        <pt x="249" y="842" on="1"/>
        <pt x="301" y="900" on="1"/>
        <pt x="447" y="782" on="1"/>
      </contour>
    </TTGlyph>
    <TTGlyph name="Aring" xMin="10" yMin="0" xMax="722" yMax="978">
      <contour>
        <pt x="434" y="842" on="0"/>
        <pt x="434" y="902" on="0"/>
        <pt x="396" y="940" on="0"/>
        <pt x="336" y="940" on="0"/>
        <pt x="298" y="902" on="0"/>
        <pt x="298" y="842" on="0"/>
        <pt x="336" y="806" on="0"/>
        <pt x="396" y="806" on="0"/>
      </contour>
      <contour>
        <pt x="410" y="978" on="0"/>
        <pt x="472" y="917" on="0"/>
        <pt x="472" y="829" on="0"/>
        <pt x="410" y="768" on="0"/>
        <pt x="321" y="768" on="0"/>
        <pt x="260" y="828" on="0"/>
        <pt x="260" y="917" on="0"/>
        <pt x="321" y="978" on="0"/>
      </contour>
      <contour>
        <pt x="722" y="0" on="1"/>
        <pt x="466" y="0" on="1"/>
        <pt x="466" y="28" on="1"/>
        <pt x="498" y="28" on="1"/>
        <pt x="542" y="28" on="0"/>
        <pt x="542" y="56" on="1"/>
        <pt x="542" y="60" on="0"/>
        <pt x="532" y="90" on="1"/>
        <pt x="464" y="268" on="1"/>
        <pt x="212" y="268" on="1"/>
        <pt x="146" y="98" on="1"/>
        <pt x="146" y="96" on="0"/>
        <pt x="132" y="51" on="0"/>
        <pt x="132" y="34" on="0"/>
        <pt x="154" y="28" on="0"/>
        <pt x="190" y="28" on="1"/>
        <pt x="206" y="28" on="1"/>
        <pt x="206" y="0" on="1"/>
        <pt x="10" y="0" on="1"/>
        <pt x="10" y="28" on="1"/>
        <pt x="24" y="28" on="1"/>
        <pt x="57" y="28" on="0"/>
        <pt x="87" y="51" on="0"/>
        <pt x="98" y="78" on="1"/>
        <pt x="318" y="652" on="1"/>
        <pt x="326" y="653" on="0"/>
        <pt x="371" y="707" on="0"/>
        <pt x="371" y="713" on="0"/>
        <pt x="370" y="714" on="1"/>
        <pt x="384" y="718" on="1"/>
        <pt x="630" y="74" on="1"/>
        <pt x="641" y="51" on="0"/>
        <pt x="664" y="28" on="0"/>
        <pt x="686" y="28" on="1"/>
        <pt x="722" y="28" on="1"/>
      </contour>
      <contour>
        <pt x="446" y="310" on="1"/>
        <pt x="338" y="596" on="1"/>
        <pt x="228" y="310" on="1"/>
      </contour>
    </TTGlyph>
    <TTGlyph name="Atilde" xMin="10" yMin="0" xMax="722" yMax="916">
      <contour>
        <pt x="508" y="896" on="1"/>
        <pt x="522" y="880" on="1"/>
        <pt x="454" y="802" on="0"/>
        <pt x="392" y="802" on="1"/>
        <pt x="375" y="802" on="0"/>
        <pt x="311" y="866" on="0"/>
        <pt x="266" y="866" on="0"/>
        <pt x="222" y="822" on="1"/>
        <pt x="208" y="836" on="1"/>
        <pt x="283" y="916" on="0"/>
        <pt x="338" y="916" on="1"/>
        <pt x="357" y="916" on="0"/>
        <pt x="422" y="850" on="0"/>
        <pt x="470" y="850" on="0"/>
      </contour>
      <contour>
        <pt x="722" y="0" on="1"/>
        <pt x="466" y="0" on="1"/>
        <pt x="466" y="28" on="1"/>
        <pt x="498" y="28" on="1"/>
        <pt x="542" y="28" on="0"/>
        <pt x="542" y="56" on="1"/>
        <pt x="542" y="60" on="0"/>
        <pt x="532" y="90" on="1"/>
        <pt x="464" y="268" on="1"/>
        <pt x="212" y="268" on="1"/>
        <pt x="146" y="98" on="1"/>
        <pt x="146" y="96" on="0"/>
        <pt x="132" y="51" on="0"/>
        <pt x="132" y="34" on="0"/>
        <pt x="154" y="28" on="0"/>
        <pt x="190" y="28" on="1"/>
        <pt x="206" y="28" on="1"/>
        <pt x="206" y="0" on="1"/>
        <pt x="10" y="0" on="1"/>
        <pt x="10" y="28" on="1"/>
        <pt x="24" y="28" on="1"/>
        <pt x="57" y="28" on="0"/>
        <pt x="87" y="51" on="0"/>
        <pt x="98" y="78" on="1"/>
        <pt x="318" y="652" on="1"/>
        <pt x="326" y="653" on="0"/>
        <pt x="371" y="707" on="0"/>
        <pt x="371" y="713" on="0"/>
        <pt x="370" y="714" on="1"/>
        <pt x="384" y="718" on="1"/>
        <pt x="630" y="74" on="1"/>
        <pt x="641" y="51" on="0"/>
        <pt x="664" y="28" on="0"/>
        <pt x="686" y="28" on="1"/>
        <pt x="722" y="28" on="1"/>
      </contour>
      <contour>
        <pt x="446" y="310" on="1"/>
        <pt x="338" y="596" on="1"/>
        <pt x="228" y="310" on="1"/>
      </contour>
    </TTGlyph>
    <TTGlyph name="B" xMin="40" yMin="0" xMax="584" yMax="710">
      <contour>
        <pt x="174" y="700" on="1"/>
        <pt x="346" y="710" on="1"/>
        <pt x="482" y="710" on="0"/>
        <pt x="519" y="644" on="1"/>
        <pt x="534" y="617" on="0"/>
        <pt x="534" y="578" on="1"/>
        <pt x="534" y="462" on="0"/>
        <pt x="438" y="394" on="1"/>
        <pt x="540" y="375" on="0"/>
        <pt x="570" y="314" on="1"/>
        <pt x="584" y="284" on="0"/>
        <pt x="584" y="242" on="1"/>
        <pt x="584" y="141" on="0"/>
        <pt x="415" y="0" on="0"/>
        <pt x="300" y="0" on="1"/>
        <pt x="40" y="0" on="1"/>
        <pt x="40" y="30" on="1"/>
        <pt x="74" y="30" on="1"/>
        <pt x="104" y="30" on="0"/>
        <pt x="120" y="52" on="0"/>
        <pt x="120" y="74" on="1"/>
        <pt x="120" y="626" on="1"/>
        <pt x="120" y="650" on="0"/>
        <pt x="103" y="670" on="0"/>
        <pt x="74" y="670" on="1"/>
        <pt x="40" y="670" on="1"/>
        <pt x="40" y="700" on="1"/>
      </contour>
      <contour>
        <pt x="282" y="656" on="1"/>
        <pt x="242" y="656" on="0"/>
        <pt x="208" y="650" on="1"/>
        <pt x="208" y="388" on="1"/>
        <pt x="330" y="388" on="1"/>
        <pt x="385" y="388" on="0"/>
        <pt x="462" y="469" on="0"/>
        <pt x="462" y="516" on="1"/>
        <pt x="462" y="584" on="0"/>
        <pt x="354" y="656" on="0"/>
      </contour>
      <contour>
        <pt x="300" y="346" on="1"/>
        <pt x="208" y="346" on="1"/>
        <pt x="208" y="62" on="1"/>
        <pt x="269" y="44" on="0"/>
        <pt x="322" y="44" on="1"/>
        <pt x="402" y="44" on="0"/>
        <pt x="502" y="123" on="0"/>
        <pt x="502" y="190" on="1"/>
        <pt x="502" y="279" on="0"/>
        <pt x="438" y="314" on="1"/>
        <pt x="381" y="346" on="0"/>
      </contour>
    </TTGlyph>
    <TTGlyph name="C" xMin="36" yMin="-20" xMax="666" yMax="718">
      <contour>
        <pt x="642" y="196" on="1"/>
        <pt x="666" y="160" on="1"/>
        <pt x="585" y="68" on="0"/>
        <pt x="423" y="-20" on="0"/>
        <pt x="330" y="-20" on="1"/>
        <pt x="215" y="-20" on="0"/>
        <pt x="36" y="182" on="0"/>
        <pt x="36" y="310" on="1"/>
        <pt x="36" y="471" on="0"/>
        <pt x="279" y="718" on="0"/>
        <pt x="440" y="718" on="1"/>
        <pt x="504" y="718" on="0"/>
        <pt x="600" y="686" on="1"/>
        <pt x="588" y="546" on="1"/>
        <pt x="554" y="546" on="1"/>
        <pt x="554" y="583" on="0"/>
        <pt x="504" y="625" on="0"/>
        <pt x="441" y="636" on="0"/>
        <pt x="394" y="636" on="1"/>
        <pt x="278" y="636" on="0"/>
        <pt x="106" y="500" on="0"/>
        <pt x="106" y="382" on="1"/>
        <pt x="106" y="296" on="0"/>
        <pt x="170" y="162" on="0"/>
        <pt x="218" y="126" on="1"/>
        <pt x="313" y="56" on="0"/>
        <pt x="400" y="56" on="1"/>
        <pt x="454" y="56" on="0"/>
        <pt x="586" y="126" on="0"/>
      </contour>
    </TTGlyph>
    <TTGlyph name="Ccedilla" xMin="36" yMin="-214" xMax="666" yMax="718">
      <contour>
        <pt x="266" y="-162" on="1"/>
        <pt x="283" y="-188" on="0"/>
        <pt x="350" y="-188" on="0"/>
        <pt x="390" y="-160" on="0"/>
        <pt x="390" y="-131" on="1"/>
        <pt x="390" y="-92" on="0"/>
        <pt x="338" y="-92" on="1"/>
        <pt x="310" y="-92" on="0"/>
        <pt x="288" y="-108" on="1"/>
        <pt x="280" y="-100" on="1"/>
        <pt x="298" y="-18" on="1"/>
        <pt x="192" y="-3" on="0"/>
        <pt x="36" y="191" on="0"/>
        <pt x="36" y="310" on="1"/>
        <pt x="36" y="471" on="0"/>
        <pt x="279" y="718" on="0"/>
        <pt x="440" y="718" on="1"/>
        <pt x="504" y="718" on="0"/>
        <pt x="600" y="686" on="1"/>
        <pt x="588" y="546" on="1"/>
        <pt x="554" y="546" on="1"/>
        <pt x="554" y="583" on="0"/>
        <pt x="504" y="625" on="0"/>
        <pt x="441" y="636" on="0"/>
        <pt x="394" y="636" on="1"/>
        <pt x="278" y="636" on="0"/>
        <pt x="106" y="500" on="0"/>
        <pt x="106" y="382" on="1"/>
        <pt x="106" y="296" on="0"/>
        <pt x="170" y="162" on="0"/>
        <pt x="218" y="126" on="1"/>
        <pt x="313" y="56" on="0"/>
        <pt x="400" y="56" on="1"/>
        <pt x="454" y="56" on="0"/>
        <pt x="586" y="126" on="0"/>
        <pt x="642" y="196" on="1"/>
        <pt x="666" y="160" on="1"/>
        <pt x="510" y="-17" on="0"/>
        <pt x="332" y="-20" on="1"/>
        <pt x="318" y="-70" on="1"/>
        <pt x="345" y="-52" on="0"/>
        <pt x="410" y="-52" on="0"/>
        <pt x="444" y="-85" on="0"/>
        <pt x="444" y="-108" on="1"/>
        <pt x="444" y="-150" on="0"/>
        <pt x="365" y="-214" on="0"/>
        <pt x="280" y="-214" on="0"/>
        <pt x="252" y="-180" on="1"/>
      </contour>
    </TTGlyph>
    <TTGlyph name="D" xMin="40" yMin="0" xMax="742" yMax="710">
      <contour>
        <pt x="208" y="634" on="1"/>
        <pt x="208" y="90" on="1"/>
        <pt x="266" y="56" on="0"/>
        <pt x="366" y="56" on="1"/>
        <pt x="485" y="56" on="0"/>
        <pt x="576" y="121" on="1"/>
        <pt x="622" y="154" on="0"/>
        <pt x="676" y="272" on="0"/>
        <pt x="676" y="421" on="0"/>
        <pt x="617" y="537" on="0"/>
        <pt x="570" y="572" on="1"/>
        <pt x="475" y="644" on="0"/>
        <pt x="374" y="644" on="1"/>
      </contour>
      <contour>
        <pt x="194" y="700" on="1"/>
        <pt x="442" y="710" on="1"/>
        <pt x="581" y="710" on="0"/>
        <pt x="742" y="530" on="0"/>
        <pt x="742" y="229" on="0"/>
        <pt x="511" y="0" on="0"/>
        <pt x="356" y="0" on="1"/>
        <pt x="40" y="0" on="1"/>
        <pt x="40" y="30" on="1"/>
        <pt x="74" y="30" on="1"/>
        <pt x="104" y="30" on="0"/>
        <pt x="122" y="52" on="0"/>
        <pt x="122" y="74" on="1"/>
        <pt x="122" y="626" on="1"/>
        <pt x="122" y="649" on="0"/>
        <pt x="103" y="670" on="0"/>
        <pt x="74" y="670" on="1"/>
        <pt x="40" y="670" on="1"/>
        <pt x="40" y="700" on="1"/>
      </contour>
    </TTGlyph>
    <TTGlyph name="E" xMin="40" yMin="0" xMax="610" yMax="700">
      <contour>
        <pt x="576" y="0" on="1"/>
        <pt x="40" y="0" on="1"/>
        <pt x="40" y="28" on="1"/>
        <pt x="74" y="28" on="1"/>
        <pt x="103" y="28" on="0"/>
        <pt x="122" y="50" on="0"/>
        <pt x="122" y="74" on="1"/>
        <pt x="122" y="626" on="1"/>
        <pt x="122" y="646" on="0"/>
        <pt x="97" y="672" on="0"/>
        <pt x="74" y="672" on="1"/>
        <pt x="40" y="672" on="1"/>
        <pt x="40" y="700" on="1"/>
        <pt x="568" y="700" on="1"/>
        <pt x="576" y="562" on="1"/>
        <pt x="548" y="556" on="1"/>
        <pt x="548" y="592" on="0"/>
        <pt x="490" y="658" on="0"/>
        <pt x="438" y="658" on="1"/>
        <pt x="256" y="658" on="1"/>
        <pt x="226" y="658" on="0"/>
        <pt x="208" y="635" on="0"/>
        <pt x="208" y="614" on="1"/>
        <pt x="208" y="386" on="1"/>
        <pt x="408" y="386" on="1"/>
        <pt x="423" y="386" on="0"/>
        <pt x="439" y="389" on="0"/>
        <pt x="452" y="407" on="0"/>
        <pt x="452" y="424" on="1"/>
        <pt x="452" y="470" on="1"/>
        <pt x="482" y="470" on="1"/>
        <pt x="482" y="262" on="1"/>
        <pt x="452" y="262" on="1"/>
        <pt x="452" y="304" on="1"/>
        <pt x="452" y="329" on="0"/>
        <pt x="430" y="344" on="0"/>
        <pt x="408" y="344" on="1"/>
        <pt x="208" y="344" on="1"/>
        <pt x="208" y="86" on="1"/>
        <pt x="208" y="65" on="0"/>
        <pt x="226" y="42" on="0"/>
        <pt x="256" y="42" on="1"/>
        <pt x="446" y="42" on="1"/>
        <pt x="499" y="42" on="0"/>
        <pt x="580" y="110" on="0"/>
        <pt x="582" y="142" on="1"/>
        <pt x="610" y="138" on="1"/>
      </contour>
    </TTGlyph>
    <TTGlyph name="Eacute" xMin="40" yMin="0" xMax="610" yMax="900">
      <contour>
        <pt x="576" y="0" on="1"/>
        <pt x="40" y="0" on="1"/>
        <pt x="40" y="28" on="1"/>
        <pt x="74" y="28" on="1"/>
        <pt x="103" y="28" on="0"/>
        <pt x="122" y="50" on="0"/>
        <pt x="122" y="74" on="1"/>
        <pt x="122" y="626" on="1"/>
        <pt x="122" y="646" on="0"/>
        <pt x="97" y="672" on="0"/>
        <pt x="74" y="672" on="1"/>
        <pt x="40" y="672" on="1"/>
        <pt x="40" y="700" on="1"/>
        <pt x="568" y="700" on="1"/>
        <pt x="576" y="562" on="1"/>
        <pt x="548" y="556" on="1"/>
        <pt x="548" y="592" on="0"/>
        <pt x="490" y="658" on="0"/>
        <pt x="438" y="658" on="1"/>
        <pt x="256" y="658" on="1"/>
        <pt x="226" y="658" on="0"/>
        <pt x="208" y="635" on="0"/>
        <pt x="208" y="614" on="1"/>
        <pt x="208" y="386" on="1"/>
        <pt x="408" y="386" on="1"/>
        <pt x="423" y="386" on="0"/>
        <pt x="439" y="389" on="0"/>
        <pt x="452" y="407" on="0"/>
        <pt x="452" y="424" on="1"/>
        <pt x="452" y="470" on="1"/>
        <pt x="482" y="470" on="1"/>
        <pt x="482" y="262" on="1"/>
        <pt x="452" y="262" on="1"/>
        <pt x="452" y="304" on="1"/>
        <pt x="452" y="329" on="0"/>
        <pt x="430" y="344" on="0"/>
        <pt x="408" y="344" on="1"/>
        <pt x="208" y="344" on="1"/>
        <pt x="208" y="86" on="1"/>
        <pt x="208" y="65" on="0"/>
        <pt x="226" y="42" on="0"/>
        <pt x="256" y="42" on="1"/>
        <pt x="446" y="42" on="1"/>
        <pt x="499" y="42" on="0"/>
        <pt x="580" y="110" on="0"/>
        <pt x="582" y="142" on="1"/>
        <pt x="610" y="138" on="1"/>
      </contour>
      <contour>
        <pt x="481" y="842" on="1"/>
        <pt x="302" y="760" on="1"/>
        <pt x="283" y="782" on="1"/>
        <pt x="429" y="900" on="1"/>
      </contour>
    </TTGlyph>
    <TTGlyph name="Ecircumflex" xMin="40" yMin="0" xMax="610" yMax="940">
      <contour>
        <pt x="432" y="772" on="1"/>
        <pt x="406" y="760" on="1"/>
        <pt x="318" y="858" on="1"/>
        <pt x="232" y="760" on="1"/>
        <pt x="206" y="772" on="1"/>
        <pt x="290" y="940" on="1"/>
        <pt x="348" y="940" on="1"/>
      </contour>
      <contour>
        <pt x="576" y="0" on="1"/>
        <pt x="40" y="0" on="1"/>
        <pt x="40" y="28" on="1"/>
        <pt x="74" y="28" on="1"/>
        <pt x="103" y="28" on="0"/>
        <pt x="122" y="50" on="0"/>
        <pt x="122" y="74" on="1"/>
        <pt x="122" y="626" on="1"/>
        <pt x="122" y="646" on="0"/>
        <pt x="97" y="672" on="0"/>
        <pt x="74" y="672" on="1"/>
        <pt x="40" y="672" on="1"/>
        <pt x="40" y="700" on="1"/>
        <pt x="568" y="700" on="1"/>
        <pt x="576" y="562" on="1"/>
        <pt x="548" y="556" on="1"/>
        <pt x="548" y="592" on="0"/>
        <pt x="490" y="658" on="0"/>
        <pt x="438" y="658" on="1"/>
        <pt x="256" y="658" on="1"/>
        <pt x="226" y="658" on="0"/>
        <pt x="208" y="635" on="0"/>
        <pt x="208" y="614" on="1"/>
        <pt x="208" y="386" on="1"/>
        <pt x="408" y="386" on="1"/>
        <pt x="423" y="386" on="0"/>
        <pt x="439" y="389" on="0"/>
        <pt x="452" y="407" on="0"/>
        <pt x="452" y="424" on="1"/>
        <pt x="452" y="470" on="1"/>
        <pt x="482" y="470" on="1"/>
        <pt x="482" y="262" on="1"/>
        <pt x="452" y="262" on="1"/>
        <pt x="452" y="304" on="1"/>
        <pt x="452" y="329" on="0"/>
        <pt x="430" y="344" on="0"/>
        <pt x="408" y="344" on="1"/>
        <pt x="208" y="344" on="1"/>
        <pt x="208" y="86" on="1"/>
        <pt x="208" y="65" on="0"/>
        <pt x="226" y="42" on="0"/>
        <pt x="256" y="42" on="1"/>
        <pt x="446" y="42" on="1"/>
        <pt x="499" y="42" on="0"/>
        <pt x="580" y="110" on="0"/>
        <pt x="582" y="142" on="1"/>
        <pt x="610" y="138" on="1"/>
      </contour>
    </TTGlyph>
    <TTGlyph name="Edieresis" xMin="40" yMin="0" xMax="610" yMax="930">
      <contour>
        <pt x="245" y="930" on="0"/>
        <pt x="272" y="900" on="0"/>
        <pt x="272" y="853" on="0"/>
        <pt x="234" y="822" on="0"/>
        <pt x="188" y="822" on="0"/>
        <pt x="164" y="853" on="0"/>
        <pt x="164" y="897" on="0"/>
        <pt x="201" y="930" on="0"/>
      </contour>
      <contour>
        <pt x="449" y="930" on="0"/>
        <pt x="474" y="900" on="0"/>
        <pt x="474" y="853" on="0"/>
        <pt x="436" y="822" on="0"/>
        <pt x="391" y="822" on="0"/>
        <pt x="366" y="852" on="0"/>
        <pt x="366" y="897" on="0"/>
        <pt x="404" y="930" on="0"/>
      </contour>
      <contour>
        <pt x="576" y="0" on="1"/>
        <pt x="40" y="0" on="1"/>
        <pt x="40" y="28" on="1"/>
        <pt x="74" y="28" on="1"/>
        <pt x="103" y="28" on="0"/>
        <pt x="122" y="50" on="0"/>
        <pt x="122" y="74" on="1"/>
        <pt x="122" y="626" on="1"/>
        <pt x="122" y="646" on="0"/>
        <pt x="97" y="672" on="0"/>
        <pt x="74" y="672" on="1"/>
        <pt x="40" y="672" on="1"/>
        <pt x="40" y="700" on="1"/>
        <pt x="568" y="700" on="1"/>
        <pt x="576" y="562" on="1"/>
        <pt x="548" y="556" on="1"/>
        <pt x="548" y="592" on="0"/>
        <pt x="490" y="658" on="0"/>
        <pt x="438" y="658" on="1"/>
        <pt x="256" y="658" on="1"/>
        <pt x="226" y="658" on="0"/>
        <pt x="208" y="635" on="0"/>
        <pt x="208" y="614" on="1"/>
        <pt x="208" y="386" on="1"/>
        <pt x="408" y="386" on="1"/>
        <pt x="423" y="386" on="0"/>
        <pt x="439" y="389" on="0"/>
        <pt x="452" y="407" on="0"/>
        <pt x="452" y="424" on="1"/>
        <pt x="452" y="470" on="1"/>
        <pt x="482" y="470" on="1"/>
        <pt x="482" y="262" on="1"/>
        <pt x="452" y="262" on="1"/>
        <pt x="452" y="304" on="1"/>
        <pt x="452" y="329" on="0"/>
        <pt x="430" y="344" on="0"/>
        <pt x="408" y="344" on="1"/>
        <pt x="208" y="344" on="1"/>
        <pt x="208" y="86" on="1"/>
        <pt x="208" y="65" on="0"/>
        <pt x="226" y="42" on="0"/>
        <pt x="256" y="42" on="1"/>
        <pt x="446" y="42" on="1"/>
        <pt x="499" y="42" on="0"/>
        <pt x="580" y="110" on="0"/>
        <pt x="582" y="142" on="1"/>
        <pt x="610" y="138" on="1"/>
      </contour>
    </TTGlyph>
    <TTGlyph name="Egrave" xMin="40" yMin="0" xMax="610" yMax="900">
      <contour>
        <pt x="576" y="0" on="1"/>
        <pt x="40" y="0" on="1"/>
        <pt x="40" y="28" on="1"/>
        <pt x="74" y="28" on="1"/>
        <pt x="103" y="28" on="0"/>
        <pt x="122" y="50" on="0"/>
        <pt x="122" y="74" on="1"/>
        <pt x="122" y="626" on="1"/>
        <pt x="122" y="646" on="0"/>
        <pt x="97" y="672" on="0"/>
        <pt x="74" y="672" on="1"/>
        <pt x="40" y="672" on="1"/>
        <pt x="40" y="700" on="1"/>
        <pt x="568" y="700" on="1"/>
        <pt x="576" y="562" on="1"/>
        <pt x="548" y="556" on="1"/>
        <pt x="548" y="592" on="0"/>
        <pt x="490" y="658" on="0"/>
        <pt x="438" y="658" on="1"/>
        <pt x="256" y="658" on="1"/>
        <pt x="226" y="658" on="0"/>
        <pt x="208" y="635" on="0"/>
        <pt x="208" y="614" on="1"/>
        <pt x="208" y="386" on="1"/>
        <pt x="408" y="386" on="1"/>
        <pt x="423" y="386" on="0"/>
        <pt x="439" y="389" on="0"/>
        <pt x="452" y="407" on="0"/>
        <pt x="452" y="424" on="1"/>
        <pt x="452" y="470" on="1"/>
        <pt x="482" y="470" on="1"/>
        <pt x="482" y="262" on="1"/>
        <pt x="452" y="262" on="1"/>
        <pt x="452" y="304" on="1"/>
        <pt x="452" y="329" on="0"/>
        <pt x="430" y="344" on="0"/>
        <pt x="408" y="344" on="1"/>
        <pt x="208" y="344" on="1"/>
        <pt x="208" y="86" on="1"/>
        <pt x="208" y="65" on="0"/>
        <pt x="226" y="42" on="0"/>
        <pt x="256" y="42" on="1"/>
        <pt x="446" y="42" on="1"/>
        <pt x="499" y="42" on="0"/>
        <pt x="580" y="110" on="0"/>
        <pt x="582" y="142" on="1"/>
        <pt x="610" y="138" on="1"/>
      </contour>
      <contour>
        <pt x="382" y="760" on="1"/>
        <pt x="203" y="842" on="1"/>
        <pt x="255" y="900" on="1"/>
        <pt x="401" y="782" on="1"/>
      </contour>
    </TTGlyph>
    <TTGlyph name="Eth" xMin="30" yMin="0" xMax="742" yMax="710">
      <contour>
        <pt x="356" y="0" on="1"/>
        <pt x="30" y="0" on="1"/>
        <pt x="30" y="30" on="1"/>
        <pt x="74" y="30" on="1"/>
        <pt x="104" y="30" on="0"/>
        <pt x="122" y="52" on="0"/>
        <pt x="122" y="74" on="1"/>
        <pt x="122" y="344" on="1"/>
        <pt x="40" y="344" on="1"/>
        <pt x="40" y="386" on="1"/>
        <pt x="122" y="386" on="1"/>
        <pt x="122" y="626" on="1"/>
        <pt x="122" y="649" on="0"/>
        <pt x="103" y="670" on="0"/>
        <pt x="74" y="670" on="1"/>
        <pt x="30" y="670" on="1"/>
        <pt x="30" y="700" on="1"/>
        <pt x="196" y="700" on="1"/>
        <pt x="398" y="710" on="0"/>
        <pt x="442" y="710" on="1"/>
        <pt x="581" y="710" on="0"/>
        <pt x="742" y="530" on="0"/>
        <pt x="742" y="229" on="0"/>
        <pt x="511" y="0" on="0"/>
      </contour>
      <contour>
        <pt x="400" y="344" on="1"/>
        <pt x="208" y="344" on="1"/>
        <pt x="208" y="90" on="1"/>
        <pt x="266" y="56" on="0"/>
        <pt x="366" y="56" on="1"/>
        <pt x="485" y="56" on="0"/>
        <pt x="576" y="121" on="1"/>
        <pt x="622" y="154" on="0"/>
        <pt x="676" y="272" on="0"/>
        <pt x="676" y="421" on="0"/>
        <pt x="617" y="537" on="0"/>
        <pt x="570" y="572" on="1"/>
        <pt x="475" y="644" on="0"/>
        <pt x="374" y="644" on="1"/>
        <pt x="208" y="634" on="1"/>
        <pt x="208" y="386" on="1"/>
        <pt x="400" y="386" on="1"/>
      </contour>
    </TTGlyph>
    <TTGlyph name="Euro" xMin="32" yMin="-20" xMax="624" yMax="700">
      <contour>
        <pt x="162" y="402" on="1"/>
        <pt x="160" y="372" on="1"/>
        <pt x="160" y="354" on="0"/>
        <pt x="164" y="314" on="1"/>
        <pt x="443" y="314" on="1"/>
        <pt x="438" y="272" on="1"/>
        <pt x="172" y="272" on="1"/>
        <pt x="194" y="177" on="0"/>
        <pt x="314" y="56" on="0"/>
        <pt x="402" y="56" on="1"/>
        <pt x="505" y="56" on="0"/>
        <pt x="600" y="162" on="1"/>
        <pt x="624" y="126" on="1"/>
        <pt x="573" y="53" on="0"/>
        <pt x="458" y="-20" on="0"/>
        <pt x="384" y="-20" on="1"/>
        <pt x="247" y="-20" on="0"/>
        <pt x="100" y="146" on="0"/>
        <pt x="90" y="272" on="1"/>
        <pt x="32" y="272" on="1"/>
        <pt x="37" y="314" on="1"/>
        <pt x="90" y="314" on="1"/>
        <pt x="90" y="355" on="0"/>
        <pt x="100" y="402" on="1"/>
        <pt x="32" y="402" on="1"/>
        <pt x="37" y="444" on="1"/>
        <pt x="114" y="444" on="1"/>
        <pt x="154" y="555" on="0"/>
        <pt x="337" y="700" on="0"/>
        <pt x="532" y="700" on="0"/>
        <pt x="594" y="666" on="1"/>
        <pt x="582" y="550" on="1"/>
        <pt x="548" y="550" on="1"/>
        <pt x="548" y="597" on="0"/>
        <pt x="457" y="642" on="0"/>
        <pt x="317" y="642" on="0"/>
        <pt x="195" y="525" on="0"/>
        <pt x="172" y="444" on="1"/>
        <pt x="443" y="444" on="1"/>
        <pt x="438" y="402" on="1"/>
      </contour>
    </TTGlyph>
    <TTGlyph name="F" xMin="40" yMin="0" xMax="584" yMax="700">
      <contour>
        <pt x="294" y="0" on="1"/>
        <pt x="40" y="0" on="1"/>
        <pt x="40" y="28" on="1"/>
        <pt x="72" y="28" on="1"/>
        <pt x="94" y="28" on="0"/>
        <pt x="116" y="43" on="0"/>
        <pt x="120" y="59" on="0"/>
        <pt x="120" y="74" on="1"/>
        <pt x="120" y="626" on="1"/>
        <pt x="120" y="651" on="0"/>
        <pt x="100" y="672" on="0"/>
        <pt x="72" y="672" on="1"/>
        <pt x="40" y="672" on="1"/>
        <pt x="40" y="700" on="1"/>
        <pt x="574" y="700" on="1"/>
        <pt x="584" y="558" on="1"/>
        <pt x="556" y="554" on="1"/>
        <pt x="554" y="591" on="0"/>
        <pt x="496" y="658" on="0"/>
        <pt x="444" y="658" on="1"/>
        <pt x="256" y="658" on="1"/>
        <pt x="234" y="658" on="0"/>
        <pt x="212" y="644" on="0"/>
        <pt x="208" y="628" on="0"/>
        <pt x="208" y="614" on="1"/>
        <pt x="208" y="392" on="1"/>
        <pt x="402" y="392" on="1"/>
        <pt x="417" y="392" on="0"/>
        <pt x="425" y="394" on="1"/>
        <pt x="446" y="399" on="0"/>
        <pt x="446" y="432" on="1"/>
        <pt x="446" y="480" on="1"/>
        <pt x="476" y="480" on="1"/>
        <pt x="476" y="266" on="1"/>
        <pt x="446" y="266" on="1"/>
        <pt x="446" y="310" on="1"/>
        <pt x="446" y="336" on="0"/>
        <pt x="424" y="350" on="0"/>
        <pt x="402" y="350" on="1"/>
        <pt x="208" y="350" on="1"/>
        <pt x="208" y="74" on="1"/>
        <pt x="208" y="59" on="0"/>
        <pt x="212" y="43" on="0"/>
        <pt x="234" y="28" on="0"/>
        <pt x="256" y="28" on="1"/>
        <pt x="294" y="28" on="1"/>
      </contour>
    </TTGlyph>
    <TTGlyph name="G" xMin="36" yMin="-20" xMax="706" yMax="718">
      <contour>
        <pt x="556" y="114" on="1"/>
        <pt x="556" y="238" on="1"/>
        <pt x="556" y="252" on="0"/>
        <pt x="552" y="268" on="0"/>
        <pt x="530" y="282" on="0"/>
        <pt x="508" y="282" on="1"/>
        <pt x="472" y="282" on="1"/>
        <pt x="472" y="310" on="1"/>
        <pt x="706" y="310" on="1"/>
        <pt x="706" y="282" on="1"/>
        <pt x="690" y="282" on="1"/>
        <pt x="660" y="282" on="0"/>
        <pt x="642" y="259" on="0"/>
        <pt x="642" y="238" on="1"/>
        <pt x="642" y="136" on="1"/>
        <pt x="498" y="-20" on="0"/>
        <pt x="328" y="-20" on="1"/>
        <pt x="214" y="-20" on="0"/>
        <pt x="36" y="182" on="0"/>
        <pt x="36" y="308" on="1"/>
        <pt x="36" y="471" on="0"/>
        <pt x="277" y="718" on="0"/>
        <pt x="438" y="718" on="1"/>
        <pt x="498" y="718" on="0"/>
        <pt x="600" y="684" on="1"/>
        <pt x="606" y="546" on="1"/>
        <pt x="570" y="546" on="1"/>
        <pt x="570" y="636" on="0"/>
        <pt x="394" y="636" on="1"/>
        <pt x="273" y="636" on="0"/>
        <pt x="104" y="503" on="0"/>
        <pt x="104" y="380" on="1"/>
        <pt x="104" y="311" on="0"/>
        <pt x="147" y="197" on="0"/>
        <pt x="213" y="125" on="0"/>
        <pt x="254" y="100" on="1"/>
        <pt x="330" y="56" on="0"/>
        <pt x="472" y="56" on="0"/>
      </contour>
    </TTGlyph>
    <TTGlyph name="H" xMin="40" yMin="0" xMax="770" yMax="700">
      <contour>
        <pt x="770" y="0" on="1"/>
        <pt x="516" y="0" on="1"/>
        <pt x="516" y="28" on="1"/>
        <pt x="548" y="28" on="1"/>
        <pt x="570" y="28" on="0"/>
        <pt x="592" y="43" on="0"/>
        <pt x="596" y="59" on="0"/>
        <pt x="596" y="74" on="1"/>
        <pt x="596" y="342" on="1"/>
        <pt x="208" y="342" on="1"/>
        <pt x="208" y="74" on="1"/>
        <pt x="208" y="52" on="0"/>
        <pt x="226" y="28" on="0"/>
        <pt x="256" y="28" on="1"/>
        <pt x="294" y="28" on="1"/>
        <pt x="294" y="0" on="1"/>
        <pt x="40" y="0" on="1"/>
        <pt x="40" y="28" on="1"/>
        <pt x="74" y="28" on="1"/>
        <pt x="104" y="28" on="0"/>
        <pt x="122" y="52" on="0"/>
        <pt x="122" y="74" on="1"/>
        <pt x="122" y="626" on="1"/>
        <pt x="122" y="648" on="0"/>
        <pt x="104" y="672" on="0"/>
        <pt x="74" y="672" on="1"/>
        <pt x="40" y="672" on="1"/>
        <pt x="40" y="700" on="1"/>
        <pt x="294" y="700" on="1"/>
        <pt x="294" y="672" on="1"/>
        <pt x="256" y="672" on="1"/>
        <pt x="226" y="672" on="0"/>
        <pt x="208" y="648" on="0"/>
        <pt x="208" y="626" on="1"/>
        <pt x="208" y="386" on="1"/>
        <pt x="596" y="386" on="1"/>
        <pt x="596" y="626" on="1"/>
        <pt x="596" y="641" on="0"/>
        <pt x="592" y="657" on="0"/>
        <pt x="570" y="672" on="0"/>
        <pt x="548" y="672" on="1"/>
        <pt x="516" y="672" on="1"/>
        <pt x="516" y="700" on="1"/>
        <pt x="770" y="700" on="1"/>
        <pt x="770" y="672" on="1"/>
        <pt x="732" y="672" on="1"/>
        <pt x="710" y="672" on="0"/>
        <pt x="688" y="657" on="0"/>
        <pt x="684" y="641" on="0"/>
        <pt x="684" y="626" on="1"/>
        <pt x="684" y="74" on="1"/>
        <pt x="684" y="59" on="0"/>
        <pt x="688" y="43" on="0"/>
        <pt x="710" y="28" on="0"/>
        <pt x="732" y="28" on="1"/>
        <pt x="770" y="28" on="1"/>
      </contour>
    </TTGlyph>
    <TTGlyph name="I" xMin="40" yMin="0" xMax="294" yMax="700">
      <contour>
        <pt x="294" y="0" on="1"/>
        <pt x="40" y="0" on="1"/>
        <pt x="40" y="28" on="1"/>
        <pt x="74" y="28" on="1"/>
        <pt x="104" y="28" on="0"/>
        <pt x="122" y="52" on="0"/>
        <pt x="122" y="74" on="1"/>
        <pt x="122" y="626" on="1"/>
        <pt x="122" y="648" on="0"/>
        <pt x="104" y="672" on="0"/>
        <pt x="74" y="672" on="1"/>
        <pt x="40" y="672" on="1"/>
        <pt x="40" y="700" on="1"/>
        <pt x="294" y="700" on="1"/>
        <pt x="294" y="672" on="1"/>
        <pt x="256" y="672" on="1"/>
        <pt x="226" y="672" on="0"/>
        <pt x="208" y="648" on="0"/>
        <pt x="208" y="626" on="1"/>
        <pt x="208" y="74" on="1"/>
        <pt x="208" y="52" on="0"/>
        <pt x="226" y="28" on="0"/>
        <pt x="256" y="28" on="1"/>
        <pt x="294" y="28" on="1"/>
      </contour>
    </TTGlyph>
    <TTGlyph name="IJ" xMin="40" yMin="-218" xMax="622" yMax="700">
      <contour>
        <pt x="362" y="-218" on="1"/>
        <pt x="340" y="-180" on="1"/>
        <pt x="382" y="-152" on="0"/>
        <pt x="448" y="-70" on="0"/>
        <pt x="448" y="-36" on="1"/>
        <pt x="448" y="626" on="1"/>
        <pt x="448" y="641" on="0"/>
        <pt x="444" y="657" on="0"/>
        <pt x="422" y="670" on="0"/>
        <pt x="400" y="670" on="1"/>
        <pt x="366" y="670" on="1"/>
        <pt x="366" y="700" on="1"/>
        <pt x="622" y="700" on="1"/>
        <pt x="622" y="670" on="1"/>
        <pt x="584" y="670" on="1"/>
        <pt x="562" y="670" on="0"/>
        <pt x="540" y="657" on="0"/>
        <pt x="536" y="641" on="0"/>
        <pt x="536" y="626" on="1"/>
        <pt x="536" y="-6" on="1"/>
        <pt x="536" y="-109" on="0"/>
        <pt x="480" y="-154" on="1"/>
        <pt x="461" y="-169" on="0"/>
        <pt x="431" y="-184" on="0"/>
        <pt x="377" y="-209" on="0"/>
      </contour>
      <contour>
        <pt x="294" y="0" on="1"/>
        <pt x="40" y="0" on="1"/>
        <pt x="40" y="28" on="1"/>
        <pt x="74" y="28" on="1"/>
        <pt x="104" y="28" on="0"/>
        <pt x="122" y="52" on="0"/>
        <pt x="122" y="74" on="1"/>
        <pt x="122" y="626" on="1"/>
        <pt x="122" y="648" on="0"/>
        <pt x="104" y="672" on="0"/>
        <pt x="74" y="672" on="1"/>
        <pt x="40" y="672" on="1"/>
        <pt x="40" y="700" on="1"/>
        <pt x="294" y="700" on="1"/>
        <pt x="294" y="672" on="1"/>
        <pt x="256" y="672" on="1"/>
        <pt x="226" y="672" on="0"/>
        <pt x="208" y="648" on="0"/>
        <pt x="208" y="626" on="1"/>
        <pt x="208" y="74" on="1"/>
        <pt x="208" y="52" on="0"/>
        <pt x="226" y="28" on="0"/>
        <pt x="256" y="28" on="1"/>
        <pt x="294" y="28" on="1"/>
      </contour>
    </TTGlyph>
    <TTGlyph name="Iacute" xMin="40" yMin="0" xMax="294" yMax="900">
      <contour>
        <pt x="294" y="0" on="1"/>
        <pt x="40" y="0" on="1"/>
        <pt x="40" y="28" on="1"/>
        <pt x="74" y="28" on="1"/>
        <pt x="104" y="28" on="0"/>
        <pt x="122" y="52" on="0"/>
        <pt x="122" y="74" on="1"/>
        <pt x="122" y="626" on="1"/>
        <pt x="122" y="648" on="0"/>
        <pt x="104" y="672" on="0"/>
        <pt x="74" y="672" on="1"/>
        <pt x="40" y="672" on="1"/>
        <pt x="40" y="700" on="1"/>
        <pt x="294" y="700" on="1"/>
        <pt x="294" y="672" on="1"/>
        <pt x="256" y="672" on="1"/>
        <pt x="226" y="672" on="0"/>
        <pt x="208" y="648" on="0"/>
        <pt x="208" y="626" on="1"/>
        <pt x="208" y="74" on="1"/>
        <pt x="208" y="52" on="0"/>
        <pt x="226" y="28" on="0"/>
        <pt x="256" y="28" on="1"/>
        <pt x="294" y="28" on="1"/>
      </contour>
      <contour>
        <pt x="281" y="842" on="1"/>
        <pt x="102" y="760" on="1"/>
        <pt x="83" y="782" on="1"/>
        <pt x="229" y="900" on="1"/>
      </contour>
    </TTGlyph>
    <TTGlyph name="Icircumflex" xMin="40" yMin="0" xMax="294" yMax="940">
      <contour>
        <pt x="280" y="772" on="1"/>
        <pt x="254" y="760" on="1"/>
        <pt x="166" y="858" on="1"/>
        <pt x="80" y="760" on="1"/>
        <pt x="54" y="772" on="1"/>
        <pt x="138" y="940" on="1"/>
        <pt x="196" y="940" on="1"/>
      </contour>
      <contour>
        <pt x="294" y="0" on="1"/>
        <pt x="40" y="0" on="1"/>
        <pt x="40" y="28" on="1"/>
        <pt x="74" y="28" on="1"/>
        <pt x="104" y="28" on="0"/>
        <pt x="122" y="52" on="0"/>
        <pt x="122" y="74" on="1"/>
        <pt x="122" y="626" on="1"/>
        <pt x="122" y="648" on="0"/>
        <pt x="104" y="672" on="0"/>
        <pt x="74" y="672" on="1"/>
        <pt x="40" y="672" on="1"/>
        <pt x="40" y="700" on="1"/>
        <pt x="294" y="700" on="1"/>
        <pt x="294" y="672" on="1"/>
        <pt x="256" y="672" on="1"/>
        <pt x="226" y="672" on="0"/>
        <pt x="208" y="648" on="0"/>
        <pt x="208" y="626" on="1"/>
        <pt x="208" y="74" on="1"/>
        <pt x="208" y="52" on="0"/>
        <pt x="226" y="28" on="0"/>
        <pt x="256" y="28" on="1"/>
        <pt x="294" y="28" on="1"/>
      </contour>
    </TTGlyph>
    <TTGlyph name="Idieresis" xMin="12" yMin="0" xMax="322" yMax="930">
      <contour>
        <pt x="93" y="930" on="0"/>
        <pt x="120" y="900" on="0"/>
        <pt x="120" y="853" on="0"/>
        <pt x="82" y="822" on="0"/>
        <pt x="36" y="822" on="0"/>
        <pt x="12" y="853" on="0"/>
        <pt x="12" y="897" on="0"/>
        <pt x="49" y="930" on="0"/>
      </contour>
      <contour>
        <pt x="297" y="930" on="0"/>
        <pt x="322" y="900" on="0"/>
        <pt x="322" y="853" on="0"/>
        <pt x="284" y="822" on="0"/>
        <pt x="239" y="822" on="0"/>
        <pt x="214" y="852" on="0"/>
        <pt x="214" y="897" on="0"/>
        <pt x="252" y="930" on="0"/>
      </contour>
      <contour>
        <pt x="294" y="0" on="1"/>
        <pt x="40" y="0" on="1"/>
        <pt x="40" y="28" on="1"/>
        <pt x="74" y="28" on="1"/>
        <pt x="104" y="28" on="0"/>
        <pt x="122" y="52" on="0"/>
        <pt x="122" y="74" on="1"/>
        <pt x="122" y="626" on="1"/>
        <pt x="122" y="648" on="0"/>
        <pt x="104" y="672" on="0"/>
        <pt x="74" y="672" on="1"/>
        <pt x="40" y="672" on="1"/>
        <pt x="40" y="700" on="1"/>
        <pt x="294" y="700" on="1"/>
        <pt x="294" y="672" on="1"/>
        <pt x="256" y="672" on="1"/>
        <pt x="226" y="672" on="0"/>
        <pt x="208" y="648" on="0"/>
        <pt x="208" y="626" on="1"/>
        <pt x="208" y="74" on="1"/>
        <pt x="208" y="52" on="0"/>
        <pt x="226" y="28" on="0"/>
        <pt x="256" y="28" on="1"/>
        <pt x="294" y="28" on="1"/>
      </contour>
    </TTGlyph>
    <TTGlyph name="Igrave" xMin="40" yMin="0" xMax="294" yMax="900">
      <contour>
        <pt x="294" y="0" on="1"/>
        <pt x="40" y="0" on="1"/>
        <pt x="40" y="28" on="1"/>
        <pt x="74" y="28" on="1"/>
        <pt x="104" y="28" on="0"/>
        <pt x="122" y="52" on="0"/>
        <pt x="122" y="74" on="1"/>
        <pt x="122" y="626" on="1"/>
        <pt x="122" y="648" on="0"/>
        <pt x="104" y="672" on="0"/>
        <pt x="74" y="672" on="1"/>
        <pt x="40" y="672" on="1"/>
        <pt x="40" y="700" on="1"/>
        <pt x="294" y="700" on="1"/>
        <pt x="294" y="672" on="1"/>
        <pt x="256" y="672" on="1"/>
        <pt x="226" y="672" on="0"/>
        <pt x="208" y="648" on="0"/>
        <pt x="208" y="626" on="1"/>
        <pt x="208" y="74" on="1"/>
        <pt x="208" y="52" on="0"/>
        <pt x="226" y="28" on="0"/>
        <pt x="256" y="28" on="1"/>
        <pt x="294" y="28" on="1"/>
      </contour>
      <contour>
        <pt x="230" y="760" on="1"/>
        <pt x="51" y="842" on="1"/>
        <pt x="103" y="900" on="1"/>
        <pt x="249" y="782" on="1"/>
      </contour>
    </TTGlyph>
    <TTGlyph name="Itilde" xMin="10" yMin="0" xMax="324" yMax="866">
      <contour>
        <pt x="310" y="846" on="1"/>
        <pt x="324" y="830" on="1"/>
        <pt x="251" y="752" on="0"/>
        <pt x="194" y="752" on="1"/>
        <pt x="176" y="752" on="0"/>
        <pt x="112" y="816" on="0"/>
        <pt x="64" y="816" on="0"/>
        <pt x="24" y="772" on="1"/>
        <pt x="10" y="786" on="1"/>
        <pt x="80" y="866" on="0"/>
        <pt x="140" y="866" on="1"/>
        <pt x="158" y="866" on="0"/>
        <pt x="224" y="800" on="0"/>
        <pt x="268" y="800" on="0"/>
      </contour>
      <contour>
        <pt x="294" y="0" on="1"/>
        <pt x="40" y="0" on="1"/>
        <pt x="40" y="28" on="1"/>
        <pt x="74" y="28" on="1"/>
        <pt x="104" y="28" on="0"/>
        <pt x="122" y="52" on="0"/>
        <pt x="122" y="74" on="1"/>
        <pt x="122" y="626" on="1"/>
        <pt x="122" y="648" on="0"/>
        <pt x="104" y="672" on="0"/>
        <pt x="74" y="672" on="1"/>
        <pt x="40" y="672" on="1"/>
        <pt x="40" y="700" on="1"/>
        <pt x="294" y="700" on="1"/>
        <pt x="294" y="672" on="1"/>
        <pt x="256" y="672" on="1"/>
        <pt x="226" y="672" on="0"/>
        <pt x="208" y="648" on="0"/>
        <pt x="208" y="626" on="1"/>
        <pt x="208" y="74" on="1"/>
        <pt x="208" y="52" on="0"/>
        <pt x="226" y="28" on="0"/>
        <pt x="256" y="28" on="1"/>
        <pt x="294" y="28" on="1"/>
      </contour>
    </TTGlyph>
    <TTGlyph name="J" xMin="12" yMin="-218" xMax="294" yMax="700">
      <contour>
        <pt x="34" y="-218" on="1"/>
        <pt x="12" y="-180" on="1"/>
        <pt x="54" y="-152" on="0"/>
        <pt x="120" y="-70" on="0"/>
        <pt x="120" y="-36" on="1"/>
        <pt x="120" y="626" on="1"/>
        <pt x="120" y="641" on="0"/>
        <pt x="116" y="657" on="0"/>
        <pt x="94" y="670" on="0"/>
        <pt x="72" y="670" on="1"/>
        <pt x="40" y="670" on="1"/>
        <pt x="40" y="700" on="1"/>
        <pt x="294" y="700" on="1"/>
        <pt x="294" y="670" on="1"/>
        <pt x="256" y="670" on="1"/>
        <pt x="234" y="670" on="0"/>
        <pt x="212" y="657" on="0"/>
        <pt x="208" y="641" on="0"/>
        <pt x="208" y="626" on="1"/>
        <pt x="208" y="-6" on="1"/>
        <pt x="208" y="-109" on="0"/>
        <pt x="152" y="-154" on="1"/>
        <pt x="133" y="-169" on="0"/>
        <pt x="103" y="-184" on="0"/>
        <pt x="49" y="-209" on="0"/>
      </contour>
    </TTGlyph>
    <TTGlyph name="Jcircumflex" xMin="4" yMin="-218" xMax="286" yMax="940">
      <contour>
        <pt x="276" y="772" on="1"/>
        <pt x="250" y="760" on="1"/>
        <pt x="162" y="858" on="1"/>
        <pt x="74" y="760" on="1"/>
        <pt x="48" y="772" on="1"/>
        <pt x="134" y="940" on="1"/>
        <pt x="190" y="940" on="1"/>
      </contour>
      <contour>
        <pt x="26" y="-218" on="1"/>
        <pt x="4" y="-180" on="1"/>
        <pt x="46" y="-152" on="0"/>
        <pt x="112" y="-70" on="0"/>
        <pt x="112" y="-36" on="1"/>
        <pt x="112" y="626" on="1"/>
        <pt x="112" y="641" on="0"/>
        <pt x="108" y="657" on="0"/>
        <pt x="86" y="670" on="0"/>
        <pt x="64" y="670" on="1"/>
        <pt x="32" y="670" on="1"/>
        <pt x="32" y="700" on="1"/>
        <pt x="286" y="700" on="1"/>
        <pt x="286" y="670" on="1"/>
        <pt x="248" y="670" on="1"/>
        <pt x="226" y="670" on="0"/>
        <pt x="204" y="657" on="0"/>
        <pt x="200" y="641" on="0"/>
        <pt x="200" y="626" on="1"/>
        <pt x="200" y="-6" on="1"/>
        <pt x="200" y="-109" on="0"/>
        <pt x="144" y="-154" on="1"/>
        <pt x="125" y="-169" on="0"/>
        <pt x="95" y="-184" on="0"/>
        <pt x="41" y="-209" on="0"/>
      </contour>
    </TTGlyph>
    <TTGlyph name="K" xMin="40" yMin="0" xMax="692" yMax="700">
      <contour>
        <pt x="692" y="0" on="1"/>
        <pt x="464" y="0" on="1"/>
        <pt x="464" y="30" on="1"/>
        <pt x="482" y="30" on="1"/>
        <pt x="498" y="30" on="0"/>
        <pt x="498" y="38" on="1"/>
        <pt x="498" y="42" on="0"/>
        <pt x="482" y="66" on="1"/>
        <pt x="278" y="382" on="1"/>
        <pt x="208" y="312" on="1"/>
        <pt x="208" y="74" on="1"/>
        <pt x="208" y="59" on="0"/>
        <pt x="212" y="43" on="0"/>
        <pt x="234" y="30" on="0"/>
        <pt x="256" y="30" on="1"/>
        <pt x="294" y="30" on="1"/>
        <pt x="294" y="0" on="1"/>
        <pt x="40" y="0" on="1"/>
        <pt x="40" y="30" on="1"/>
        <pt x="72" y="30" on="1"/>
        <pt x="94" y="30" on="0"/>
        <pt x="116" y="43" on="0"/>
        <pt x="120" y="59" on="0"/>
        <pt x="120" y="74" on="1"/>
        <pt x="120" y="626" on="1"/>
        <pt x="120" y="641" on="0"/>
        <pt x="116" y="657" on="0"/>
        <pt x="94" y="670" on="0"/>
        <pt x="72" y="670" on="1"/>
        <pt x="40" y="670" on="1"/>
        <pt x="40" y="700" on="1"/>
        <pt x="294" y="700" on="1"/>
        <pt x="294" y="670" on="1"/>
        <pt x="256" y="670" on="1"/>
        <pt x="234" y="670" on="0"/>
        <pt x="212" y="657" on="0"/>
        <pt x="208" y="641" on="0"/>
        <pt x="208" y="626" on="1"/>
        <pt x="208" y="366" on="1"/>
        <pt x="466" y="618" on="1"/>
        <pt x="486" y="636" on="0"/>
        <pt x="486" y="650" on="1"/>
        <pt x="486" y="670" on="0"/>
        <pt x="456" y="670" on="1"/>
        <pt x="438" y="670" on="1"/>
        <pt x="438" y="700" on="1"/>
        <pt x="636" y="700" on="1"/>
        <pt x="636" y="670" on="1"/>
        <pt x="620" y="670" on="1"/>
        <pt x="602" y="670" on="0"/>
        <pt x="534" y="632" on="0"/>
        <pt x="510" y="608" on="1"/>
        <pt x="340" y="440" on="1"/>
        <pt x="566" y="100" on="1"/>
        <pt x="578" y="84" on="0"/>
        <pt x="588" y="68" on="1"/>
        <pt x="618" y="30" on="0"/>
        <pt x="668" y="30" on="1"/>
        <pt x="692" y="30" on="1"/>
      </contour>
    </TTGlyph>
    <TTGlyph name="L" xMin="40" yMin="0" xMax="610" yMax="700">
      <contour>
        <pt x="576" y="0" on="1"/>
        <pt x="40" y="0" on="1"/>
        <pt x="40" y="30" on="1"/>
        <pt x="74" y="30" on="1"/>
        <pt x="104" y="30" on="0"/>
        <pt x="122" y="52" on="0"/>
        <pt x="122" y="74" on="1"/>
        <pt x="122" y="626" on="1"/>
        <pt x="122" y="648" on="0"/>
        <pt x="104" y="670" on="0"/>
        <pt x="74" y="670" on="1"/>
        <pt x="40" y="670" on="1"/>
        <pt x="40" y="700" on="1"/>
        <pt x="294" y="700" on="1"/>
        <pt x="294" y="670" on="1"/>
        <pt x="256" y="670" on="1"/>
        <pt x="226" y="670" on="0"/>
        <pt x="208" y="648" on="0"/>
        <pt x="208" y="626" on="1"/>
        <pt x="208" y="88" on="1"/>
        <pt x="208" y="66" on="0"/>
        <pt x="226" y="42" on="0"/>
        <pt x="256" y="42" on="1"/>
        <pt x="446" y="42" on="1"/>
        <pt x="499" y="42" on="0"/>
        <pt x="580" y="111" on="0"/>
        <pt x="580" y="144" on="1"/>
        <pt x="610" y="138" on="1"/>
      </contour>
    </TTGlyph>
    <TTGlyph name="Ldotaccent" xMin="40" yMin="0" xMax="610" yMax="700">
      <contour>
        <pt x="576" y="0" on="1"/>
        <pt x="40" y="0" on="1"/>
        <pt x="40" y="30" on="1"/>
        <pt x="74" y="30" on="1"/>
        <pt x="104" y="30" on="0"/>
        <pt x="122" y="52" on="0"/>
        <pt x="122" y="74" on="1"/>
        <pt x="122" y="626" on="1"/>
        <pt x="122" y="648" on="0"/>
        <pt x="104" y="670" on="0"/>
        <pt x="74" y="670" on="1"/>
        <pt x="40" y="670" on="1"/>
        <pt x="40" y="700" on="1"/>
        <pt x="294" y="700" on="1"/>
        <pt x="294" y="670" on="1"/>
        <pt x="256" y="670" on="1"/>
        <pt x="226" y="670" on="0"/>
        <pt x="208" y="648" on="0"/>
        <pt x="208" y="626" on="1"/>
        <pt x="208" y="88" on="1"/>
        <pt x="208" y="66" on="0"/>
        <pt x="226" y="42" on="0"/>
        <pt x="256" y="42" on="1"/>
        <pt x="446" y="42" on="1"/>
        <pt x="499" y="42" on="0"/>
        <pt x="580" y="111" on="0"/>
        <pt x="580" y="144" on="1"/>
        <pt x="610" y="138" on="1"/>
      </contour>
      <contour>
        <pt x="418" y="389" on="0"/>
        <pt x="380" y="358" on="0"/>
        <pt x="334" y="358" on="0"/>
        <pt x="310" y="389" on="0"/>
        <pt x="310" y="433" on="0"/>
        <pt x="347" y="466" on="0"/>
        <pt x="391" y="466" on="0"/>
        <pt x="418" y="436" on="0"/>
      </contour>
    </TTGlyph>
    <TTGlyph name="Lslash" xMin="40" yMin="0" xMax="610" yMax="700">
      <contour>
        <pt x="576" y="0" on="1"/>
        <pt x="40" y="0" on="1"/>
        <pt x="40" y="30" on="1"/>
        <pt x="74" y="30" on="1"/>
        <pt x="104" y="30" on="0"/>
        <pt x="122" y="52" on="0"/>
        <pt x="122" y="74" on="1"/>
        <pt x="122" y="270" on="1"/>
        <pt x="48" y="196" on="1"/>
        <pt x="48" y="248" on="1"/>
        <pt x="122" y="322" on="1"/>
        <pt x="122" y="626" on="1"/>
        <pt x="122" y="648" on="0"/>
        <pt x="104" y="670" on="0"/>
        <pt x="74" y="670" on="1"/>
        <pt x="40" y="670" on="1"/>
        <pt x="40" y="700" on="1"/>
        <pt x="294" y="700" on="1"/>
        <pt x="294" y="670" on="1"/>
        <pt x="256" y="670" on="1"/>
        <pt x="226" y="670" on="0"/>
        <pt x="208" y="648" on="0"/>
        <pt x="208" y="626" on="1"/>
        <pt x="208" y="408" on="1"/>
        <pt x="328" y="528" on="1"/>
        <pt x="328" y="478" on="1"/>
        <pt x="208" y="358" on="1"/>
        <pt x="208" y="88" on="1"/>
        <pt x="208" y="66" on="0"/>
        <pt x="226" y="42" on="0"/>
        <pt x="256" y="42" on="1"/>
        <pt x="446" y="42" on="1"/>
        <pt x="499" y="42" on="0"/>
        <pt x="580" y="111" on="0"/>
        <pt x="580" y="144" on="1"/>
        <pt x="610" y="138" on="1"/>
      </contour>
    </TTGlyph>
    <TTGlyph name="M" xMin="18" yMin="-10" xMax="910" yMax="700">
      <contour>
        <pt x="468" y="10" on="1"/>
        <pt x="467" y="10" on="0"/>
        <pt x="459" y="10" on="0"/>
        <pt x="432" y="-10" on="1"/>
        <pt x="202" y="592" on="1"/>
        <pt x="154" y="68" on="1"/>
        <pt x="152" y="52" on="0"/>
        <pt x="186" y="30" on="0"/>
        <pt x="216" y="30" on="1"/>
        <pt x="258" y="30" on="1"/>
        <pt x="258" y="0" on="1"/>
        <pt x="18" y="0" on="1"/>
        <pt x="18" y="30" on="1"/>
        <pt x="50" y="30" on="1"/>
        <pt x="108" y="30" on="0"/>
        <pt x="112" y="74" on="1"/>
        <pt x="162" y="626" on="1"/>
        <pt x="164" y="645" on="0"/>
        <pt x="133" y="670" on="0"/>
        <pt x="100" y="670" on="1"/>
        <pt x="68" y="670" on="1"/>
        <pt x="68" y="700" on="1"/>
        <pt x="256" y="700" on="1"/>
        <pt x="470" y="136" on="1"/>
        <pt x="686" y="700" on="1"/>
        <pt x="866" y="700" on="1"/>
        <pt x="866" y="672" on="1"/>
        <pt x="826" y="672" on="1"/>
        <pt x="778" y="672" on="0"/>
        <pt x="778" y="635" on="1"/>
        <pt x="778" y="632" on="0"/>
        <pt x="778" y="628" on="1"/>
        <pt x="824" y="74" on="1"/>
        <pt x="826" y="51" on="0"/>
        <pt x="845" y="30" on="0"/>
        <pt x="870" y="30" on="1"/>
        <pt x="910" y="30" on="1"/>
        <pt x="910" y="0" on="1"/>
        <pt x="654" y="0" on="1"/>
        <pt x="654" y="30" on="1"/>
        <pt x="688" y="30" on="1"/>
        <pt x="716" y="30" on="0"/>
        <pt x="736" y="48" on="0"/>
        <pt x="736" y="69" on="0"/>
        <pt x="736" y="74" on="1"/>
        <pt x="692" y="598" on="1"/>
      </contour>
    </TTGlyph>
    <TTGlyph name="N" xMin="40" yMin="-16" xMax="756" yMax="700">
      <contour>
        <pt x="622" y="-16" on="1"/>
        <pt x="180" y="576" on="1"/>
        <pt x="180" y="74" on="1"/>
        <pt x="180" y="30" on="0"/>
        <pt x="242" y="30" on="1"/>
        <pt x="280" y="30" on="1"/>
        <pt x="280" y="0" on="1"/>
        <pt x="40" y="0" on="1"/>
        <pt x="40" y="30" on="1"/>
        <pt x="72" y="30" on="1"/>
        <pt x="134" y="30" on="0"/>
        <pt x="134" y="74" on="1"/>
        <pt x="134" y="626" on="1"/>
        <pt x="134" y="670" on="0"/>
        <pt x="72" y="670" on="1"/>
        <pt x="40" y="670" on="1"/>
        <pt x="40" y="700" on="1"/>
        <pt x="198" y="700" on="1"/>
        <pt x="610" y="146" on="1"/>
        <pt x="610" y="626" on="1"/>
        <pt x="610" y="670" on="0"/>
        <pt x="550" y="670" on="1"/>
        <pt x="516" y="670" on="1"/>
        <pt x="516" y="700" on="1"/>
        <pt x="756" y="700" on="1"/>
        <pt x="756" y="670" on="1"/>
        <pt x="718" y="670" on="1"/>
        <pt x="656" y="670" on="0"/>
        <pt x="656" y="626" on="1"/>
        <pt x="656" y="4" on="1"/>
        <pt x="645" y="4" on="0"/>
        <pt x="620" y="-15" on="0"/>
      </contour>
    </TTGlyph>
    <TTGlyph name="Nacute" xMin="40" yMin="-16" xMax="756" yMax="900">
      <contour>
        <pt x="622" y="-16" on="1"/>
        <pt x="180" y="576" on="1"/>
        <pt x="180" y="74" on="1"/>
        <pt x="180" y="30" on="0"/>
        <pt x="242" y="30" on="1"/>
        <pt x="280" y="30" on="1"/>
        <pt x="280" y="0" on="1"/>
        <pt x="40" y="0" on="1"/>
        <pt x="40" y="30" on="1"/>
        <pt x="72" y="30" on="1"/>
        <pt x="134" y="30" on="0"/>
        <pt x="134" y="74" on="1"/>
        <pt x="134" y="626" on="1"/>
        <pt x="134" y="670" on="0"/>
        <pt x="72" y="670" on="1"/>
        <pt x="40" y="670" on="1"/>
        <pt x="40" y="700" on="1"/>
        <pt x="198" y="700" on="1"/>
        <pt x="610" y="146" on="1"/>
        <pt x="610" y="626" on="1"/>
        <pt x="610" y="670" on="0"/>
        <pt x="550" y="670" on="1"/>
        <pt x="516" y="670" on="1"/>
        <pt x="516" y="700" on="1"/>
        <pt x="756" y="700" on="1"/>
        <pt x="756" y="670" on="1"/>
        <pt x="718" y="670" on="1"/>
        <pt x="656" y="670" on="0"/>
        <pt x="656" y="626" on="1"/>
        <pt x="656" y="4" on="1"/>
        <pt x="645" y="4" on="0"/>
        <pt x="620" y="-15" on="0"/>
      </contour>
      <contour>
        <pt x="515" y="842" on="1"/>
        <pt x="336" y="760" on="1"/>
        <pt x="317" y="782" on="1"/>
        <pt x="463" y="900" on="1"/>
      </contour>
    </TTGlyph>
    <TTGlyph name="Ntilde" xMin="40" yMin="-16" xMax="756" yMax="866">
      <contour>
        <pt x="622" y="-16" on="1"/>
        <pt x="180" y="576" on="1"/>
        <pt x="180" y="74" on="1"/>
        <pt x="180" y="30" on="0"/>
        <pt x="242" y="30" on="1"/>
        <pt x="280" y="30" on="1"/>
        <pt x="280" y="0" on="1"/>
        <pt x="40" y="0" on="1"/>
        <pt x="40" y="30" on="1"/>
        <pt x="72" y="30" on="1"/>
        <pt x="134" y="30" on="0"/>
        <pt x="134" y="74" on="1"/>
        <pt x="134" y="626" on="1"/>
        <pt x="134" y="670" on="0"/>
        <pt x="72" y="670" on="1"/>
        <pt x="40" y="670" on="1"/>
        <pt x="40" y="700" on="1"/>
        <pt x="198" y="700" on="1"/>
        <pt x="610" y="146" on="1"/>
        <pt x="610" y="626" on="1"/>
        <pt x="610" y="670" on="0"/>
        <pt x="550" y="670" on="1"/>
        <pt x="516" y="670" on="1"/>
        <pt x="516" y="700" on="1"/>
        <pt x="756" y="700" on="1"/>
        <pt x="756" y="670" on="1"/>
        <pt x="718" y="670" on="1"/>
        <pt x="656" y="670" on="0"/>
        <pt x="656" y="626" on="1"/>
        <pt x="656" y="4" on="1"/>
        <pt x="644" y="4" on="0"/>
        <pt x="621" y="-14" on="0"/>
      </contour>
      <contour>
        <pt x="542" y="846" on="1"/>
        <pt x="556" y="832" on="1"/>
        <pt x="485" y="752" on="0"/>
        <pt x="426" y="752" on="1"/>
        <pt x="401" y="752" on="0"/>
        <pt x="370" y="792" on="1"/>
        <pt x="351" y="816" on="0"/>
        <pt x="298" y="816" on="0"/>
        <pt x="254" y="772" on="1"/>
        <pt x="240" y="786" on="1"/>
        <pt x="311" y="866" on="0"/>
        <pt x="370" y="866" on="1"/>
        <pt x="388" y="866" on="0"/>
        <pt x="426" y="828" on="1"/>
        <pt x="449" y="802" on="0"/>
        <pt x="498" y="802" on="0"/>
      </contour>
    </TTGlyph>
    <TTGlyph name="O" xMin="36" yMin="-20" xMax="728" yMax="718">
      <contour>
        <pt x="342" y="-20" on="1"/>
        <pt x="211" y="-20" on="0"/>
        <pt x="36" y="182" on="0"/>
        <pt x="36" y="314" on="1"/>
        <pt x="36" y="396" on="0"/>
        <pt x="108" y="548" on="0"/>
        <pt x="221" y="654" on="0"/>
        <pt x="358" y="718" on="0"/>
        <pt x="422" y="718" on="1"/>
        <pt x="552" y="718" on="0"/>
        <pt x="728" y="516" on="0"/>
        <pt x="728" y="384" on="1"/>
        <pt x="728" y="286" on="0"/>
        <pt x="622" y="99" on="0"/>
        <pt x="441" y="-20" on="0"/>
      </contour>
      <contour>
        <pt x="404" y="56" on="1"/>
        <pt x="513" y="56" on="0"/>
        <pt x="662" y="216" on="0"/>
        <pt x="662" y="452" on="0"/>
        <pt x="489" y="640" on="0"/>
        <pt x="366" y="640" on="1"/>
        <pt x="261" y="640" on="0"/>
        <pt x="102" y="489" on="0"/>
        <pt x="102" y="384" on="1"/>
        <pt x="102" y="248" on="0"/>
        <pt x="269" y="56" on="0"/>
      </contour>
    </TTGlyph>
    <TTGlyph name="OE" xMin="36" yMin="-14" xMax="1010" yMax="712">
      <contour>
        <pt x="976" y="0" on="1"/>
        <pt x="514" y="-2" on="1"/>
        <pt x="466" y="-14" on="0"/>
        <pt x="338" y="-14" on="1"/>
        <pt x="268" y="-14" on="0"/>
        <pt x="130" y="67" on="0"/>
        <pt x="36" y="219" on="0"/>
        <pt x="36" y="418" on="0"/>
        <pt x="152" y="606" on="0"/>
        <pt x="330" y="712" on="0"/>
        <pt x="422" y="712" on="1"/>
        <pt x="491" y="712" on="0"/>
        <pt x="542" y="700" on="1"/>
        <pt x="968" y="700" on="1"/>
        <pt x="976" y="562" on="1"/>
        <pt x="948" y="556" on="1"/>
        <pt x="948" y="592" on="0"/>
        <pt x="890" y="658" on="0"/>
        <pt x="838" y="658" on="1"/>
        <pt x="656" y="658" on="1"/>
        <pt x="626" y="658" on="0"/>
        <pt x="608" y="635" on="0"/>
        <pt x="608" y="614" on="1"/>
        <pt x="608" y="386" on="1"/>
        <pt x="808" y="386" on="1"/>
        <pt x="823" y="386" on="0"/>
        <pt x="839" y="389" on="0"/>
        <pt x="852" y="407" on="0"/>
        <pt x="852" y="424" on="1"/>
        <pt x="852" y="470" on="1"/>
        <pt x="882" y="470" on="1"/>
        <pt x="882" y="262" on="1"/>
        <pt x="852" y="262" on="1"/>
        <pt x="852" y="304" on="1"/>
        <pt x="852" y="329" on="0"/>
        <pt x="830" y="344" on="0"/>
        <pt x="808" y="344" on="1"/>
        <pt x="608" y="344" on="1"/>
        <pt x="608" y="86" on="1"/>
        <pt x="608" y="65" on="0"/>
        <pt x="626" y="42" on="0"/>
        <pt x="656" y="42" on="1"/>
        <pt x="846" y="42" on="1"/>
        <pt x="899" y="42" on="0"/>
        <pt x="980" y="110" on="0"/>
        <pt x="982" y="142" on="1"/>
        <pt x="1010" y="138" on="1"/>
      </contour>
      <contour>
        <pt x="524" y="70" on="1"/>
        <pt x="522" y="632" on="1"/>
        <pt x="459" y="642" on="0"/>
        <pt x="372" y="642" on="1"/>
        <pt x="267" y="642" on="0"/>
        <pt x="104" y="489" on="0"/>
        <pt x="104" y="384" on="1"/>
        <pt x="104" y="297" on="0"/>
        <pt x="171" y="150" on="0"/>
        <pt x="306" y="56" on="0"/>
        <pt x="482" y="56" on="0"/>
      </contour>
    </TTGlyph>
    <TTGlyph name="Oacute" xMin="36" yMin="-20" xMax="728" yMax="900">
      <contour>
        <pt x="342" y="-20" on="1"/>
        <pt x="211" y="-20" on="0"/>
        <pt x="36" y="182" on="0"/>
        <pt x="36" y="314" on="1"/>
        <pt x="36" y="396" on="0"/>
        <pt x="108" y="548" on="0"/>
        <pt x="221" y="654" on="0"/>
        <pt x="358" y="718" on="0"/>
        <pt x="422" y="718" on="1"/>
        <pt x="552" y="718" on="0"/>
        <pt x="728" y="516" on="0"/>
        <pt x="728" y="384" on="1"/>
        <pt x="728" y="286" on="0"/>
        <pt x="622" y="99" on="0"/>
        <pt x="441" y="-20" on="0"/>
      </contour>
      <contour>
        <pt x="404" y="56" on="1"/>
        <pt x="513" y="56" on="0"/>
        <pt x="662" y="216" on="0"/>
        <pt x="662" y="452" on="0"/>
        <pt x="489" y="640" on="0"/>
        <pt x="366" y="640" on="1"/>
        <pt x="261" y="640" on="0"/>
        <pt x="102" y="489" on="0"/>
        <pt x="102" y="384" on="1"/>
        <pt x="102" y="248" on="0"/>
        <pt x="269" y="56" on="0"/>
      </contour>
      <contour>
        <pt x="497" y="842" on="1"/>
        <pt x="318" y="760" on="1"/>
        <pt x="299" y="782" on="1"/>
        <pt x="445" y="900" on="1"/>
      </contour>
    </TTGlyph>
    <TTGlyph name="Ocircumflex" xMin="36" yMin="-20" xMax="728" yMax="940">
      <contour>
        <pt x="496" y="772" on="1"/>
        <pt x="470" y="760" on="1"/>
        <pt x="382" y="858" on="1"/>
        <pt x="294" y="760" on="1"/>
        <pt x="268" y="772" on="1"/>
        <pt x="354" y="940" on="1"/>
        <pt x="410" y="940" on="1"/>
      </contour>
      <contour>
        <pt x="342" y="-20" on="1"/>
        <pt x="211" y="-20" on="0"/>
        <pt x="36" y="182" on="0"/>
        <pt x="36" y="314" on="1"/>
        <pt x="36" y="396" on="0"/>
        <pt x="108" y="548" on="0"/>
        <pt x="221" y="654" on="0"/>
        <pt x="358" y="718" on="0"/>
        <pt x="422" y="718" on="1"/>
        <pt x="552" y="718" on="0"/>
        <pt x="728" y="516" on="0"/>
        <pt x="728" y="384" on="1"/>
        <pt x="728" y="286" on="0"/>
        <pt x="622" y="99" on="0"/>
        <pt x="441" y="-20" on="0"/>
      </contour>
      <contour>
        <pt x="404" y="56" on="1"/>
        <pt x="513" y="56" on="0"/>
        <pt x="662" y="216" on="0"/>
        <pt x="662" y="452" on="0"/>
        <pt x="489" y="640" on="0"/>
        <pt x="366" y="640" on="1"/>
        <pt x="261" y="640" on="0"/>
        <pt x="102" y="489" on="0"/>
        <pt x="102" y="384" on="1"/>
        <pt x="102" y="248" on="0"/>
        <pt x="269" y="56" on="0"/>
      </contour>
    </TTGlyph>
    <TTGlyph name="Odieresis" xMin="36" yMin="-20" xMax="728" yMax="930">
      <contour>
        <pt x="309" y="930" on="0"/>
        <pt x="334" y="900" on="0"/>
        <pt x="334" y="853" on="0"/>
        <pt x="296" y="822" on="0"/>
        <pt x="251" y="822" on="0"/>
        <pt x="226" y="852" on="0"/>
        <pt x="226" y="897" on="0"/>
        <pt x="264" y="930" on="0"/>
      </contour>
      <contour>
        <pt x="511" y="930" on="0"/>
        <pt x="538" y="900" on="0"/>
        <pt x="538" y="853" on="0"/>
        <pt x="500" y="822" on="0"/>
        <pt x="454" y="822" on="0"/>
        <pt x="430" y="853" on="0"/>
        <pt x="430" y="897" on="0"/>
        <pt x="467" y="930" on="0"/>
      </contour>
      <contour>
        <pt x="342" y="-20" on="1"/>
        <pt x="211" y="-20" on="0"/>
        <pt x="36" y="182" on="0"/>
        <pt x="36" y="314" on="1"/>
        <pt x="36" y="396" on="0"/>
        <pt x="108" y="548" on="0"/>
        <pt x="221" y="654" on="0"/>
        <pt x="358" y="718" on="0"/>
        <pt x="422" y="718" on="1"/>
        <pt x="552" y="718" on="0"/>
        <pt x="728" y="516" on="0"/>
        <pt x="728" y="384" on="1"/>
        <pt x="728" y="286" on="0"/>
        <pt x="622" y="99" on="0"/>
        <pt x="441" y="-20" on="0"/>
      </contour>
      <contour>
        <pt x="404" y="56" on="1"/>
        <pt x="513" y="56" on="0"/>
        <pt x="662" y="216" on="0"/>
        <pt x="662" y="452" on="0"/>
        <pt x="489" y="640" on="0"/>
        <pt x="366" y="640" on="1"/>
        <pt x="261" y="640" on="0"/>
        <pt x="102" y="489" on="0"/>
        <pt x="102" y="384" on="1"/>
        <pt x="102" y="248" on="0"/>
        <pt x="269" y="56" on="0"/>
      </contour>
    </TTGlyph>
    <TTGlyph name="Ograve" xMin="36" yMin="-20" xMax="728" yMax="900">
      <contour>
        <pt x="342" y="-20" on="1"/>
        <pt x="211" y="-20" on="0"/>
        <pt x="36" y="182" on="0"/>
        <pt x="36" y="314" on="1"/>
        <pt x="36" y="396" on="0"/>
        <pt x="108" y="548" on="0"/>
        <pt x="221" y="654" on="0"/>
        <pt x="358" y="718" on="0"/>
        <pt x="422" y="718" on="1"/>
        <pt x="552" y="718" on="0"/>
        <pt x="728" y="516" on="0"/>
        <pt x="728" y="384" on="1"/>
        <pt x="728" y="286" on="0"/>
        <pt x="622" y="99" on="0"/>
        <pt x="441" y="-20" on="0"/>
      </contour>
      <contour>
        <pt x="404" y="56" on="1"/>
        <pt x="513" y="56" on="0"/>
        <pt x="662" y="216" on="0"/>
        <pt x="662" y="452" on="0"/>
        <pt x="489" y="640" on="0"/>
        <pt x="366" y="640" on="1"/>
        <pt x="261" y="640" on="0"/>
        <pt x="102" y="489" on="0"/>
        <pt x="102" y="384" on="1"/>
        <pt x="102" y="248" on="0"/>
        <pt x="269" y="56" on="0"/>
      </contour>
      <contour>
        <pt x="444" y="760" on="1"/>
        <pt x="265" y="842" on="1"/>
        <pt x="317" y="900" on="1"/>
        <pt x="463" y="782" on="1"/>
      </contour>
    </TTGlyph>
    <TTGlyph name="Oslash" xMin="36" yMin="-64" xMax="728" yMax="766">
      <contour>
        <pt x="130" y="-64" on="1"/>
        <pt x="102" y="-44" on="1"/>
        <pt x="158" y="48" on="1"/>
        <pt x="101" y="95" on="0"/>
        <pt x="36" y="236" on="0"/>
        <pt x="36" y="396" on="0"/>
        <pt x="108" y="548" on="0"/>
        <pt x="221" y="654" on="0"/>
        <pt x="358" y="718" on="0"/>
        <pt x="494" y="718" on="0"/>
        <pt x="556" y="684" on="1"/>
        <pt x="606" y="766" on="1"/>
        <pt x="636" y="746" on="1"/>
        <pt x="586" y="666" on="1"/>
        <pt x="652" y="620" on="0"/>
        <pt x="728" y="467" on="0"/>
        <pt x="728" y="286" on="0"/>
        <pt x="622" y="99" on="0"/>
        <pt x="441" y="-20" on="0"/>
        <pt x="258" y="-20" on="0"/>
        <pt x="186" y="26" on="1"/>
      </contour>
      <contour>
        <pt x="534" y="582" on="1"/>
        <pt x="236" y="106" on="1"/>
        <pt x="308" y="56" on="0"/>
        <pt x="513" y="56" on="0"/>
        <pt x="662" y="216" on="0"/>
        <pt x="662" y="326" on="1"/>
        <pt x="662" y="402" on="0"/>
        <pt x="593" y="538" on="0"/>
      </contour>
      <contour>
        <pt x="208" y="128" on="1"/>
        <pt x="504" y="602" on="1"/>
        <pt x="438" y="640" on="0"/>
        <pt x="366" y="640" on="1"/>
        <pt x="261" y="640" on="0"/>
        <pt x="102" y="489" on="0"/>
        <pt x="102" y="384" on="1"/>
        <pt x="102" y="309" on="0"/>
        <pt x="157" y="174" on="0"/>
      </contour>
    </TTGlyph>
    <TTGlyph name="Otilde" xMin="36" yMin="-20" xMax="728" yMax="916">
      <contour>
        <pt x="524" y="896" on="1"/>
        <pt x="538" y="880" on="1"/>
        <pt x="470" y="802" on="0"/>
        <pt x="408" y="802" on="1"/>
        <pt x="391" y="802" on="0"/>
        <pt x="327" y="866" on="0"/>
        <pt x="282" y="866" on="0"/>
        <pt x="238" y="822" on="1"/>
        <pt x="224" y="836" on="1"/>
        <pt x="299" y="916" on="0"/>
        <pt x="354" y="916" on="1"/>
        <pt x="373" y="916" on="0"/>
        <pt x="438" y="850" on="0"/>
        <pt x="486" y="850" on="0"/>
      </contour>
      <contour>
        <pt x="342" y="-20" on="1"/>
        <pt x="211" y="-20" on="0"/>
        <pt x="36" y="182" on="0"/>
        <pt x="36" y="314" on="1"/>
        <pt x="36" y="396" on="0"/>
        <pt x="108" y="548" on="0"/>
        <pt x="221" y="654" on="0"/>
        <pt x="358" y="718" on="0"/>
        <pt x="422" y="718" on="1"/>
        <pt x="552" y="718" on="0"/>
        <pt x="728" y="516" on="0"/>
        <pt x="728" y="384" on="1"/>
        <pt x="728" y="286" on="0"/>
        <pt x="622" y="99" on="0"/>
        <pt x="441" y="-20" on="0"/>
      </contour>
      <contour>
        <pt x="404" y="56" on="1"/>
        <pt x="513" y="56" on="0"/>
        <pt x="662" y="216" on="0"/>
        <pt x="662" y="452" on="0"/>
        <pt x="489" y="640" on="0"/>
        <pt x="366" y="640" on="1"/>
        <pt x="261" y="640" on="0"/>
        <pt x="102" y="489" on="0"/>
        <pt x="102" y="384" on="1"/>
        <pt x="102" y="248" on="0"/>
        <pt x="269" y="56" on="0"/>
      </contour>
    </TTGlyph>
    <TTGlyph name="P" xMin="40" yMin="0" xMax="584" yMax="710">
      <contour>
        <pt x="234" y="354" on="1"/>
        <pt x="282" y="352" on="1"/>
        <pt x="357" y="352" on="0"/>
        <pt x="420" y="376" on="1"/>
        <pt x="457" y="390" on="0"/>
        <pt x="502" y="450" on="0"/>
        <pt x="502" y="494" on="1"/>
        <pt x="502" y="652" on="0"/>
        <pt x="312" y="652" on="1"/>
        <pt x="208" y="648" on="1"/>
        <pt x="208" y="72" on="1"/>
        <pt x="208" y="58" on="0"/>
        <pt x="212" y="42" on="0"/>
        <pt x="234" y="28" on="0"/>
        <pt x="256" y="28" on="1"/>
        <pt x="294" y="28" on="1"/>
        <pt x="294" y="0" on="1"/>
        <pt x="40" y="0" on="1"/>
        <pt x="40" y="28" on="1"/>
        <pt x="72" y="28" on="1"/>
        <pt x="94" y="28" on="0"/>
        <pt x="116" y="42" on="0"/>
        <pt x="120" y="58" on="0"/>
        <pt x="120" y="72" on="1"/>
        <pt x="120" y="626" on="1"/>
        <pt x="120" y="649" on="0"/>
        <pt x="101" y="670" on="0"/>
        <pt x="72" y="670" on="1"/>
        <pt x="40" y="670" on="1"/>
        <pt x="40" y="700" on="1"/>
        <pt x="194" y="700" on="1"/>
        <pt x="384" y="710" on="1"/>
        <pt x="474" y="710" on="0"/>
        <pt x="584" y="632" on="0"/>
        <pt x="584" y="491" on="0"/>
        <pt x="519" y="386" on="0"/>
        <pt x="471" y="360" on="1"/>
        <pt x="380" y="312" on="0"/>
        <pt x="308" y="312" on="1"/>
        <pt x="266" y="312" on="0"/>
        <pt x="242" y="314" on="1"/>
      </contour>
    </TTGlyph>
    <TTGlyph name="Q" xMin="34" yMin="-204" xMax="1058" yMax="718">
      <contour>
        <pt x="1058" y="-174" on="1"/>
        <pt x="1048" y="-202" on="1"/>
        <pt x="1034" y="-204" on="0"/>
        <pt x="948" y="-204" on="0"/>
        <pt x="808" y="-187" on="0"/>
        <pt x="638" y="-149" on="0"/>
        <pt x="463" y="-69" on="0"/>
        <pt x="394" y="-14" on="1"/>
        <pt x="370" y="-20" on="0"/>
        <pt x="342" y="-20" on="1"/>
        <pt x="211" y="-20" on="0"/>
        <pt x="34" y="183" on="0"/>
        <pt x="34" y="316" on="1"/>
        <pt x="34" y="421" on="0"/>
        <pt x="156" y="611" on="0"/>
        <pt x="334" y="718" on="0"/>
        <pt x="420" y="718" on="1"/>
        <pt x="551" y="718" on="0"/>
        <pt x="728" y="514" on="0"/>
        <pt x="728" y="382" on="1"/>
        <pt x="728" y="274" on="0"/>
        <pt x="606" y="86" on="0"/>
        <pt x="504" y="26" on="1"/>
        <pt x="585" y="-50" on="0"/>
        <pt x="905" y="-174" on="0"/>
      </contour>
      <contour>
        <pt x="404" y="56" on="1"/>
        <pt x="510" y="56" on="0"/>
        <pt x="662" y="222" on="0"/>
        <pt x="662" y="328" on="1"/>
        <pt x="662" y="452" on="0"/>
        <pt x="487" y="638" on="0"/>
        <pt x="366" y="638" on="1"/>
        <pt x="262" y="638" on="0"/>
        <pt x="102" y="489" on="0"/>
        <pt x="102" y="386" on="1"/>
        <pt x="102" y="305" on="0"/>
        <pt x="174" y="156" on="0"/>
        <pt x="316" y="56" on="0"/>
      </contour>
    </TTGlyph>
    <TTGlyph name="R" xMin="40" yMin="0" xMax="688" yMax="710">
      <contour>
        <pt x="194" y="700" on="1"/>
        <pt x="384" y="710" on="1"/>
        <pt x="472" y="710" on="0"/>
        <pt x="584" y="636" on="0"/>
        <pt x="584" y="572" on="1"/>
        <pt x="584" y="483" on="0"/>
        <pt x="488" y="371" on="0"/>
        <pt x="418" y="342" on="1"/>
        <pt x="580" y="98" on="1"/>
        <pt x="590" y="82" on="0"/>
        <pt x="647" y="28" on="0"/>
        <pt x="670" y="28" on="1"/>
        <pt x="688" y="28" on="1"/>
        <pt x="688" y="0" on="1"/>
        <pt x="540" y="0" on="1"/>
        <pt x="543" y="0" on="0"/>
        <pt x="499" y="60" on="0"/>
        <pt x="496" y="66" on="1"/>
        <pt x="330" y="322" on="1"/>
        <pt x="320" y="320" on="0"/>
        <pt x="260" y="320" on="0"/>
        <pt x="242" y="322" on="1"/>
        <pt x="234" y="362" on="1"/>
        <pt x="248" y="360" on="0"/>
        <pt x="340" y="360" on="0"/>
        <pt x="432" y="384" on="0"/>
        <pt x="502" y="451" on="0"/>
        <pt x="502" y="504" on="1"/>
        <pt x="502" y="652" on="0"/>
        <pt x="312" y="652" on="1"/>
        <pt x="208" y="648" on="1"/>
        <pt x="208" y="74" on="1"/>
        <pt x="208" y="59" on="0"/>
        <pt x="212" y="43" on="0"/>
        <pt x="234" y="28" on="0"/>
        <pt x="256" y="28" on="1"/>
        <pt x="294" y="28" on="1"/>
        <pt x="294" y="0" on="1"/>
        <pt x="40" y="0" on="1"/>
        <pt x="40" y="28" on="1"/>
        <pt x="72" y="28" on="1"/>
        <pt x="94" y="28" on="0"/>
        <pt x="116" y="43" on="0"/>
        <pt x="120" y="59" on="0"/>
        <pt x="120" y="74" on="1"/>
        <pt x="120" y="626" on="1"/>
        <pt x="120" y="649" on="0"/>
        <pt x="101" y="670" on="0"/>
        <pt x="72" y="670" on="1"/>
        <pt x="40" y="670" on="1"/>
        <pt x="40" y="700" on="1"/>
      </contour>
    </TTGlyph>
    <TTGlyph name="Racute" xMin="40" yMin="0" xMax="688" yMax="900">
      <contour>
        <pt x="194" y="700" on="1"/>
        <pt x="384" y="710" on="1"/>
        <pt x="472" y="710" on="0"/>
        <pt x="584" y="636" on="0"/>
        <pt x="584" y="572" on="1"/>
        <pt x="584" y="483" on="0"/>
        <pt x="488" y="371" on="0"/>
        <pt x="418" y="342" on="1"/>
        <pt x="580" y="98" on="1"/>
        <pt x="590" y="82" on="0"/>
        <pt x="647" y="28" on="0"/>
        <pt x="670" y="28" on="1"/>
        <pt x="688" y="28" on="1"/>
        <pt x="688" y="0" on="1"/>
        <pt x="540" y="0" on="1"/>
        <pt x="330" y="322" on="1"/>
        <pt x="320" y="320" on="0"/>
        <pt x="260" y="320" on="0"/>
        <pt x="242" y="322" on="1"/>
        <pt x="234" y="362" on="1"/>
        <pt x="248" y="360" on="0"/>
        <pt x="340" y="360" on="0"/>
        <pt x="432" y="384" on="0"/>
        <pt x="502" y="451" on="0"/>
        <pt x="502" y="504" on="1"/>
        <pt x="502" y="652" on="0"/>
        <pt x="312" y="652" on="1"/>
        <pt x="208" y="648" on="1"/>
        <pt x="208" y="74" on="1"/>
        <pt x="208" y="59" on="0"/>
        <pt x="212" y="43" on="0"/>
        <pt x="234" y="28" on="0"/>
        <pt x="256" y="28" on="1"/>
        <pt x="294" y="28" on="1"/>
        <pt x="294" y="0" on="1"/>
        <pt x="40" y="0" on="1"/>
        <pt x="40" y="28" on="1"/>
        <pt x="72" y="28" on="1"/>
        <pt x="94" y="28" on="0"/>
        <pt x="116" y="43" on="0"/>
        <pt x="120" y="59" on="0"/>
        <pt x="120" y="74" on="1"/>
        <pt x="120" y="626" on="1"/>
        <pt x="120" y="649" on="0"/>
        <pt x="101" y="670" on="0"/>
        <pt x="72" y="670" on="1"/>
        <pt x="40" y="670" on="1"/>
        <pt x="40" y="700" on="1"/>
      </contour>
      <contour>
        <pt x="468" y="842" on="1"/>
        <pt x="289" y="760" on="1"/>
        <pt x="270" y="782" on="1"/>
        <pt x="416" y="900" on="1"/>
      </contour>
    </TTGlyph>
    <TTGlyph name="Rcaron" xMin="40" yMin="0" xMax="688" yMax="940">
      <contour>
        <pt x="466" y="926" on="1"/>
        <pt x="380" y="760" on="1"/>
        <pt x="324" y="760" on="1"/>
        <pt x="238" y="926" on="1"/>
        <pt x="264" y="940" on="1"/>
        <pt x="352" y="840" on="1"/>
        <pt x="440" y="940" on="1"/>
      </contour>
      <contour>
        <pt x="194" y="700" on="1"/>
        <pt x="384" y="710" on="1"/>
        <pt x="472" y="710" on="0"/>
        <pt x="584" y="636" on="0"/>
        <pt x="584" y="572" on="1"/>
        <pt x="584" y="483" on="0"/>
        <pt x="488" y="371" on="0"/>
        <pt x="418" y="342" on="1"/>
        <pt x="580" y="98" on="1"/>
        <pt x="590" y="82" on="0"/>
        <pt x="647" y="28" on="0"/>
        <pt x="670" y="28" on="1"/>
        <pt x="688" y="28" on="1"/>
        <pt x="688" y="0" on="1"/>
        <pt x="540" y="0" on="1"/>
        <pt x="330" y="322" on="1"/>
        <pt x="320" y="320" on="0"/>
        <pt x="260" y="320" on="0"/>
        <pt x="242" y="322" on="1"/>
        <pt x="234" y="362" on="1"/>
        <pt x="248" y="360" on="0"/>
        <pt x="340" y="360" on="0"/>
        <pt x="432" y="384" on="0"/>
        <pt x="502" y="451" on="0"/>
        <pt x="502" y="504" on="1"/>
        <pt x="502" y="652" on="0"/>
        <pt x="312" y="652" on="1"/>
        <pt x="208" y="648" on="1"/>
        <pt x="208" y="74" on="1"/>
        <pt x="208" y="59" on="0"/>
        <pt x="212" y="43" on="0"/>
        <pt x="234" y="28" on="0"/>
        <pt x="256" y="28" on="1"/>
        <pt x="294" y="28" on="1"/>
        <pt x="294" y="0" on="1"/>
        <pt x="40" y="0" on="1"/>
        <pt x="40" y="28" on="1"/>
        <pt x="72" y="28" on="1"/>
        <pt x="94" y="28" on="0"/>
        <pt x="116" y="43" on="0"/>
        <pt x="120" y="59" on="0"/>
        <pt x="120" y="74" on="1"/>
        <pt x="120" y="626" on="1"/>
        <pt x="120" y="649" on="0"/>
        <pt x="101" y="670" on="0"/>
        <pt x="72" y="670" on="1"/>
        <pt x="40" y="670" on="1"/>
        <pt x="40" y="700" on="1"/>
      </contour>
    </TTGlyph>
    <TTGlyph name="Rcommaaccent" xMin="40" yMin="-218" xMax="688" yMax="710">
      <contour>
        <pt x="194" y="700" on="1"/>
        <pt x="384" y="710" on="1"/>
        <pt x="472" y="710" on="0"/>
        <pt x="584" y="636" on="0"/>
        <pt x="584" y="572" on="1"/>
        <pt x="584" y="483" on="0"/>
        <pt x="488" y="371" on="0"/>
        <pt x="418" y="342" on="1"/>
        <pt x="580" y="98" on="1"/>
        <pt x="590" y="82" on="0"/>
        <pt x="647" y="28" on="0"/>
        <pt x="670" y="28" on="1"/>
        <pt x="688" y="28" on="1"/>
        <pt x="688" y="0" on="1"/>
        <pt x="540" y="0" on="1"/>
        <pt x="330" y="322" on="1"/>
        <pt x="320" y="320" on="0"/>
        <pt x="260" y="320" on="0"/>
        <pt x="242" y="322" on="1"/>
        <pt x="234" y="362" on="1"/>
        <pt x="248" y="360" on="0"/>
        <pt x="340" y="360" on="0"/>
        <pt x="432" y="384" on="0"/>
        <pt x="502" y="451" on="0"/>
        <pt x="502" y="504" on="1"/>
        <pt x="502" y="652" on="0"/>
        <pt x="312" y="652" on="1"/>
        <pt x="208" y="648" on="1"/>
        <pt x="208" y="74" on="1"/>
        <pt x="208" y="59" on="0"/>
        <pt x="212" y="43" on="0"/>
        <pt x="234" y="28" on="0"/>
        <pt x="256" y="28" on="1"/>
        <pt x="294" y="28" on="1"/>
        <pt x="294" y="0" on="1"/>
        <pt x="40" y="0" on="1"/>
        <pt x="40" y="28" on="1"/>
        <pt x="72" y="28" on="1"/>
        <pt x="94" y="28" on="0"/>
        <pt x="116" y="43" on="0"/>
        <pt x="120" y="59" on="0"/>
        <pt x="120" y="74" on="1"/>
        <pt x="120" y="626" on="1"/>
        <pt x="120" y="649" on="0"/>
        <pt x="101" y="670" on="0"/>
        <pt x="72" y="670" on="1"/>
        <pt x="40" y="670" on="1"/>
        <pt x="40" y="700" on="1"/>
      </contour>
      <contour>
        <pt x="296" y="-218" on="1"/>
        <pt x="284" y="-202" on="1"/>
        <pt x="328" y="-167" on="0"/>
        <pt x="338" y="-116" on="1"/>
        <pt x="321" y="-116" on="0"/>
        <pt x="302" y="-95" on="0"/>
        <pt x="302" y="-57" on="0"/>
        <pt x="333" y="-30" on="0"/>
        <pt x="369" y="-30" on="0"/>
        <pt x="388" y="-50" on="0"/>
        <pt x="388" y="-66" on="1"/>
        <pt x="388" y="-151" on="0"/>
      </contour>
    </TTGlyph>
    <TTGlyph name="S" xMin="30" yMin="-14" xMax="520" yMax="714">
      <contour>
        <pt x="30" y="48" on="1"/>
        <pt x="44" y="178" on="1"/>
        <pt x="78" y="176" on="1"/>
        <pt x="78" y="121" on="0"/>
        <pt x="209" y="54" on="0"/>
        <pt x="376" y="54" on="0"/>
        <pt x="460" y="105" on="0"/>
        <pt x="460" y="144" on="1"/>
        <pt x="460" y="210" on="0"/>
        <pt x="390" y="262" on="1"/>
        <pt x="361" y="283" on="0"/>
        <pt x="329" y="299" on="1"/>
        <pt x="256" y="337" on="0"/>
        <pt x="219" y="358" on="0"/>
        <pt x="173" y="380" on="0"/>
        <pt x="134" y="405" on="0"/>
        <pt x="112" y="423" on="1"/>
        <pt x="62" y="463" on="0"/>
        <pt x="62" y="562" on="0"/>
        <pt x="97" y="636" on="0"/>
        <pt x="150" y="678" on="0"/>
        <pt x="186" y="692" on="1"/>
        <pt x="247" y="714" on="0"/>
        <pt x="398" y="714" on="0"/>
        <pt x="468" y="676" on="1"/>
        <pt x="456" y="560" on="1"/>
        <pt x="422" y="560" on="1"/>
        <pt x="422" y="654" on="0"/>
        <pt x="264" y="654" on="1"/>
        <pt x="191" y="654" on="0"/>
        <pt x="118" y="608" on="0"/>
        <pt x="118" y="568" on="1"/>
        <pt x="118" y="504" on="0"/>
        <pt x="326" y="414" on="1"/>
        <pt x="463" y="355" on="0"/>
        <pt x="501" y="283" on="1"/>
        <pt x="520" y="247" on="0"/>
        <pt x="520" y="204" on="1"/>
        <pt x="520" y="100" on="0"/>
        <pt x="353" y="-14" on="0"/>
        <pt x="117" y="-14" on="0"/>
      </contour>
    </TTGlyph>
    <TTGlyph name="T" xMin="14" yMin="0" xMax="596" yMax="700">
      <contour>
        <pt x="434" y="0" on="1"/>
        <pt x="174" y="0" on="1"/>
        <pt x="174" y="28" on="1"/>
        <pt x="214" y="28" on="1"/>
        <pt x="244" y="28" on="0"/>
        <pt x="260" y="51" on="0"/>
        <pt x="260" y="72" on="1"/>
        <pt x="260" y="612" on="1"/>
        <pt x="260" y="627" on="0"/>
        <pt x="256" y="644" on="0"/>
        <pt x="235" y="658" on="0"/>
        <pt x="214" y="658" on="1"/>
        <pt x="154" y="658" on="1"/>
        <pt x="101" y="658" on="0"/>
        <pt x="44" y="593" on="0"/>
        <pt x="42" y="556" on="1"/>
        <pt x="14" y="562" on="1"/>
        <pt x="24" y="700" on="1"/>
        <pt x="586" y="700" on="1"/>
        <pt x="596" y="562" on="1"/>
        <pt x="568" y="556" on="1"/>
        <pt x="566" y="592" on="0"/>
        <pt x="508" y="658" on="0"/>
        <pt x="456" y="658" on="1"/>
        <pt x="396" y="658" on="1"/>
        <pt x="374" y="658" on="0"/>
        <pt x="352" y="643" on="0"/>
        <pt x="348" y="627" on="0"/>
        <pt x="348" y="612" on="1"/>
        <pt x="348" y="72" on="1"/>
        <pt x="348" y="58" on="0"/>
        <pt x="352" y="42" on="0"/>
        <pt x="374" y="28" on="0"/>
        <pt x="396" y="28" on="1"/>
        <pt x="434" y="28" on="1"/>
      </contour>
    </TTGlyph>
    <TTGlyph name="Thorn" xMin="40" yMin="0" xMax="548" yMax="700">
      <contour>
        <pt x="210" y="574" on="1"/>
        <pt x="348" y="576" on="1"/>
        <pt x="436" y="576" on="0"/>
        <pt x="548" y="505" on="0"/>
        <pt x="548" y="426" on="1"/>
        <pt x="548" y="364" on="0"/>
        <pt x="494" y="267" on="0"/>
        <pt x="454" y="242" on="1"/>
        <pt x="375" y="190" on="0"/>
        <pt x="310" y="190" on="1"/>
        <pt x="266" y="190" on="0"/>
        <pt x="242" y="192" on="1"/>
        <pt x="234" y="228" on="1"/>
        <pt x="246" y="224" on="0"/>
        <pt x="284" y="224" on="1"/>
        <pt x="359" y="224" on="0"/>
        <pt x="466" y="305" on="0"/>
        <pt x="466" y="454" on="0"/>
        <pt x="359" y="530" on="0"/>
        <pt x="276" y="530" on="1"/>
        <pt x="210" y="526" on="1"/>
        <pt x="210" y="72" on="1"/>
        <pt x="210" y="58" on="0"/>
        <pt x="214" y="42" on="0"/>
        <pt x="235" y="28" on="0"/>
        <pt x="256" y="28" on="1"/>
        <pt x="296" y="28" on="1"/>
        <pt x="296" y="0" on="1"/>
        <pt x="40" y="0" on="1"/>
        <pt x="40" y="28" on="1"/>
        <pt x="74" y="28" on="1"/>
        <pt x="96" y="28" on="0"/>
        <pt x="118" y="42" on="0"/>
        <pt x="122" y="58" on="0"/>
        <pt x="122" y="72" on="1"/>
        <pt x="122" y="632" on="1"/>
        <pt x="122" y="650" on="0"/>
        <pt x="103" y="670" on="0"/>
        <pt x="74" y="670" on="1"/>
        <pt x="40" y="670" on="1"/>
        <pt x="40" y="700" on="1"/>
        <pt x="296" y="700" on="1"/>
        <pt x="296" y="670" on="1"/>
        <pt x="256" y="670" on="1"/>
        <pt x="228" y="670" on="0"/>
        <pt x="210" y="652" on="0"/>
        <pt x="210" y="634" on="1"/>
      </contour>
    </TTGlyph>
    <TTGlyph name="U" xMin="36" yMin="-21" xMax="760" yMax="700">
      <contour>
        <pt x="614" y="288" on="1"/>
        <pt x="614" y="626" on="1"/>
        <pt x="614" y="670" on="0"/>
        <pt x="552" y="670" on="1"/>
        <pt x="520" y="670" on="1"/>
        <pt x="520" y="700" on="1"/>
        <pt x="760" y="700" on="1"/>
        <pt x="760" y="670" on="1"/>
        <pt x="722" y="670" on="1"/>
        <pt x="689" y="670" on="0"/>
        <pt x="656" y="645" on="0"/>
        <pt x="656" y="626" on="1"/>
        <pt x="656" y="288" on="1"/>
        <pt x="656" y="212" on="0"/>
        <pt x="601" y="89" on="0"/>
        <pt x="558" y="53" on="1"/>
        <pt x="469" y="-20" on="0"/>
        <pt x="271" y="-20" on="0"/>
        <pt x="118" y="104" on="0"/>
        <pt x="118" y="188" on="1"/>
        <pt x="118" y="626" on="1"/>
        <pt x="118" y="641" on="0"/>
        <pt x="114" y="657" on="0"/>
        <pt x="92" y="670" on="0"/>
        <pt x="70" y="670" on="1"/>
        <pt x="36" y="670" on="1"/>
        <pt x="36" y="700" on="1"/>
        <pt x="292" y="700" on="1"/>
        <pt x="292" y="670" on="1"/>
        <pt x="254" y="670" on="1"/>
        <pt x="232" y="670" on="0"/>
        <pt x="210" y="657" on="0"/>
        <pt x="206" y="641" on="0"/>
        <pt x="206" y="626" on="1"/>
        <pt x="206" y="274" on="1"/>
        <pt x="206" y="163" on="0"/>
        <pt x="307" y="64" on="0"/>
        <pt x="408" y="64" on="1"/>
        <pt x="455" y="64" on="0"/>
        <pt x="533" y="96" on="0"/>
        <pt x="580" y="140" on="0"/>
        <pt x="614" y="229" on="0"/>
      </contour>
    </TTGlyph>
    <TTGlyph name="Uacute" xMin="34" yMin="-20" xMax="758" yMax="900">
      <contour>
        <pt x="612" y="288" on="1"/>
        <pt x="612" y="626" on="1"/>
        <pt x="612" y="670" on="0"/>
        <pt x="550" y="670" on="1"/>
        <pt x="518" y="670" on="1"/>
        <pt x="518" y="700" on="1"/>
        <pt x="758" y="700" on="1"/>
        <pt x="758" y="670" on="1"/>
        <pt x="720" y="670" on="1"/>
        <pt x="687" y="670" on="0"/>
        <pt x="654" y="645" on="0"/>
        <pt x="654" y="626" on="1"/>
        <pt x="654" y="288" on="1"/>
        <pt x="654" y="212" on="0"/>
        <pt x="599" y="89" on="0"/>
        <pt x="556" y="53" on="1"/>
        <pt x="467" y="-20" on="0"/>
        <pt x="269" y="-20" on="0"/>
        <pt x="116" y="104" on="0"/>
        <pt x="116" y="188" on="1"/>
        <pt x="116" y="626" on="1"/>
        <pt x="116" y="641" on="0"/>
        <pt x="112" y="657" on="0"/>
        <pt x="90" y="670" on="0"/>
        <pt x="68" y="670" on="1"/>
        <pt x="34" y="670" on="1"/>
        <pt x="34" y="700" on="1"/>
        <pt x="290" y="700" on="1"/>
        <pt x="290" y="670" on="1"/>
        <pt x="252" y="670" on="1"/>
        <pt x="230" y="670" on="0"/>
        <pt x="208" y="657" on="0"/>
        <pt x="204" y="641" on="0"/>
        <pt x="204" y="626" on="1"/>
        <pt x="204" y="274" on="1"/>
        <pt x="204" y="163" on="0"/>
        <pt x="305" y="64" on="0"/>
        <pt x="406" y="64" on="1"/>
        <pt x="453" y="64" on="0"/>
        <pt x="531" y="96" on="0"/>
        <pt x="578" y="140" on="0"/>
        <pt x="612" y="229" on="0"/>
      </contour>
      <contour>
        <pt x="510" y="842" on="1"/>
        <pt x="331" y="760" on="1"/>
        <pt x="312" y="782" on="1"/>
        <pt x="458" y="900" on="1"/>
      </contour>
    </TTGlyph>
    <TTGlyph name="Ucircumflex" xMin="34" yMin="-20" xMax="758" yMax="940">
      <contour>
        <pt x="510" y="772" on="1"/>
        <pt x="484" y="760" on="1"/>
        <pt x="396" y="858" on="1"/>
        <pt x="308" y="760" on="1"/>
        <pt x="282" y="772" on="1"/>
        <pt x="368" y="940" on="1"/>
        <pt x="424" y="940" on="1"/>
      </contour>
      <contour>
        <pt x="612" y="288" on="1"/>
        <pt x="612" y="626" on="1"/>
        <pt x="612" y="670" on="0"/>
        <pt x="550" y="670" on="1"/>
        <pt x="518" y="670" on="1"/>
        <pt x="518" y="700" on="1"/>
        <pt x="758" y="700" on="1"/>
        <pt x="758" y="670" on="1"/>
        <pt x="720" y="670" on="1"/>
        <pt x="687" y="670" on="0"/>
        <pt x="654" y="645" on="0"/>
        <pt x="654" y="626" on="1"/>
        <pt x="654" y="288" on="1"/>
        <pt x="654" y="212" on="0"/>
        <pt x="599" y="89" on="0"/>
        <pt x="556" y="53" on="1"/>
        <pt x="467" y="-20" on="0"/>
        <pt x="269" y="-20" on="0"/>
        <pt x="116" y="104" on="0"/>
        <pt x="116" y="188" on="1"/>
        <pt x="116" y="626" on="1"/>
        <pt x="116" y="641" on="0"/>
        <pt x="112" y="657" on="0"/>
        <pt x="90" y="670" on="0"/>
        <pt x="68" y="670" on="1"/>
        <pt x="34" y="670" on="1"/>
        <pt x="34" y="700" on="1"/>
        <pt x="290" y="700" on="1"/>
        <pt x="290" y="670" on="1"/>
        <pt x="252" y="670" on="1"/>
        <pt x="230" y="670" on="0"/>
        <pt x="208" y="657" on="0"/>
        <pt x="204" y="641" on="0"/>
        <pt x="204" y="626" on="1"/>
        <pt x="204" y="274" on="1"/>
        <pt x="204" y="163" on="0"/>
        <pt x="305" y="64" on="0"/>
        <pt x="406" y="64" on="1"/>
        <pt x="453" y="64" on="0"/>
        <pt x="531" y="96" on="0"/>
        <pt x="578" y="140" on="0"/>
        <pt x="612" y="229" on="0"/>
      </contour>
    </TTGlyph>
    <TTGlyph name="Udieresis" xMin="34" yMin="-20" xMax="758" yMax="930">
      <contour>
        <pt x="323" y="930" on="0"/>
        <pt x="348" y="900" on="0"/>
        <pt x="348" y="853" on="0"/>
        <pt x="310" y="822" on="0"/>
        <pt x="265" y="822" on="0"/>
        <pt x="240" y="852" on="0"/>
        <pt x="240" y="897" on="0"/>
        <pt x="278" y="930" on="0"/>
      </contour>
      <contour>
        <pt x="525" y="930" on="0"/>
        <pt x="552" y="900" on="0"/>
        <pt x="552" y="853" on="0"/>
        <pt x="514" y="822" on="0"/>
        <pt x="468" y="822" on="0"/>
        <pt x="444" y="853" on="0"/>
        <pt x="444" y="897" on="0"/>
        <pt x="481" y="930" on="0"/>
      </contour>
      <contour>
        <pt x="612" y="288" on="1"/>
        <pt x="612" y="626" on="1"/>
        <pt x="612" y="670" on="0"/>
        <pt x="550" y="670" on="1"/>
        <pt x="518" y="670" on="1"/>
        <pt x="518" y="700" on="1"/>
        <pt x="758" y="700" on="1"/>
        <pt x="758" y="670" on="1"/>
        <pt x="720" y="670" on="1"/>
        <pt x="687" y="670" on="0"/>
        <pt x="654" y="645" on="0"/>
        <pt x="654" y="626" on="1"/>
        <pt x="654" y="288" on="1"/>
        <pt x="654" y="212" on="0"/>
        <pt x="599" y="89" on="0"/>
        <pt x="556" y="53" on="1"/>
        <pt x="467" y="-20" on="0"/>
        <pt x="269" y="-20" on="0"/>
        <pt x="116" y="104" on="0"/>
        <pt x="116" y="188" on="1"/>
        <pt x="116" y="626" on="1"/>
        <pt x="116" y="641" on="0"/>
        <pt x="112" y="657" on="0"/>
        <pt x="90" y="670" on="0"/>
        <pt x="68" y="670" on="1"/>
        <pt x="34" y="670" on="1"/>
        <pt x="34" y="700" on="1"/>
        <pt x="290" y="700" on="1"/>
        <pt x="290" y="670" on="1"/>
        <pt x="252" y="670" on="1"/>
        <pt x="230" y="670" on="0"/>
        <pt x="208" y="657" on="0"/>
        <pt x="204" y="641" on="0"/>
        <pt x="204" y="626" on="1"/>
        <pt x="204" y="274" on="1"/>
        <pt x="204" y="163" on="0"/>
        <pt x="305" y="64" on="0"/>
        <pt x="406" y="64" on="1"/>
        <pt x="453" y="64" on="0"/>
        <pt x="531" y="96" on="0"/>
        <pt x="578" y="140" on="0"/>
        <pt x="612" y="229" on="0"/>
      </contour>
    </TTGlyph>
    <TTGlyph name="Ugrave" xMin="34" yMin="-20" xMax="758" yMax="900">
      <contour>
        <pt x="612" y="288" on="1"/>
        <pt x="612" y="626" on="1"/>
        <pt x="612" y="670" on="0"/>
        <pt x="550" y="670" on="1"/>
        <pt x="518" y="670" on="1"/>
        <pt x="518" y="700" on="1"/>
        <pt x="758" y="700" on="1"/>
        <pt x="758" y="670" on="1"/>
        <pt x="720" y="670" on="1"/>
        <pt x="687" y="670" on="0"/>
        <pt x="654" y="645" on="0"/>
        <pt x="654" y="626" on="1"/>
        <pt x="654" y="288" on="1"/>
        <pt x="654" y="212" on="0"/>
        <pt x="599" y="89" on="0"/>
        <pt x="556" y="53" on="1"/>
        <pt x="467" y="-20" on="0"/>
        <pt x="269" y="-20" on="0"/>
        <pt x="116" y="104" on="0"/>
        <pt x="116" y="188" on="1"/>
        <pt x="116" y="626" on="1"/>
        <pt x="116" y="641" on="0"/>
        <pt x="112" y="657" on="0"/>
        <pt x="90" y="670" on="0"/>
        <pt x="68" y="670" on="1"/>
        <pt x="34" y="670" on="1"/>
        <pt x="34" y="700" on="1"/>
        <pt x="290" y="700" on="1"/>
        <pt x="290" y="670" on="1"/>
        <pt x="252" y="670" on="1"/>
        <pt x="230" y="670" on="0"/>
        <pt x="208" y="657" on="0"/>
        <pt x="204" y="641" on="0"/>
        <pt x="204" y="626" on="1"/>
        <pt x="204" y="274" on="1"/>
        <pt x="204" y="163" on="0"/>
        <pt x="305" y="64" on="0"/>
        <pt x="406" y="64" on="1"/>
        <pt x="453" y="64" on="0"/>
        <pt x="531" y="96" on="0"/>
        <pt x="578" y="140" on="0"/>
        <pt x="612" y="229" on="0"/>
      </contour>
      <contour>
        <pt x="459" y="760" on="1"/>
        <pt x="280" y="842" on="1"/>
        <pt x="332" y="900" on="1"/>
        <pt x="478" y="782" on="1"/>
      </contour>
    </TTGlyph>
    <TTGlyph name="V" xMin="12" yMin="-20" xMax="720" yMax="700">
      <contour>
        <pt x="362" y="-14" on="1"/>
        <pt x="346" y="-20" on="1"/>
        <pt x="100" y="626" on="1"/>
        <pt x="91" y="648" on="0"/>
        <pt x="68" y="670" on="0"/>
        <pt x="46" y="670" on="1"/>
        <pt x="12" y="670" on="1"/>
        <pt x="12" y="700" on="1"/>
        <pt x="266" y="700" on="1"/>
        <pt x="266" y="670" on="1"/>
        <pt x="232" y="670" on="1"/>
        <pt x="190" y="670" on="0"/>
        <pt x="190" y="644" on="1"/>
        <pt x="190" y="632" on="0"/>
        <pt x="200" y="608" on="1"/>
        <pt x="394" y="104" on="1"/>
        <pt x="594" y="624" on="1"/>
        <pt x="604" y="654" on="1"/>
        <pt x="604" y="664" on="0"/>
        <pt x="580" y="670" on="0"/>
        <pt x="544" y="670" on="1"/>
        <pt x="522" y="670" on="1"/>
        <pt x="522" y="700" on="1"/>
        <pt x="720" y="700" on="1"/>
        <pt x="720" y="670" on="1"/>
        <pt x="708" y="670" on="1"/>
        <pt x="674" y="670" on="0"/>
        <pt x="643" y="648" on="0"/>
        <pt x="634" y="620" on="1"/>
        <pt x="414" y="48" on="1"/>
        <pt x="378" y="22" on="0"/>
      </contour>
    </TTGlyph>
    <TTGlyph name="W" xMin="12" yMin="-20" xMax="1048" yMax="700">
      <contour>
        <pt x="718" y="-14" on="1"/>
        <pt x="702" y="-20" on="1"/>
        <pt x="536" y="458" on="1"/>
        <pt x="394" y="48" on="1"/>
        <pt x="342" y="-14" on="1"/>
        <pt x="326" y="-20" on="1"/>
        <pt x="102" y="626" on="1"/>
        <pt x="93" y="648" on="0"/>
        <pt x="70" y="670" on="0"/>
        <pt x="46" y="670" on="1"/>
        <pt x="12" y="670" on="1"/>
        <pt x="12" y="700" on="1"/>
        <pt x="260" y="700" on="1"/>
        <pt x="260" y="670" on="1"/>
        <pt x="236" y="670" on="1"/>
        <pt x="192" y="670" on="0"/>
        <pt x="192" y="644" on="1"/>
        <pt x="192" y="636" on="0"/>
        <pt x="200" y="614" on="1"/>
        <pt x="374" y="108" on="1"/>
        <pt x="516" y="518" on="1"/>
        <pt x="478" y="626" on="1"/>
        <pt x="466" y="658" on="0"/>
        <pt x="448" y="670" on="0"/>
        <pt x="432" y="670" on="1"/>
        <pt x="424" y="670" on="1"/>
        <pt x="424" y="700" on="1"/>
        <pt x="648" y="700" on="1"/>
        <pt x="648" y="670" on="1"/>
        <pt x="612" y="670" on="1"/>
        <pt x="566" y="670" on="0"/>
        <pt x="566" y="646" on="1"/>
        <pt x="566" y="634" on="0"/>
        <pt x="574" y="614" on="1"/>
        <pt x="750" y="108" on="1"/>
        <pt x="922" y="602" on="1"/>
        <pt x="934" y="642" on="0"/>
        <pt x="934" y="663" on="0"/>
        <pt x="907" y="670" on="0"/>
        <pt x="866" y="670" on="1"/>
        <pt x="852" y="670" on="1"/>
        <pt x="852" y="700" on="1"/>
        <pt x="1048" y="700" on="1"/>
        <pt x="1048" y="670" on="1"/>
        <pt x="1030" y="670" on="1"/>
        <pt x="998" y="670" on="0"/>
        <pt x="978" y="652" on="0"/>
        <pt x="968" y="622" on="1"/>
        <pt x="770" y="48" on="1"/>
      </contour>
    </TTGlyph>
    <TTGlyph name="X" xMin="16" yMin="0" xMax="670" yMax="700">
      <contour>
        <pt x="670" y="0" on="1"/>
        <pt x="442" y="0" on="1"/>
        <pt x="442" y="28" on="1"/>
        <pt x="452" y="28" on="1"/>
        <pt x="468" y="28" on="0"/>
        <pt x="468" y="45" on="0"/>
        <pt x="442" y="94" on="1"/>
        <pt x="328" y="322" on="1"/>
        <pt x="208" y="94" on="1"/>
        <pt x="184" y="46" on="0"/>
        <pt x="184" y="40" on="1"/>
        <pt x="184" y="28" on="0"/>
        <pt x="214" y="28" on="1"/>
        <pt x="240" y="28" on="1"/>
        <pt x="240" y="0" on="1"/>
        <pt x="16" y="0" on="1"/>
        <pt x="16" y="28" on="1"/>
        <pt x="54" y="28" on="1"/>
        <pt x="124" y="28" on="0"/>
        <pt x="164" y="102" on="1"/>
        <pt x="304" y="360" on="1"/>
        <pt x="170" y="600" on="1"/>
        <pt x="128" y="672" on="0"/>
        <pt x="74" y="672" on="1"/>
        <pt x="48" y="672" on="1"/>
        <pt x="48" y="700" on="1"/>
        <pt x="276" y="700" on="1"/>
        <pt x="276" y="672" on="1"/>
        <pt x="260" y="672" on="1"/>
        <pt x="246" y="672" on="0"/>
        <pt x="246" y="654" on="0"/>
        <pt x="260" y="626" on="1"/>
        <pt x="358" y="440" on="1"/>
        <pt x="436" y="590" on="1"/>
        <pt x="466" y="650" on="0"/>
        <pt x="466" y="672" on="0"/>
        <pt x="436" y="672" on="1"/>
        <pt x="412" y="672" on="1"/>
        <pt x="412" y="700" on="1"/>
        <pt x="636" y="700" on="1"/>
        <pt x="636" y="672" on="1"/>
        <pt x="598" y="672" on="1"/>
        <pt x="526" y="672" on="0"/>
        <pt x="486" y="598" on="1"/>
        <pt x="384" y="402" on="1"/>
        <pt x="542" y="106" on="1"/>
        <pt x="584" y="28" on="0"/>
        <pt x="644" y="28" on="1"/>
        <pt x="670" y="28" on="1"/>
      </contour>
    </TTGlyph>
    <TTGlyph name="Y" xMin="20" yMin="0" xMax="642" yMax="700">
      <contour>
        <pt x="468" y="0" on="1"/>
        <pt x="214" y="0" on="1"/>
        <pt x="214" y="28" on="1"/>
        <pt x="246" y="28" on="1"/>
        <pt x="276" y="28" on="0"/>
        <pt x="296" y="52" on="0"/>
        <pt x="296" y="72" on="1"/>
        <pt x="296" y="290" on="1"/>
        <pt x="148" y="586" on="1"/>
        <pt x="107" y="672" on="0"/>
        <pt x="42" y="672" on="1"/>
        <pt x="20" y="672" on="1"/>
        <pt x="20" y="700" on="1"/>
        <pt x="246" y="700" on="1"/>
        <pt x="246" y="672" on="1"/>
        <pt x="234" y="672" on="1"/>
        <pt x="218" y="672" on="0"/>
        <pt x="218" y="652" on="0"/>
        <pt x="230" y="630" on="1"/>
        <pt x="356" y="362" on="1"/>
        <pt x="484" y="630" on="1"/>
        <pt x="496" y="654" on="0"/>
        <pt x="496" y="660" on="1"/>
        <pt x="496" y="672" on="0"/>
        <pt x="466" y="672" on="1"/>
        <pt x="440" y="672" on="1"/>
        <pt x="440" y="700" on="1"/>
        <pt x="642" y="700" on="1"/>
        <pt x="642" y="672" on="1"/>
        <pt x="626" y="672" on="1"/>
        <pt x="551" y="672" on="0"/>
        <pt x="518" y="602" on="1"/>
        <pt x="382" y="330" on="1"/>
        <pt x="382" y="72" on="1"/>
        <pt x="382" y="52" on="0"/>
        <pt x="402" y="28" on="0"/>
        <pt x="432" y="28" on="1"/>
        <pt x="468" y="28" on="1"/>
      </contour>
    </TTGlyph>
    <TTGlyph name="Yacute" xMin="20" yMin="0" xMax="642" yMax="900">
      <contour>
        <pt x="468" y="0" on="1"/>
        <pt x="214" y="0" on="1"/>
        <pt x="214" y="28" on="1"/>
        <pt x="246" y="28" on="1"/>
        <pt x="276" y="28" on="0"/>
        <pt x="296" y="52" on="0"/>
        <pt x="296" y="72" on="1"/>
        <pt x="296" y="290" on="1"/>
        <pt x="148" y="586" on="1"/>
        <pt x="107" y="672" on="0"/>
        <pt x="42" y="672" on="1"/>
        <pt x="20" y="672" on="1"/>
        <pt x="20" y="700" on="1"/>
        <pt x="246" y="700" on="1"/>
        <pt x="246" y="672" on="1"/>
        <pt x="234" y="672" on="1"/>
        <pt x="218" y="672" on="0"/>
        <pt x="218" y="652" on="0"/>
        <pt x="230" y="630" on="1"/>
        <pt x="356" y="362" on="1"/>
        <pt x="484" y="630" on="1"/>
        <pt x="496" y="654" on="0"/>
        <pt x="496" y="660" on="1"/>
        <pt x="496" y="672" on="0"/>
        <pt x="466" y="672" on="1"/>
        <pt x="440" y="672" on="1"/>
        <pt x="440" y="700" on="1"/>
        <pt x="642" y="700" on="1"/>
        <pt x="642" y="672" on="1"/>
        <pt x="626" y="672" on="1"/>
        <pt x="551" y="672" on="0"/>
        <pt x="518" y="602" on="1"/>
        <pt x="382" y="330" on="1"/>
        <pt x="382" y="72" on="1"/>
        <pt x="382" y="52" on="0"/>
        <pt x="402" y="28" on="0"/>
        <pt x="432" y="28" on="1"/>
        <pt x="468" y="28" on="1"/>
      </contour>
      <contour>
        <pt x="447" y="842" on="1"/>
        <pt x="268" y="760" on="1"/>
        <pt x="249" y="782" on="1"/>
        <pt x="395" y="900" on="1"/>
      </contour>
    </TTGlyph>
    <TTGlyph name="Z" xMin="18" yMin="0" xMax="604" yMax="700">
      <contour>
        <pt x="570" y="0" on="1"/>
        <pt x="18" y="0" on="1"/>
        <pt x="20" y="24" on="1"/>
        <pt x="444" y="658" on="1"/>
        <pt x="162" y="658" on="1"/>
        <pt x="110" y="658" on="0"/>
        <pt x="52" y="592" on="0"/>
        <pt x="52" y="556" on="1"/>
        <pt x="22" y="562" on="1"/>
        <pt x="32" y="700" on="1"/>
        <pt x="566" y="700" on="1"/>
        <pt x="564" y="676" on="1"/>
        <pt x="138" y="44" on="1"/>
        <pt x="440" y="44" on="1"/>
        <pt x="493" y="44" on="0"/>
        <pt x="574" y="111" on="0"/>
        <pt x="576" y="144" on="1"/>
        <pt x="604" y="138" on="1"/>
      </contour>
    </TTGlyph>
    <TTGlyph name="a" xMin="40" yMin="-14" xMax="476" yMax="480">
      <contour>
        <pt x="476" y="0" on="1"/>
        <pt x="332" y="0" on="1"/>
        <pt x="332" y="80" on="1"/>
        <pt x="282" y="26" on="0"/>
        <pt x="216" y="-14" on="0"/>
        <pt x="103" y="-14" on="0"/>
        <pt x="40" y="39" on="0"/>
        <pt x="40" y="135" on="0"/>
        <pt x="123" y="226" on="0"/>
        <pt x="234" y="273" on="0"/>
        <pt x="318" y="298" on="0"/>
        <pt x="332" y="298" on="1"/>
        <pt x="332" y="320" on="1"/>
        <pt x="332" y="414" on="0"/>
        <pt x="254" y="414" on="1"/>
        <pt x="200" y="414" on="0"/>
        <pt x="107" y="368" on="0"/>
        <pt x="84" y="332" on="1"/>
        <pt x="64" y="350" on="1"/>
        <pt x="131" y="480" on="0"/>
        <pt x="296" y="480" on="1"/>
        <pt x="338" y="480" on="0"/>
        <pt x="393" y="435" on="0"/>
        <pt x="412" y="375" on="0"/>
        <pt x="412" y="338" on="1"/>
        <pt x="412" y="68" on="1"/>
        <pt x="412" y="55" on="0"/>
        <pt x="416" y="41" on="0"/>
        <pt x="437" y="28" on="0"/>
        <pt x="458" y="28" on="1"/>
        <pt x="476" y="28" on="1"/>
      </contour>
      <contour>
        <pt x="332" y="136" on="1"/>
        <pt x="332" y="258" on="1"/>
        <pt x="254" y="243" on="0"/>
        <pt x="120" y="153" on="0"/>
        <pt x="120" y="100" on="1"/>
        <pt x="120" y="79" on="0"/>
        <pt x="161" y="48" on="0"/>
        <pt x="222" y="48" on="0"/>
        <pt x="306" y="103" on="0"/>
      </contour>
    </TTGlyph>
    <TTGlyph name="aacute" xMin="40" yMin="-14" xMax="476" yMax="702">
      <contour>
        <pt x="340" y="660" on="1"/>
        <pt x="192" y="532" on="1"/>
        <pt x="168" y="548" on="1"/>
        <pt x="274" y="702" on="1"/>
      </contour>
      <contour>
        <pt x="476" y="0" on="1"/>
        <pt x="332" y="0" on="1"/>
        <pt x="332" y="80" on="1"/>
        <pt x="282" y="26" on="0"/>
        <pt x="216" y="-14" on="0"/>
        <pt x="103" y="-14" on="0"/>
        <pt x="40" y="39" on="0"/>
        <pt x="40" y="135" on="0"/>
        <pt x="123" y="226" on="0"/>
        <pt x="234" y="273" on="0"/>
        <pt x="318" y="298" on="0"/>
        <pt x="332" y="298" on="1"/>
        <pt x="332" y="320" on="1"/>
        <pt x="332" y="414" on="0"/>
        <pt x="254" y="414" on="1"/>
        <pt x="200" y="414" on="0"/>
        <pt x="107" y="368" on="0"/>
        <pt x="84" y="332" on="1"/>
        <pt x="64" y="350" on="1"/>
        <pt x="131" y="480" on="0"/>
        <pt x="296" y="480" on="1"/>
        <pt x="338" y="480" on="0"/>
        <pt x="393" y="435" on="0"/>
        <pt x="412" y="375" on="0"/>
        <pt x="412" y="338" on="1"/>
        <pt x="412" y="68" on="1"/>
        <pt x="412" y="55" on="0"/>
        <pt x="416" y="41" on="0"/>
        <pt x="437" y="28" on="0"/>
        <pt x="458" y="28" on="1"/>
        <pt x="476" y="28" on="1"/>
      </contour>
      <contour>
        <pt x="332" y="136" on="1"/>
        <pt x="332" y="258" on="1"/>
        <pt x="254" y="243" on="0"/>
        <pt x="120" y="153" on="0"/>
        <pt x="120" y="100" on="1"/>
        <pt x="120" y="79" on="0"/>
        <pt x="161" y="48" on="0"/>
        <pt x="222" y="48" on="0"/>
        <pt x="306" y="103" on="0"/>
      </contour>
    </TTGlyph>
    <TTGlyph name="acircumflex" xMin="40" yMin="-14" xMax="476" yMax="706">
      <contour>
        <pt x="368" y="538" on="1"/>
        <pt x="342" y="526" on="1"/>
        <pt x="254" y="624" on="1"/>
        <pt x="168" y="526" on="1"/>
        <pt x="142" y="538" on="1"/>
        <pt x="226" y="706" on="1"/>
        <pt x="284" y="706" on="1"/>
      </contour>
      <contour>
        <pt x="476" y="0" on="1"/>
        <pt x="332" y="0" on="1"/>
        <pt x="332" y="80" on="1"/>
        <pt x="282" y="26" on="0"/>
        <pt x="216" y="-14" on="0"/>
        <pt x="103" y="-14" on="0"/>
        <pt x="40" y="39" on="0"/>
        <pt x="40" y="135" on="0"/>
        <pt x="123" y="226" on="0"/>
        <pt x="234" y="273" on="0"/>
        <pt x="318" y="298" on="0"/>
        <pt x="332" y="298" on="1"/>
        <pt x="332" y="320" on="1"/>
        <pt x="332" y="414" on="0"/>
        <pt x="254" y="414" on="1"/>
        <pt x="200" y="414" on="0"/>
        <pt x="107" y="368" on="0"/>
        <pt x="84" y="332" on="1"/>
        <pt x="64" y="350" on="1"/>
        <pt x="131" y="480" on="0"/>
        <pt x="296" y="480" on="1"/>
        <pt x="338" y="480" on="0"/>
        <pt x="393" y="435" on="0"/>
        <pt x="412" y="375" on="0"/>
        <pt x="412" y="338" on="1"/>
        <pt x="412" y="68" on="1"/>
        <pt x="412" y="55" on="0"/>
        <pt x="416" y="41" on="0"/>
        <pt x="437" y="28" on="0"/>
        <pt x="458" y="28" on="1"/>
        <pt x="476" y="28" on="1"/>
      </contour>
      <contour>
        <pt x="332" y="136" on="1"/>
        <pt x="332" y="258" on="1"/>
        <pt x="254" y="243" on="0"/>
        <pt x="120" y="153" on="0"/>
        <pt x="120" y="100" on="1"/>
        <pt x="120" y="79" on="0"/>
        <pt x="161" y="48" on="0"/>
        <pt x="222" y="48" on="0"/>
        <pt x="306" y="103" on="0"/>
      </contour>
    </TTGlyph>
    <TTGlyph name="acute" xMin="64" yMin="532" xMax="238" yMax="702">
      <contour>
        <pt x="238" y="660" on="1"/>
        <pt x="88" y="532" on="1"/>
        <pt x="64" y="548" on="1"/>
        <pt x="172" y="702" on="1"/>
      </contour>
    </TTGlyph>
    <TTGlyph name="acute.cap" xMin="69" yMin="736" xMax="267" yMax="876">
      <contour>
        <pt x="267" y="818" on="1"/>
        <pt x="88" y="736" on="1"/>
        <pt x="69" y="758" on="1"/>
        <pt x="215" y="876" on="1"/>
      </contour>
    </TTGlyph>
    <TTGlyph name="adieresis" xMin="40" yMin="-14" xMax="476" yMax="696">
      <contour>
        <pt x="181" y="696" on="0"/>
        <pt x="208" y="666" on="0"/>
        <pt x="208" y="619" on="0"/>
        <pt x="170" y="588" on="0"/>
        <pt x="124" y="588" on="0"/>
        <pt x="100" y="619" on="0"/>
        <pt x="100" y="663" on="0"/>
        <pt x="137" y="696" on="0"/>
      </contour>
      <contour>
        <pt x="385" y="696" on="0"/>
        <pt x="410" y="666" on="0"/>
        <pt x="410" y="619" on="0"/>
        <pt x="372" y="588" on="0"/>
        <pt x="327" y="588" on="0"/>
        <pt x="302" y="618" on="0"/>
        <pt x="302" y="663" on="0"/>
        <pt x="340" y="696" on="0"/>
      </contour>
      <contour>
        <pt x="476" y="0" on="1"/>
        <pt x="332" y="0" on="1"/>
        <pt x="332" y="80" on="1"/>
        <pt x="282" y="26" on="0"/>
        <pt x="216" y="-14" on="0"/>
        <pt x="103" y="-14" on="0"/>
        <pt x="40" y="39" on="0"/>
        <pt x="40" y="135" on="0"/>
        <pt x="123" y="226" on="0"/>
        <pt x="234" y="273" on="0"/>
        <pt x="318" y="298" on="0"/>
        <pt x="332" y="298" on="1"/>
        <pt x="332" y="320" on="1"/>
        <pt x="332" y="414" on="0"/>
        <pt x="254" y="414" on="1"/>
        <pt x="200" y="414" on="0"/>
        <pt x="107" y="368" on="0"/>
        <pt x="84" y="332" on="1"/>
        <pt x="64" y="350" on="1"/>
        <pt x="131" y="480" on="0"/>
        <pt x="296" y="480" on="1"/>
        <pt x="338" y="480" on="0"/>
        <pt x="393" y="435" on="0"/>
        <pt x="412" y="375" on="0"/>
        <pt x="412" y="338" on="1"/>
        <pt x="412" y="68" on="1"/>
        <pt x="412" y="55" on="0"/>
        <pt x="416" y="41" on="0"/>
        <pt x="437" y="28" on="0"/>
        <pt x="458" y="28" on="1"/>
        <pt x="476" y="28" on="1"/>
      </contour>
      <contour>
        <pt x="332" y="136" on="1"/>
        <pt x="332" y="258" on="1"/>
        <pt x="254" y="243" on="0"/>
        <pt x="120" y="153" on="0"/>
        <pt x="120" y="100" on="1"/>
        <pt x="120" y="79" on="0"/>
        <pt x="161" y="48" on="0"/>
        <pt x="222" y="48" on="0"/>
        <pt x="306" y="103" on="0"/>
      </contour>
    </TTGlyph>
    <TTGlyph name="ae" xMin="40" yMin="-14" xMax="756" yMax="480">
      <contour>
        <pt x="738" y="122" on="1"/>
        <pt x="756" y="104" on="1"/>
        <pt x="692" y="-14" on="0"/>
        <pt x="526" y="-14" on="1"/>
        <pt x="431" y="-14" on="0"/>
        <pt x="366" y="92" on="1"/>
        <pt x="308" y="20" on="0"/>
        <pt x="228" y="-14" on="0"/>
        <pt x="103" y="-14" on="0"/>
        <pt x="40" y="39" on="0"/>
        <pt x="40" y="135" on="0"/>
        <pt x="123" y="226" on="0"/>
        <pt x="234" y="273" on="0"/>
        <pt x="318" y="298" on="0"/>
        <pt x="332" y="298" on="1"/>
        <pt x="332" y="320" on="1"/>
        <pt x="332" y="414" on="0"/>
        <pt x="254" y="414" on="1"/>
        <pt x="200" y="414" on="0"/>
        <pt x="107" y="368" on="0"/>
        <pt x="84" y="332" on="1"/>
        <pt x="64" y="350" on="1"/>
        <pt x="131" y="480" on="0"/>
        <pt x="296" y="480" on="1"/>
        <pt x="384" y="480" on="0"/>
        <pt x="406" y="392" on="1"/>
        <pt x="481" y="480" on="0"/>
        <pt x="590" y="480" on="1"/>
        <pt x="663" y="480" on="0"/>
        <pt x="742" y="372" on="0"/>
        <pt x="742" y="314" on="1"/>
        <pt x="742" y="301" on="0"/>
        <pt x="734" y="268" on="0"/>
        <pt x="730" y="268" on="1"/>
        <pt x="414" y="258" on="1"/>
        <pt x="414" y="180" on="0"/>
        <pt x="511" y="48" on="0"/>
        <pt x="580" y="48" on="1"/>
        <pt x="631" y="48" on="0"/>
        <pt x="715" y="88" on="0"/>
      </contour>
      <contour>
        <pt x="332" y="120" on="1"/>
        <pt x="332" y="258" on="1"/>
        <pt x="254" y="243" on="0"/>
        <pt x="120" y="153" on="0"/>
        <pt x="120" y="100" on="1"/>
        <pt x="120" y="79" on="0"/>
        <pt x="161" y="48" on="0"/>
        <pt x="224" y="48" on="0"/>
        <pt x="309" y="91" on="0"/>
      </contour>
      <contour>
        <pt x="424" y="298" on="1"/>
        <pt x="654" y="308" on="1"/>
        <pt x="656" y="308" on="0"/>
        <pt x="656" y="326" on="1"/>
        <pt x="656" y="422" on="0"/>
        <pt x="552" y="422" on="1"/>
        <pt x="491" y="422" on="0"/>
        <pt x="424" y="356" on="0"/>
      </contour>
    </TTGlyph>
    <TTGlyph name="agrave" xMin="40" yMin="-14" xMax="476" yMax="702">
      <contour>
        <pt x="476" y="0" on="1"/>
        <pt x="332" y="0" on="1"/>
        <pt x="332" y="80" on="1"/>
        <pt x="282" y="26" on="0"/>
        <pt x="216" y="-14" on="0"/>
        <pt x="103" y="-14" on="0"/>
        <pt x="40" y="39" on="0"/>
        <pt x="40" y="135" on="0"/>
        <pt x="123" y="226" on="0"/>
        <pt x="234" y="273" on="0"/>
        <pt x="318" y="298" on="0"/>
        <pt x="332" y="298" on="1"/>
        <pt x="332" y="320" on="1"/>
        <pt x="332" y="414" on="0"/>
        <pt x="254" y="414" on="1"/>
        <pt x="200" y="414" on="0"/>
        <pt x="107" y="368" on="0"/>
        <pt x="84" y="332" on="1"/>
        <pt x="64" y="350" on="1"/>
        <pt x="131" y="480" on="0"/>
        <pt x="296" y="480" on="1"/>
        <pt x="338" y="480" on="0"/>
        <pt x="393" y="435" on="0"/>
        <pt x="412" y="375" on="0"/>
        <pt x="412" y="338" on="1"/>
        <pt x="412" y="68" on="1"/>
        <pt x="412" y="55" on="0"/>
        <pt x="416" y="41" on="0"/>
        <pt x="437" y="28" on="0"/>
        <pt x="458" y="28" on="1"/>
        <pt x="476" y="28" on="1"/>
      </contour>
      <contour>
        <pt x="332" y="136" on="1"/>
        <pt x="332" y="258" on="1"/>
        <pt x="254" y="243" on="0"/>
        <pt x="120" y="153" on="0"/>
        <pt x="120" y="100" on="1"/>
        <pt x="120" y="79" on="0"/>
        <pt x="161" y="48" on="0"/>
        <pt x="222" y="48" on="0"/>
        <pt x="306" y="103" on="0"/>
      </contour>
      <contour>
        <pt x="234" y="702" on="1"/>
        <pt x="340" y="548" on="1"/>
        <pt x="316" y="532" on="1"/>
        <pt x="168" y="660" on="1"/>
      </contour>
    </TTGlyph>
    <TTGlyph name="ampersand" xMin="36" yMin="-17" xMax="740" yMax="714">
      <contour>
        <pt x="714" y="368" on="1"/>
        <pt x="740" y="360" on="1"/>
        <pt x="721" y="315" on="0"/>
        <pt x="690" y="279" on="1"/>
        <pt x="634" y="210" on="0"/>
        <pt x="572" y="210" on="1"/>
        <pt x="562" y="210" on="0"/>
        <pt x="556" y="212" on="1"/>
        <pt x="554" y="151" on="0"/>
        <pt x="504" y="59" on="0"/>
        <pt x="464" y="34" on="1"/>
        <pt x="385" y="-16" on="0"/>
        <pt x="165" y="-16" on="0"/>
        <pt x="36" y="86" on="0"/>
        <pt x="36" y="255" on="0"/>
        <pt x="154" y="366" on="0"/>
        <pt x="228" y="378" on="1"/>
        <pt x="159" y="381" on="0"/>
        <pt x="82" y="458" on="0"/>
        <pt x="82" y="514" on="1"/>
        <pt x="82" y="606" on="0"/>
        <pt x="231" y="714" on="0"/>
        <pt x="437" y="714" on="0"/>
        <pt x="494" y="676" on="1"/>
        <pt x="482" y="560" on="1"/>
        <pt x="450" y="562" on="1"/>
        <pt x="450" y="654" on="0"/>
        <pt x="288" y="654" on="1"/>
        <pt x="152" y="654" on="0"/>
        <pt x="152" y="544" on="1"/>
        <pt x="152" y="491" on="0"/>
        <pt x="257" y="421" on="0"/>
        <pt x="352" y="418" on="1"/>
        <pt x="349" y="384" on="1"/>
        <pt x="338" y="380" on="0"/>
        <pt x="290" y="365" on="0"/>
        <pt x="264" y="356" on="0"/>
        <pt x="222" y="339" on="0"/>
        <pt x="199" y="323" on="0"/>
        <pt x="170" y="296" on="0"/>
        <pt x="162" y="281" on="1"/>
        <pt x="144" y="244" on="0"/>
        <pt x="144" y="199" on="1"/>
        <pt x="144" y="136" on="0"/>
        <pt x="240" y="44" on="0"/>
        <pt x="410" y="44" on="0"/>
        <pt x="518" y="122" on="0"/>
        <pt x="518" y="206" on="1"/>
        <pt x="518" y="234" on="0"/>
        <pt x="460" y="234" on="1"/>
        <pt x="422" y="234" on="0"/>
        <pt x="372" y="194" on="0"/>
        <pt x="344" y="148" on="1"/>
        <pt x="316" y="156" on="1"/>
        <pt x="391" y="306" on="0"/>
        <pt x="488" y="306" on="1"/>
        <pt x="517" y="306" on="0"/>
        <pt x="598" y="284" on="0"/>
        <pt x="610" y="284" on="1"/>
        <pt x="644" y="284" on="0"/>
        <pt x="690" y="324" on="0"/>
      </contour>
    </TTGlyph>
    <TTGlyph name="aring" xMin="40" yMin="-14" xMax="476" yMax="744">
      <contour>
        <pt x="324" y="608" on="0"/>
        <pt x="324" y="668" on="0"/>
        <pt x="285" y="706" on="0"/>
        <pt x="224" y="706" on="0"/>
        <pt x="188" y="668" on="0"/>
        <pt x="188" y="608" on="0"/>
        <pt x="224" y="572" on="0"/>
        <pt x="286" y="572" on="0"/>
      </contour>
      <contour>
        <pt x="299" y="744" on="0"/>
        <pt x="360" y="683" on="0"/>
        <pt x="360" y="594" on="0"/>
        <pt x="299" y="534" on="0"/>
        <pt x="210" y="534" on="0"/>
        <pt x="148" y="595" on="0"/>
        <pt x="148" y="683" on="0"/>
        <pt x="210" y="744" on="0"/>
      </contour>
      <contour>
        <pt x="476" y="0" on="1"/>
        <pt x="332" y="0" on="1"/>
        <pt x="332" y="80" on="1"/>
        <pt x="282" y="26" on="0"/>
        <pt x="216" y="-14" on="0"/>
        <pt x="103" y="-14" on="0"/>
        <pt x="40" y="39" on="0"/>
        <pt x="40" y="135" on="0"/>
        <pt x="123" y="226" on="0"/>
        <pt x="234" y="273" on="0"/>
        <pt x="318" y="298" on="0"/>
        <pt x="332" y="298" on="1"/>
        <pt x="332" y="320" on="1"/>
        <pt x="332" y="414" on="0"/>
        <pt x="254" y="414" on="1"/>
        <pt x="200" y="414" on="0"/>
        <pt x="107" y="368" on="0"/>
        <pt x="84" y="332" on="1"/>
        <pt x="64" y="350" on="1"/>
        <pt x="131" y="480" on="0"/>
        <pt x="296" y="480" on="1"/>
        <pt x="338" y="480" on="0"/>
        <pt x="393" y="435" on="0"/>
        <pt x="412" y="375" on="0"/>
        <pt x="412" y="338" on="1"/>
        <pt x="412" y="68" on="1"/>
        <pt x="412" y="55" on="0"/>
        <pt x="416" y="41" on="0"/>
        <pt x="437" y="28" on="0"/>
        <pt x="458" y="28" on="1"/>
        <pt x="476" y="28" on="1"/>
      </contour>
      <contour>
        <pt x="332" y="136" on="1"/>
        <pt x="332" y="258" on="1"/>
        <pt x="254" y="243" on="0"/>
        <pt x="120" y="153" on="0"/>
        <pt x="120" y="100" on="1"/>
        <pt x="120" y="79" on="0"/>
        <pt x="161" y="48" on="0"/>
        <pt x="222" y="48" on="0"/>
        <pt x="306" y="103" on="0"/>
      </contour>
    </TTGlyph>
    <TTGlyph name="asciicircum" xMin="178" yMin="262" xMax="650" yMax="642">
      <contour>
        <pt x="650" y="262" on="1"/>
        <pt x="586" y="262" on="1"/>
        <pt x="414" y="578" on="1"/>
        <pt x="242" y="262" on="1"/>
        <pt x="178" y="262" on="1"/>
        <pt x="384" y="642" on="1"/>
        <pt x="446" y="642" on="1"/>
      </contour>
    </TTGlyph>
    <TTGlyph name="asciitilde" xMin="50" yMin="192" xMax="452" yMax="312">
      <contour>
        <pt x="420" y="312" on="1"/>
        <pt x="452" y="284" on="1"/>
        <pt x="408" y="192" on="0"/>
        <pt x="340" y="192" on="1"/>
        <pt x="301" y="192" on="0"/>
        <pt x="228" y="239" on="1"/>
        <pt x="215" y="247" on="0"/>
        <pt x="207" y="251" on="0"/>
        <pt x="198" y="256" on="1"/>
        <pt x="182" y="264" on="0"/>
        <pt x="166" y="264" on="1"/>
        <pt x="120" y="264" on="0"/>
        <pt x="84" y="192" on="1"/>
        <pt x="50" y="220" on="1"/>
        <pt x="70" y="263" on="0"/>
        <pt x="133" y="312" on="0"/>
        <pt x="170" y="312" on="1"/>
        <pt x="196" y="312" on="0"/>
        <pt x="214" y="304" on="1"/>
        <pt x="244" y="289" on="0"/>
        <pt x="266" y="275" on="0"/>
        <pt x="280" y="266" on="0"/>
        <pt x="284" y="263" on="0"/>
        <pt x="296" y="256" on="0"/>
        <pt x="299" y="254" on="1"/>
        <pt x="312" y="248" on="0"/>
        <pt x="319" y="246" on="0"/>
        <pt x="324" y="244" on="1"/>
        <pt x="332" y="242" on="0"/>
        <pt x="342" y="242" on="1"/>
        <pt x="385" y="242" on="0"/>
      </contour>
    </TTGlyph>
    <TTGlyph name="asterisk" xMin="20" yMin="320" xMax="344" yMax="666">
      <contour>
        <pt x="250" y="330" on="1"/>
        <pt x="228" y="320" on="1"/>
        <pt x="158" y="452" on="1"/>
        <pt x="36" y="374" on="1"/>
        <pt x="22" y="396" on="1"/>
        <pt x="126" y="490" on="1"/>
        <pt x="20" y="592" on="1"/>
        <pt x="36" y="610" on="1"/>
        <pt x="156" y="530" on="1"/>
        <pt x="214" y="666" on="1"/>
        <pt x="236" y="658" on="1"/>
        <pt x="208" y="520" on="1"/>
        <pt x="342" y="516" on="1"/>
        <pt x="344" y="494" on="1"/>
        <pt x="212" y="470" on="1"/>
      </contour>
    </TTGlyph>
    <TTGlyph name="at" xMin="36" yMin="-208" xMax="860" yMax="676">
      <contour>
        <pt x="676" y="-66" on="1"/>
        <pt x="670" y="-102" on="1"/>
        <pt x="561" y="-208" on="0"/>
        <pt x="229" y="-208" on="0"/>
        <pt x="36" y="-29" on="0"/>
        <pt x="36" y="152" on="1"/>
        <pt x="36" y="253" on="0"/>
        <pt x="100" y="440" on="0"/>
        <pt x="215" y="587" on="0"/>
        <pt x="393" y="676" on="0"/>
        <pt x="500" y="676" on="1"/>
        <pt x="665" y="676" on="0"/>
        <pt x="860" y="491" on="0"/>
        <pt x="860" y="326" on="1"/>
        <pt x="860" y="195" on="0"/>
        <pt x="708" y="2" on="0"/>
        <pt x="612" y="2" on="1"/>
        <pt x="569" y="2" on="0"/>
        <pt x="548" y="42" on="1"/>
        <pt x="543" y="52" on="0"/>
        <pt x="531" y="153" on="0"/>
        <pt x="530" y="160" on="1"/>
        <pt x="490" y="98" on="0"/>
        <pt x="380" y="2" on="0"/>
        <pt x="286" y="2" on="0"/>
        <pt x="250" y="61" on="0"/>
        <pt x="250" y="114" on="1"/>
        <pt x="250" y="245" on="0"/>
        <pt x="431" y="464" on="0"/>
        <pt x="522" y="464" on="1"/>
        <pt x="551" y="464" on="0"/>
        <pt x="562" y="456" on="1"/>
        <pt x="568" y="480" on="1"/>
        <pt x="640" y="510" on="1"/>
        <pt x="617" y="421" on="0"/>
        <pt x="598" y="287" on="0"/>
        <pt x="590" y="178" on="1"/>
        <pt x="590" y="126" on="0"/>
        <pt x="635" y="62" on="0"/>
        <pt x="668" y="62" on="1"/>
        <pt x="715" y="62" on="0"/>
        <pt x="812" y="179" on="0"/>
        <pt x="812" y="274" on="1"/>
        <pt x="812" y="437" on="0"/>
        <pt x="617" y="632" on="0"/>
        <pt x="480" y="632" on="1"/>
        <pt x="318" y="632" on="0"/>
        <pt x="120" y="377" on="0"/>
        <pt x="120" y="190" on="1"/>
        <pt x="120" y="27" on="0"/>
        <pt x="294" y="-152" on="0"/>
        <pt x="587" y="-152" on="0"/>
      </contour>
      <contour>
        <pt x="528" y="238" on="1"/>
        <pt x="552" y="388" on="1"/>
        <pt x="530" y="410" on="0"/>
        <pt x="488" y="410" on="1"/>
        <pt x="420" y="410" on="0"/>
        <pt x="326" y="249" on="0"/>
        <pt x="326" y="58" on="0"/>
        <pt x="370" y="58" on="1"/>
        <pt x="402" y="58" on="0"/>
        <pt x="436" y="92" on="1"/>
        <pt x="497" y="151" on="0"/>
      </contour>
    </TTGlyph>
    <TTGlyph name="atilde" xMin="40" yMin="-14" xMax="476" yMax="682">
      <contour>
        <pt x="398" y="662" on="1"/>
        <pt x="412" y="646" on="1"/>
        <pt x="344" y="568" on="0"/>
        <pt x="282" y="568" on="1"/>
        <pt x="265" y="568" on="0"/>
        <pt x="201" y="632" on="0"/>
        <pt x="156" y="632" on="0"/>
        <pt x="112" y="588" on="1"/>
        <pt x="98" y="602" on="1"/>
        <pt x="173" y="682" on="0"/>
        <pt x="228" y="682" on="1"/>
        <pt x="247" y="682" on="0"/>
        <pt x="312" y="616" on="0"/>
        <pt x="360" y="616" on="0"/>
      </contour>
      <contour>
        <pt x="476" y="0" on="1"/>
        <pt x="332" y="0" on="1"/>
        <pt x="332" y="80" on="1"/>
        <pt x="282" y="26" on="0"/>
        <pt x="216" y="-14" on="0"/>
        <pt x="103" y="-14" on="0"/>
        <pt x="40" y="39" on="0"/>
        <pt x="40" y="135" on="0"/>
        <pt x="123" y="226" on="0"/>
        <pt x="234" y="273" on="0"/>
        <pt x="318" y="298" on="0"/>
        <pt x="332" y="298" on="1"/>
        <pt x="332" y="320" on="1"/>
        <pt x="332" y="414" on="0"/>
        <pt x="254" y="414" on="1"/>
        <pt x="200" y="414" on="0"/>
        <pt x="107" y="368" on="0"/>
        <pt x="84" y="332" on="1"/>
        <pt x="64" y="350" on="1"/>
        <pt x="131" y="480" on="0"/>
        <pt x="296" y="480" on="1"/>
        <pt x="338" y="480" on="0"/>
        <pt x="393" y="435" on="0"/>
        <pt x="412" y="375" on="0"/>
        <pt x="412" y="338" on="1"/>
        <pt x="412" y="68" on="1"/>
        <pt x="412" y="55" on="0"/>
        <pt x="416" y="41" on="0"/>
        <pt x="437" y="28" on="0"/>
        <pt x="458" y="28" on="1"/>
        <pt x="476" y="28" on="1"/>
      </contour>
      <contour>
        <pt x="332" y="136" on="1"/>
        <pt x="332" y="258" on="1"/>
        <pt x="254" y="243" on="0"/>
        <pt x="120" y="153" on="0"/>
        <pt x="120" y="100" on="1"/>
        <pt x="120" y="79" on="0"/>
        <pt x="161" y="48" on="0"/>
        <pt x="222" y="48" on="0"/>
        <pt x="306" y="103" on="0"/>
      </contour>
    </TTGlyph>
    <TTGlyph name="b" xMin="30" yMin="-14" xMax="504" yMax="762">
      <contour>
        <pt x="88" y="48" on="1"/>
        <pt x="88" y="660" on="1"/>
        <pt x="88" y="679" on="0"/>
        <pt x="63" y="696" on="0"/>
        <pt x="30" y="696" on="1"/>
        <pt x="30" y="724" on="1"/>
        <pt x="52" y="724" on="0"/>
        <pt x="133" y="746" on="0"/>
        <pt x="152" y="758" on="1"/>
        <pt x="170" y="762" on="1"/>
        <pt x="170" y="348" on="1"/>
        <pt x="190" y="406" on="0"/>
        <pt x="284" y="480" on="0"/>
        <pt x="423" y="480" on="0"/>
        <pt x="504" y="389" on="0"/>
        <pt x="504" y="312" on="1"/>
        <pt x="504" y="171" on="0"/>
        <pt x="356" y="-14" on="0"/>
        <pt x="248" y="-14" on="1"/>
        <pt x="210" y="-14" on="0"/>
        <pt x="111" y="32" on="0"/>
      </contour>
      <contour>
        <pt x="170" y="268" on="1"/>
        <pt x="170" y="90" on="1"/>
        <pt x="179" y="72" on="0"/>
        <pt x="198" y="57" on="1"/>
        <pt x="234" y="30" on="0"/>
        <pt x="266" y="30" on="1"/>
        <pt x="338" y="30" on="0"/>
        <pt x="436" y="169" on="0"/>
        <pt x="436" y="274" on="1"/>
        <pt x="436" y="334" on="0"/>
        <pt x="365" y="412" on="0"/>
        <pt x="256" y="412" on="0"/>
        <pt x="170" y="291" on="0"/>
      </contour>
    </TTGlyph>
    <TTGlyph name="backslash" xMin="40" yMin="-234" xMax="332" yMax="746">
      <contour>
        <pt x="86" y="746" on="1"/>
        <pt x="332" y="-234" on="1"/>
        <pt x="282" y="-234" on="1"/>
        <pt x="40" y="746" on="1"/>
      </contour>
    </TTGlyph>
    <TTGlyph name="bar" xMin="160" yMin="-248" xMax="206" yMax="772">
      <contour>
        <pt x="206" y="-248" on="1"/>
        <pt x="160" y="-248" on="1"/>
        <pt x="160" y="772" on="1"/>
        <pt x="206" y="772" on="1"/>
      </contour>
    </TTGlyph>
    <TTGlyph name="braceleft" xMin="70" yMin="-198" xMax="322" yMax="760">
      <contour>
        <pt x="212" y="122" on="1"/>
        <pt x="212" y="72" on="1"/>
        <pt x="212" y="-72" on="0"/>
        <pt x="268" y="-128" on="1"/>
        <pt x="285" y="-145" on="0"/>
        <pt x="306" y="-157" on="0"/>
        <pt x="322" y="-164" on="1"/>
        <pt x="306" y="-198" on="1"/>
        <pt x="245" y="-198" on="0"/>
        <pt x="166" y="-105" on="0"/>
        <pt x="136" y="35" on="0"/>
        <pt x="136" y="128" on="1"/>
        <pt x="144" y="248" on="1"/>
        <pt x="144" y="278" on="0"/>
        <pt x="111" y="299" on="0"/>
        <pt x="70" y="304" on="1"/>
        <pt x="70" y="336" on="1"/>
        <pt x="109" y="337" on="0"/>
        <pt x="152" y="396" on="0"/>
        <pt x="152" y="426" on="1"/>
        <pt x="146" y="544" on="1"/>
        <pt x="146" y="685" on="0"/>
        <pt x="216" y="726" on="1"/>
        <pt x="248" y="744" on="0"/>
        <pt x="310" y="760" on="1"/>
        <pt x="322" y="740" on="1"/>
        <pt x="310" y="736" on="1"/>
        <pt x="270" y="725" on="0"/>
        <pt x="248" y="706" on="0"/>
        <pt x="227" y="685" on="0"/>
        <pt x="222" y="673" on="1"/>
        <pt x="208" y="644" on="0"/>
        <pt x="208" y="606" on="1"/>
        <pt x="208" y="606" on="0"/>
        <pt x="211" y="477" on="1"/>
        <pt x="211" y="422" on="0"/>
        <pt x="188" y="356" on="0"/>
        <pt x="154" y="324" on="1"/>
        <pt x="193" y="291" on="0"/>
        <pt x="212" y="217" on="0"/>
      </contour>
    </TTGlyph>
    <TTGlyph name="braceright" xMin="41" yMin="-198" xMax="293" yMax="760">
      <contour>
        <pt x="219" y="248" on="1"/>
        <pt x="227" y="128" on="1"/>
        <pt x="227" y="35" on="0"/>
        <pt x="197" y="-105" on="0"/>
        <pt x="118" y="-198" on="0"/>
        <pt x="57" y="-198" on="1"/>
        <pt x="41" y="-164" on="1"/>
        <pt x="57" y="-157" on="0"/>
        <pt x="78" y="-145" on="0"/>
        <pt x="113" y="-110" on="0"/>
        <pt x="124" y="-87" on="1"/>
        <pt x="151" y="-27" on="0"/>
        <pt x="151" y="72" on="1"/>
        <pt x="151" y="122" on="1"/>
        <pt x="151" y="188" on="0"/>
        <pt x="154" y="219" on="1"/>
        <pt x="160" y="283" on="0"/>
        <pt x="209" y="324" on="1"/>
        <pt x="165" y="366" on="0"/>
        <pt x="156" y="416" on="1"/>
        <pt x="152" y="440" on="0"/>
        <pt x="152" y="477" on="1"/>
        <pt x="155" y="606" on="1"/>
        <pt x="155" y="666" on="0"/>
        <pt x="126" y="696" on="1"/>
        <pt x="98" y="723" on="0"/>
        <pt x="70" y="732" on="1"/>
        <pt x="65" y="733" on="0"/>
        <pt x="53" y="736" on="1"/>
        <pt x="41" y="740" on="1"/>
        <pt x="53" y="760" on="1"/>
        <pt x="115" y="744" on="0"/>
        <pt x="147" y="726" on="1"/>
        <pt x="217" y="685" on="0"/>
        <pt x="217" y="544" on="1"/>
        <pt x="211" y="426" on="1"/>
        <pt x="211" y="396" on="0"/>
        <pt x="254" y="337" on="0"/>
        <pt x="293" y="336" on="1"/>
        <pt x="293" y="304" on="1"/>
        <pt x="252" y="299" on="0"/>
        <pt x="219" y="278" on="0"/>
      </contour>
    </TTGlyph>
    <TTGlyph name="bracketleft" xMin="70" yMin="-198" xMax="274" yMax="760">
      <contour>
        <pt x="274" y="-198" on="1"/>
        <pt x="70" y="-198" on="1"/>
        <pt x="70" y="760" on="1"/>
        <pt x="270" y="760" on="1"/>
        <pt x="266" y="740" on="1"/>
        <pt x="142" y="725" on="0"/>
        <pt x="117" y="713" on="1"/>
        <pt x="144" y="-154" on="1"/>
        <pt x="168" y="-166" on="0"/>
        <pt x="270" y="-178" on="1"/>
      </contour>
    </TTGlyph>
    <TTGlyph name="bracketright" xMin="50" yMin="-198" xMax="254" yMax="760">
      <contour>
        <pt x="254" y="-198" on="1"/>
        <pt x="50" y="-198" on="1"/>
        <pt x="54" y="-178" on="1"/>
        <pt x="156" y="-166" on="0"/>
        <pt x="180" y="-154" on="1"/>
        <pt x="207" y="713" on="1"/>
        <pt x="182" y="725" on="0"/>
        <pt x="58" y="740" on="1"/>
        <pt x="54" y="760" on="1"/>
        <pt x="254" y="760" on="1"/>
      </contour>
    </TTGlyph>
    <TTGlyph name="brokenbar" xMin="160" yMin="-188" xMax="208" yMax="680">
      <contour>
        <pt x="208" y="172" on="1"/>
        <pt x="208" y="-188" on="1"/>
        <pt x="160" y="-188" on="1"/>
        <pt x="160" y="172" on="1"/>
      </contour>
      <contour>
        <pt x="208" y="680" on="1"/>
        <pt x="208" y="320" on="1"/>
        <pt x="160" y="320" on="1"/>
        <pt x="160" y="680" on="1"/>
      </contour>
    </TTGlyph>
    <TTGlyph name="bullet" xMin="80" yMin="204" xMax="340" yMax="466">
      <contour>
        <pt x="269" y="466" on="0"/>
        <pt x="340" y="391" on="0"/>
        <pt x="340" y="282" on="0"/>
        <pt x="258" y="204" on="0"/>
        <pt x="148" y="204" on="0"/>
        <pt x="80" y="281" on="0"/>
        <pt x="80" y="389" on="0"/>
        <pt x="161" y="466" on="0"/>
      </contour>
    </TTGlyph>
    <TTGlyph name="c" xMin="28" yMin="-14" xMax="444" yMax="480">
      <contour>
        <pt x="426" y="122" on="1"/>
        <pt x="444" y="104" on="1"/>
        <pt x="380" y="-14" on="0"/>
        <pt x="214" y="-14" on="1"/>
        <pt x="137" y="-14" on="0"/>
        <pt x="28" y="122" on="0"/>
        <pt x="28" y="206" on="1"/>
        <pt x="28" y="260" on="0"/>
        <pt x="81" y="369" on="0"/>
        <pt x="138" y="434" on="0"/>
        <pt x="237" y="480" on="0"/>
        <pt x="347" y="480" on="0"/>
        <pt x="406" y="458" on="1"/>
        <pt x="400" y="366" on="1"/>
        <pt x="370" y="366" on="1"/>
        <pt x="370" y="392" on="0"/>
        <pt x="305" y="426" on="0"/>
        <pt x="225" y="426" on="0"/>
        <pt x="161" y="401" on="0"/>
        <pt x="128" y="365" on="0"/>
        <pt x="118" y="340" on="1"/>
        <pt x="102" y="303" on="0"/>
        <pt x="102" y="258" on="1"/>
        <pt x="102" y="180" on="0"/>
        <pt x="200" y="48" on="0"/>
        <pt x="270" y="48" on="1"/>
        <pt x="320" y="48" on="0"/>
        <pt x="405" y="89" on="0"/>
      </contour>
    </TTGlyph>
    <TTGlyph name="caron" xMin="24" yMin="526" xMax="250" yMax="706">
      <contour>
        <pt x="250" y="692" on="1"/>
        <pt x="166" y="526" on="1"/>
        <pt x="108" y="526" on="1"/>
        <pt x="24" y="692" on="1"/>
        <pt x="50" y="706" on="1"/>
        <pt x="136" y="606" on="1"/>
        <pt x="224" y="706" on="1"/>
      </contour>
    </TTGlyph>
    <TTGlyph name="caron.cap" xMin="24" yMin="526" xMax="250" yMax="706">
      <contour>
        <pt x="250" y="692" on="1"/>
        <pt x="166" y="526" on="1"/>
        <pt x="108" y="526" on="1"/>
        <pt x="24" y="692" on="1"/>
        <pt x="50" y="706" on="1"/>
        <pt x="136" y="606" on="1"/>
        <pt x="224" y="706" on="1"/>
      </contour>
    </TTGlyph>
    <TTGlyph name="ccedilla" xMin="28" yMin="-214" xMax="444" yMax="480">
      <contour>
        <pt x="171" y="-188" on="0"/>
        <pt x="249" y="-188" on="0"/>
        <pt x="267" y="-163" on="1"/>
        <pt x="277" y="-149" on="0"/>
        <pt x="277" y="-128" on="1"/>
        <pt x="277" y="-92" on="0"/>
        <pt x="224" y="-92" on="1"/>
        <pt x="196" y="-92" on="0"/>
        <pt x="174" y="-108" on="1"/>
        <pt x="166" y="-100" on="1"/>
        <pt x="186" y="-12" on="1"/>
        <pt x="119" y="0" on="0"/>
        <pt x="28" y="129" on="0"/>
        <pt x="28" y="206" on="1"/>
        <pt x="28" y="260" on="0"/>
        <pt x="81" y="369" on="0"/>
        <pt x="138" y="434" on="0"/>
        <pt x="237" y="480" on="0"/>
        <pt x="347" y="480" on="0"/>
        <pt x="406" y="458" on="1"/>
        <pt x="400" y="366" on="1"/>
        <pt x="370" y="366" on="1"/>
        <pt x="370" y="392" on="0"/>
        <pt x="305" y="426" on="0"/>
        <pt x="225" y="426" on="0"/>
        <pt x="161" y="401" on="0"/>
        <pt x="128" y="365" on="0"/>
        <pt x="118" y="340" on="1"/>
        <pt x="102" y="303" on="0"/>
        <pt x="102" y="258" on="1"/>
        <pt x="102" y="180" on="0"/>
        <pt x="200" y="48" on="0"/>
        <pt x="270" y="48" on="1"/>
        <pt x="320" y="48" on="0"/>
        <pt x="405" y="89" on="0"/>
        <pt x="426" y="122" on="1"/>
        <pt x="444" y="104" on="1"/>
        <pt x="382" y="-11" on="0"/>
        <pt x="220" y="-14" on="1"/>
        <pt x="206" y="-70" on="1"/>
        <pt x="233" y="-52" on="0"/>
        <pt x="298" y="-52" on="0"/>
        <pt x="330" y="-85" on="0"/>
        <pt x="330" y="-108" on="1"/>
        <pt x="330" y="-150" on="0"/>
        <pt x="253" y="-214" on="0"/>
        <pt x="168" y="-214" on="0"/>
        <pt x="140" y="-180" on="1"/>
        <pt x="154" y="-162" on="1"/>
      </contour>
    </TTGlyph>
    <TTGlyph name="cedilla" xMin="296" yMin="-214" xMax="488" yMax="0">
      <contour>
        <pt x="310" y="-162" on="1"/>
        <pt x="327" y="-188" on="0"/>
        <pt x="394" y="-188" on="0"/>
        <pt x="434" y="-160" on="0"/>
        <pt x="434" y="-131" on="1"/>
        <pt x="434" y="-92" on="0"/>
        <pt x="382" y="-92" on="1"/>
        <pt x="354" y="-92" on="0"/>
        <pt x="332" y="-108" on="1"/>
        <pt x="324" y="-100" on="1"/>
        <pt x="346" y="0" on="1"/>
        <pt x="382" y="0" on="1"/>
        <pt x="362" y="-70" on="1"/>
        <pt x="389" y="-52" on="0"/>
        <pt x="454" y="-52" on="0"/>
        <pt x="488" y="-85" on="0"/>
        <pt x="488" y="-108" on="1"/>
        <pt x="488" y="-150" on="0"/>
        <pt x="409" y="-214" on="0"/>
        <pt x="324" y="-214" on="0"/>
        <pt x="296" y="-180" on="1"/>
      </contour>
    </TTGlyph>
    <TTGlyph name="cent" xMin="38" yMin="-14" xMax="456" yMax="718">
      <contour>
        <pt x="236" y="-14" on="1"/>
        <pt x="184" y="-14" on="1"/>
        <pt x="208" y="126" on="1"/>
        <pt x="136" y="135" on="0"/>
        <pt x="38" y="267" on="0"/>
        <pt x="38" y="346" on="1"/>
        <pt x="38" y="398" on="0"/>
        <pt x="87" y="503" on="0"/>
        <pt x="140" y="567" on="0"/>
        <pt x="231" y="616" on="0"/>
        <pt x="288" y="620" on="1"/>
        <pt x="306" y="718" on="1"/>
        <pt x="352" y="718" on="1"/>
        <pt x="336" y="618" on="1"/>
        <pt x="368" y="613" on="0"/>
        <pt x="418" y="598" on="1"/>
        <pt x="410" y="506" on="1"/>
        <pt x="382" y="506" on="1"/>
        <pt x="382" y="539" on="0"/>
        <pt x="326" y="558" on="1"/>
        <pt x="268" y="188" on="1"/>
        <pt x="280" y="188" on="1"/>
        <pt x="331" y="188" on="0"/>
        <pt x="415" y="228" on="0"/>
        <pt x="438" y="262" on="1"/>
        <pt x="456" y="244" on="1"/>
        <pt x="400" y="137" on="0"/>
        <pt x="258" y="126" on="1"/>
      </contour>
      <contour>
        <pt x="220" y="204" on="1"/>
        <pt x="280" y="566" on="1"/>
        <pt x="278" y="566" on="1"/>
        <pt x="235" y="566" on="0"/>
        <pt x="172" y="541" on="0"/>
        <pt x="139" y="505" on="0"/>
        <pt x="129" y="480" on="1"/>
        <pt x="114" y="442" on="0"/>
        <pt x="114" y="338" on="0"/>
        <pt x="173" y="228" on="0"/>
      </contour>
    </TTGlyph>
    <TTGlyph name="circumflex" xMin="24" yMin="526" xMax="250" yMax="706">
      <contour>
        <pt x="250" y="538" on="1"/>
        <pt x="224" y="526" on="1"/>
        <pt x="136" y="624" on="1"/>
        <pt x="50" y="526" on="1"/>
        <pt x="24" y="538" on="1"/>
        <pt x="108" y="706" on="1"/>
        <pt x="166" y="706" on="1"/>
      </contour>
    </TTGlyph>
    <TTGlyph name="circumflex.cap" xMin="24" yMin="526" xMax="250" yMax="706">
      <contour>
        <pt x="250" y="538" on="1"/>
        <pt x="224" y="526" on="1"/>
        <pt x="136" y="624" on="1"/>
        <pt x="50" y="526" on="1"/>
        <pt x="24" y="538" on="1"/>
        <pt x="108" y="706" on="1"/>
        <pt x="166" y="706" on="1"/>
      </contour>
    </TTGlyph>
    <TTGlyph name="colon" xMin="92" yMin="-14" xMax="200" yMax="420">
      <contour>
        <pt x="173" y="420" on="0"/>
        <pt x="200" y="388" on="0"/>
        <pt x="200" y="342" on="0"/>
        <pt x="161" y="310" on="0"/>
        <pt x="116" y="310" on="0"/>
        <pt x="92" y="342" on="0"/>
        <pt x="92" y="386" on="0"/>
        <pt x="129" y="420" on="0"/>
      </contour>
      <contour>
        <pt x="173" y="94" on="0"/>
        <pt x="200" y="64" on="0"/>
        <pt x="200" y="17" on="0"/>
        <pt x="162" y="-14" on="0"/>
        <pt x="116" y="-14" on="0"/>
        <pt x="92" y="17" on="0"/>
        <pt x="92" y="61" on="0"/>
        <pt x="129" y="94" on="0"/>
      </contour>
    </TTGlyph>
    <TTGlyph name="comma" xMin="62" yMin="-144" xMax="192" yMax="94">
      <contour>
        <pt x="78" y="-144" on="1"/>
        <pt x="62" y="-124" on="1"/>
        <pt x="117" y="-82" on="0"/>
        <pt x="130" y="-14" on="1"/>
        <pt x="109" y="-14" on="0"/>
        <pt x="84" y="13" on="0"/>
        <pt x="84" y="60" on="0"/>
        <pt x="122" y="94" on="0"/>
        <pt x="168" y="94" on="0"/>
        <pt x="192" y="68" on="0"/>
        <pt x="192" y="48" on="1"/>
        <pt x="192" y="2" on="0"/>
        <pt x="143" y="-87" on="0"/>
        <pt x="100" y="-128" on="0"/>
      </contour>
    </TTGlyph>
    <TTGlyph name="commaaccent" xMin="60" yMin="90" xMax="190" yMax="328">
      <contour>
        <pt x="76" y="90" on="1"/>
        <pt x="60" y="110" on="1"/>
        <pt x="113" y="155" on="0"/>
        <pt x="126" y="220" on="1"/>
        <pt x="105" y="220" on="0"/>
        <pt x="82" y="247" on="0"/>
        <pt x="82" y="294" on="0"/>
        <pt x="121" y="328" on="0"/>
        <pt x="144" y="328" on="1"/>
        <pt x="190" y="328" on="0"/>
        <pt x="190" y="282" on="1"/>
        <pt x="190" y="178" on="0"/>
      </contour>
    </TTGlyph>
    <TTGlyph name="copyright" xMin="36" yMin="-12" xMax="770" yMax="720">
      <contour>
        <pt x="770" y="507" on="0"/>
        <pt x="770" y="201" on="0"/>
        <pt x="556" y="-12" on="0"/>
        <pt x="249" y="-12" on="0"/>
        <pt x="36" y="201" on="0"/>
        <pt x="36" y="507" on="0"/>
        <pt x="249" y="720" on="0"/>
        <pt x="556" y="720" on="0"/>
      </contour>
      <contour>
        <pt x="562" y="258" on="1"/>
        <pt x="582" y="244" on="1"/>
        <pt x="491" y="138" on="0"/>
        <pt x="386" y="138" on="1"/>
        <pt x="319" y="138" on="0"/>
        <pt x="212" y="257" on="0"/>
        <pt x="212" y="332" on="1"/>
        <pt x="212" y="427" on="0"/>
        <pt x="356" y="572" on="0"/>
        <pt x="450" y="572" on="1"/>
        <pt x="486" y="572" on="0"/>
        <pt x="546" y="552" on="1"/>
        <pt x="538" y="466" on="1"/>
        <pt x="518" y="466" on="1"/>
        <pt x="518" y="520" on="0"/>
        <pt x="424" y="520" on="1"/>
        <pt x="358" y="520" on="0"/>
        <pt x="260" y="442" on="0"/>
        <pt x="260" y="374" on="1"/>
        <pt x="260" y="325" on="0"/>
        <pt x="296" y="250" on="0"/>
        <pt x="323" y="230" on="1"/>
        <pt x="377" y="190" on="0"/>
        <pt x="426" y="190" on="1"/>
        <pt x="509" y="190" on="0"/>
      </contour>
      <contour>
        <pt x="532" y="34" on="0"/>
        <pt x="720" y="220" on="0"/>
        <pt x="720" y="485" on="0"/>
        <pt x="533" y="670" on="0"/>
        <pt x="270" y="670" on="0"/>
        <pt x="84" y="483" on="0"/>
        <pt x="84" y="221" on="0"/>
        <pt x="270" y="34" on="0"/>
      </contour>
    </TTGlyph>
    <TTGlyph name="currency" xMin="172" yMin="110" xMax="658" yMax="596">
      <contour>
        <pt x="296" y="295" on="0"/>
        <pt x="360" y="214" on="0"/>
        <pt x="472" y="214" on="0"/>
        <pt x="538" y="289" on="0"/>
        <pt x="538" y="407" on="0"/>
        <pt x="469" y="486" on="0"/>
        <pt x="355" y="486" on="0"/>
        <pt x="296" y="411" on="0"/>
      </contour>
      <contour>
        <pt x="626" y="110" on="1"/>
        <pt x="522" y="204" on="1"/>
        <pt x="476" y="170" on="0"/>
        <pt x="343" y="170" on="0"/>
        <pt x="302" y="208" on="1"/>
        <pt x="204" y="110" on="1"/>
        <pt x="172" y="142" on="1"/>
        <pt x="270" y="238" on="1"/>
        <pt x="234" y="284" on="0"/>
        <pt x="234" y="417" on="0"/>
        <pt x="276" y="462" on="1"/>
        <pt x="172" y="562" on="1"/>
        <pt x="206" y="596" on="1"/>
        <pt x="312" y="496" on="1"/>
        <pt x="352" y="530" on="0"/>
        <pt x="485" y="530" on="0"/>
        <pt x="524" y="498" on="1"/>
        <pt x="628" y="594" on="1"/>
        <pt x="658" y="562" on="1"/>
        <pt x="558" y="466" on="1"/>
        <pt x="575" y="449" on="0"/>
        <pt x="602" y="385" on="0"/>
        <pt x="602" y="356" on="1"/>
        <pt x="602" y="284" on="0"/>
        <pt x="560" y="232" on="1"/>
        <pt x="658" y="144" on="1"/>
      </contour>
    </TTGlyph>
    <TTGlyph name="d" xMin="28" yMin="-14" xMax="506" yMax="762">
      <contour>
        <pt x="506" y="0" on="1"/>
        <pt x="362" y="0" on="1"/>
        <pt x="362" y="116" on="1"/>
        <pt x="341" y="59" on="0"/>
        <pt x="247" y="-14" on="0"/>
        <pt x="108" y="-14" on="0"/>
        <pt x="28" y="76" on="0"/>
        <pt x="28" y="152" on="1"/>
        <pt x="28" y="293" on="0"/>
        <pt x="175" y="480" on="0"/>
        <pt x="282" y="480" on="1"/>
        <pt x="306" y="480" on="0"/>
        <pt x="362" y="460" on="1"/>
        <pt x="362" y="660" on="1"/>
        <pt x="362" y="679" on="0"/>
        <pt x="336" y="696" on="0"/>
        <pt x="304" y="696" on="1"/>
        <pt x="304" y="724" on="1"/>
        <pt x="325" y="724" on="0"/>
        <pt x="407" y="746" on="0"/>
        <pt x="424" y="758" on="1"/>
        <pt x="442" y="762" on="1"/>
        <pt x="442" y="68" on="1"/>
        <pt x="442" y="49" on="0"/>
        <pt x="457" y="32" on="0"/>
        <pt x="486" y="32" on="1"/>
        <pt x="506" y="32" on="1"/>
      </contour>
      <contour>
        <pt x="362" y="198" on="1"/>
        <pt x="362" y="376" on="1"/>
        <pt x="358" y="382" on="0"/>
        <pt x="342" y="402" on="0"/>
        <pt x="291" y="434" on="0"/>
        <pt x="264" y="434" on="1"/>
        <pt x="191" y="434" on="0"/>
        <pt x="94" y="296" on="0"/>
        <pt x="94" y="190" on="1"/>
        <pt x="94" y="131" on="0"/>
        <pt x="165" y="54" on="0"/>
        <pt x="276" y="54" on="0"/>
        <pt x="362" y="175" on="0"/>
      </contour>
    </TTGlyph>
    <TTGlyph name="degree" xMin="42" yMin="412" xMax="352" yMax="720">
      <contour>
        <pt x="96" y="521" on="0"/>
        <pt x="152" y="464" on="0"/>
        <pt x="241" y="464" on="0"/>
        <pt x="298" y="521" on="0"/>
        <pt x="298" y="610" on="0"/>
        <pt x="241" y="668" on="0"/>
        <pt x="153" y="668" on="0"/>
        <pt x="96" y="609" on="0"/>
      </contour>
      <contour>
        <pt x="352" y="631" on="0"/>
        <pt x="352" y="501" on="0"/>
        <pt x="262" y="412" on="0"/>
        <pt x="132" y="412" on="0"/>
        <pt x="42" y="502" on="0"/>
        <pt x="42" y="630" on="0"/>
        <pt x="132" y="720" on="0"/>
        <pt x="262" y="720" on="0"/>
      </contour>
    </TTGlyph>
    <TTGlyph name="dieresis" xMin="82" yMin="588" xMax="394" yMax="696">
      <contour>
        <pt x="165" y="696" on="0"/>
        <pt x="190" y="666" on="0"/>
        <pt x="190" y="619" on="0"/>
        <pt x="152" y="588" on="0"/>
        <pt x="107" y="588" on="0"/>
        <pt x="82" y="618" on="0"/>
        <pt x="82" y="663" on="0"/>
        <pt x="120" y="696" on="0"/>
      </contour>
      <contour>
        <pt x="367" y="696" on="0"/>
        <pt x="394" y="666" on="0"/>
        <pt x="394" y="619" on="0"/>
        <pt x="356" y="588" on="0"/>
        <pt x="310" y="588" on="0"/>
        <pt x="286" y="619" on="0"/>
        <pt x="286" y="663" on="0"/>
        <pt x="323" y="696" on="0"/>
      </contour>
    </TTGlyph>
    <TTGlyph name="dieresis.cap" xMin="38" yMin="822" xMax="348" yMax="930">
      <contour>
        <pt x="119" y="930" on="0"/>
        <pt x="146" y="900" on="0"/>
        <pt x="146" y="853" on="0"/>
        <pt x="108" y="822" on="0"/>
        <pt x="62" y="822" on="0"/>
        <pt x="38" y="853" on="0"/>
        <pt x="38" y="897" on="0"/>
        <pt x="75" y="930" on="0"/>
      </contour>
      <contour>
        <pt x="323" y="930" on="0"/>
        <pt x="348" y="900" on="0"/>
        <pt x="348" y="853" on="0"/>
        <pt x="310" y="822" on="0"/>
        <pt x="265" y="822" on="0"/>
        <pt x="240" y="852" on="0"/>
        <pt x="240" y="897" on="0"/>
        <pt x="278" y="930" on="0"/>
      </contour>
    </TTGlyph>
    <TTGlyph name="divide" xMin="39" yMin="-14" xMax="437" yMax="420">
      <contour>
        <pt x="437" y="178" on="1"/>
        <pt x="39" y="178" on="1"/>
        <pt x="39" y="226" on="1"/>
        <pt x="437" y="226" on="1"/>
      </contour>
      <contour>
        <pt x="274" y="420" on="0"/>
        <pt x="301" y="388" on="0"/>
        <pt x="301" y="342" on="0"/>
        <pt x="262" y="310" on="0"/>
        <pt x="217" y="310" on="0"/>
        <pt x="193" y="342" on="0"/>
        <pt x="193" y="386" on="0"/>
        <pt x="230" y="420" on="0"/>
      </contour>
      <contour>
        <pt x="274" y="94" on="0"/>
        <pt x="301" y="64" on="0"/>
        <pt x="301" y="17" on="0"/>
        <pt x="263" y="-14" on="0"/>
        <pt x="217" y="-14" on="0"/>
        <pt x="193" y="17" on="0"/>
        <pt x="193" y="61" on="0"/>
        <pt x="230" y="94" on="0"/>
      </contour>
    </TTGlyph>
    <TTGlyph name="dollar" xMin="42" yMin="-108" xMax="460" yMax="738">
      <contour>
        <pt x="266" y="-108" on="1"/>
        <pt x="220" y="-108" on="1"/>
        <pt x="220" y="20" on="1"/>
        <pt x="111" y="20" on="0"/>
        <pt x="42" y="74" on="1"/>
        <pt x="54" y="188" on="1"/>
        <pt x="86" y="186" on="1"/>
        <pt x="86" y="151" on="0"/>
        <pt x="165" y="104" on="0"/>
        <pt x="220" y="96" on="1"/>
        <pt x="220" y="336" on="1"/>
        <pt x="206" y="344" on="1"/>
        <pt x="190" y="349" on="0"/>
        <pt x="127" y="387" on="0"/>
        <pt x="106" y="402" on="1"/>
        <pt x="62" y="436" on="0"/>
        <pt x="62" y="482" on="1"/>
        <pt x="62" y="622" on="0"/>
        <pt x="220" y="650" on="1"/>
        <pt x="220" y="738" on="1"/>
        <pt x="266" y="738" on="1"/>
        <pt x="266" y="656" on="1"/>
        <pt x="292" y="656" on="1"/>
        <pt x="357" y="656" on="0"/>
        <pt x="418" y="624" on="1"/>
        <pt x="408" y="522" on="1"/>
        <pt x="378" y="522" on="1"/>
        <pt x="378" y="580" on="0"/>
        <pt x="266" y="590" on="1"/>
        <pt x="266" y="404" on="1"/>
        <pt x="288" y="394" on="1"/>
        <pt x="409" y="347" on="0"/>
        <pt x="444" y="280" on="1"/>
        <pt x="460" y="248" on="0"/>
        <pt x="460" y="210" on="1"/>
        <pt x="460" y="130" on="0"/>
        <pt x="355" y="33" on="0"/>
        <pt x="266" y="22" on="1"/>
      </contour>
      <contour>
        <pt x="266" y="312" on="1"/>
        <pt x="266" y="92" on="1"/>
        <pt x="400" y="92" on="0"/>
        <pt x="400" y="166" on="1"/>
        <pt x="400" y="216" on="0"/>
        <pt x="337" y="275" on="0"/>
      </contour>
      <contour>
        <pt x="220" y="426" on="1"/>
        <pt x="220" y="590" on="1"/>
        <pt x="170" y="587" on="0"/>
        <pt x="118" y="548" on="0"/>
        <pt x="118" y="522" on="1"/>
        <pt x="118" y="477" on="0"/>
      </contour>
    </TTGlyph>
    <TTGlyph name="dotaccent" xMin="82" yMin="588" xMax="190" yMax="696">
      <contour>
        <pt x="165" y="696" on="0"/>
        <pt x="190" y="666" on="0"/>
        <pt x="190" y="619" on="0"/>
        <pt x="152" y="588" on="0"/>
        <pt x="107" y="588" on="0"/>
        <pt x="82" y="618" on="0"/>
        <pt x="82" y="663" on="0"/>
        <pt x="120" y="696" on="0"/>
      </contour>
    </TTGlyph>
    <TTGlyph name="dotaccentcmb" xMin="82" yMin="588" xMax="190" yMax="696">
      <contour>
        <pt x="165" y="696" on="0"/>
        <pt x="190" y="666" on="0"/>
        <pt x="190" y="619" on="0"/>
        <pt x="152" y="588" on="0"/>
        <pt x="107" y="588" on="0"/>
        <pt x="82" y="618" on="0"/>
        <pt x="82" y="663" on="0"/>
        <pt x="120" y="696" on="0"/>
      </contour>
    </TTGlyph>
    <TTGlyph name="dotaccentcmb.cap" xMin="82" yMin="588" xMax="190" yMax="696">
      <contour>
        <pt x="165" y="696" on="0"/>
        <pt x="190" y="666" on="0"/>
        <pt x="190" y="619" on="0"/>
        <pt x="152" y="588" on="0"/>
        <pt x="107" y="588" on="0"/>
        <pt x="82" y="618" on="0"/>
        <pt x="82" y="663" on="0"/>
        <pt x="120" y="696" on="0"/>
      </contour>
    </TTGlyph>
    <TTGlyph name="dotlessi" xMin="44" yMin="0" xMax="246" yMax="476">
      <contour>
        <pt x="246" y="0" on="1"/>
        <pt x="44" y="0" on="1"/>
        <pt x="44" y="28" on="1"/>
        <pt x="60" y="28" on="1"/>
        <pt x="87" y="28" on="0"/>
        <pt x="102" y="46" on="0"/>
        <pt x="102" y="66" on="1"/>
        <pt x="102" y="366" on="1"/>
        <pt x="102" y="385" on="0"/>
        <pt x="77" y="402" on="0"/>
        <pt x="44" y="402" on="1"/>
        <pt x="44" y="430" on="1"/>
        <pt x="64" y="430" on="0"/>
        <pt x="145" y="459" on="0"/>
        <pt x="166" y="472" on="1"/>
        <pt x="184" y="476" on="1"/>
        <pt x="184" y="72" on="1"/>
        <pt x="184" y="56" on="0"/>
        <pt x="187" y="42" on="0"/>
        <pt x="207" y="28" on="0"/>
        <pt x="228" y="28" on="1"/>
        <pt x="246" y="28" on="1"/>
      </contour>
    </TTGlyph>
    <TTGlyph name="dotlessj" xMin="-18" yMin="-240" xMax="154" yMax="476">
      <contour>
        <pt x="-2" y="-240" on="1"/>
        <pt x="-18" y="-214" on="1"/>
        <pt x="26" y="-187" on="0"/>
        <pt x="72" y="-117" on="0"/>
        <pt x="72" y="-60" on="1"/>
        <pt x="72" y="366" on="1"/>
        <pt x="72" y="385" on="0"/>
        <pt x="47" y="402" on="0"/>
        <pt x="14" y="402" on="1"/>
        <pt x="14" y="430" on="1"/>
        <pt x="34" y="430" on="0"/>
        <pt x="115" y="459" on="0"/>
        <pt x="136" y="472" on="1"/>
        <pt x="154" y="476" on="1"/>
        <pt x="154" y="-22" on="1"/>
        <pt x="154" y="-100" on="0"/>
        <pt x="67" y="-217" on="0"/>
      </contour>
    </TTGlyph>
    <TTGlyph name="e" xMin="28" yMin="-14" xMax="444" yMax="480">
      <contour>
        <pt x="426" y="122" on="1"/>
        <pt x="444" y="104" on="1"/>
        <pt x="380" y="-14" on="0"/>
        <pt x="214" y="-14" on="1"/>
        <pt x="137" y="-14" on="0"/>
        <pt x="28" y="122" on="0"/>
        <pt x="28" y="206" on="1"/>
        <pt x="28" y="319" on="0"/>
        <pt x="175" y="480" on="0"/>
        <pt x="280" y="480" on="1"/>
        <pt x="330" y="480" on="0"/>
        <pt x="368" y="451" on="1"/>
        <pt x="436" y="398" on="0"/>
        <pt x="436" y="314" on="1"/>
        <pt x="436" y="302" on="0"/>
        <pt x="427" y="268" on="0"/>
        <pt x="424" y="268" on="1"/>
        <pt x="102" y="258" on="1"/>
        <pt x="102" y="180" on="0"/>
        <pt x="200" y="48" on="0"/>
        <pt x="270" y="48" on="1"/>
        <pt x="320" y="48" on="0"/>
        <pt x="405" y="89" on="0"/>
      </contour>
      <contour>
        <pt x="112" y="298" on="1"/>
        <pt x="346" y="308" on="1"/>
        <pt x="348" y="308" on="0"/>
        <pt x="348" y="326" on="1"/>
        <pt x="348" y="378" on="0"/>
        <pt x="287" y="422" on="0"/>
        <pt x="180" y="422" on="0"/>
        <pt x="112" y="356" on="0"/>
      </contour>
    </TTGlyph>
    <TTGlyph name="eacute" xMin="28" yMin="-14" xMax="444" yMax="702">
      <contour>
        <pt x="328" y="660" on="1"/>
        <pt x="178" y="532" on="1"/>
        <pt x="154" y="548" on="1"/>
        <pt x="262" y="702" on="1"/>
      </contour>
      <contour>
        <pt x="426" y="122" on="1"/>
        <pt x="444" y="104" on="1"/>
        <pt x="380" y="-14" on="0"/>
        <pt x="214" y="-14" on="1"/>
        <pt x="137" y="-14" on="0"/>
        <pt x="28" y="122" on="0"/>
        <pt x="28" y="206" on="1"/>
        <pt x="28" y="319" on="0"/>
        <pt x="175" y="480" on="0"/>
        <pt x="280" y="480" on="1"/>
        <pt x="330" y="480" on="0"/>
        <pt x="368" y="451" on="1"/>
        <pt x="436" y="398" on="0"/>
        <pt x="436" y="314" on="1"/>
        <pt x="436" y="302" on="0"/>
        <pt x="427" y="268" on="0"/>
        <pt x="424" y="268" on="1"/>
        <pt x="112" y="258" on="1"/>
        <pt x="112" y="179" on="0"/>
        <pt x="200" y="48" on="0"/>
        <pt x="270" y="48" on="1"/>
        <pt x="320" y="48" on="0"/>
        <pt x="405" y="89" on="0"/>
      </contour>
      <contour>
        <pt x="112" y="298" on="1"/>
        <pt x="346" y="308" on="1"/>
        <pt x="348" y="308" on="0"/>
        <pt x="348" y="326" on="1"/>
        <pt x="348" y="378" on="0"/>
        <pt x="287" y="422" on="0"/>
        <pt x="180" y="422" on="0"/>
        <pt x="112" y="356" on="0"/>
      </contour>
    </TTGlyph>
    <TTGlyph name="ecircumflex" xMin="28" yMin="-14" xMax="444" yMax="706">
      <contour>
        <pt x="354" y="538" on="1"/>
        <pt x="328" y="526" on="1"/>
        <pt x="240" y="624" on="1"/>
        <pt x="154" y="526" on="1"/>
        <pt x="128" y="538" on="1"/>
        <pt x="212" y="706" on="1"/>
        <pt x="270" y="706" on="1"/>
      </contour>
      <contour>
        <pt x="426" y="122" on="1"/>
        <pt x="444" y="104" on="1"/>
        <pt x="380" y="-14" on="0"/>
        <pt x="214" y="-14" on="1"/>
        <pt x="137" y="-14" on="0"/>
        <pt x="28" y="122" on="0"/>
        <pt x="28" y="206" on="1"/>
        <pt x="28" y="319" on="0"/>
        <pt x="175" y="480" on="0"/>
        <pt x="280" y="480" on="1"/>
        <pt x="330" y="480" on="0"/>
        <pt x="368" y="451" on="1"/>
        <pt x="436" y="398" on="0"/>
        <pt x="436" y="314" on="1"/>
        <pt x="436" y="302" on="0"/>
        <pt x="427" y="268" on="0"/>
        <pt x="424" y="268" on="1"/>
        <pt x="112" y="258" on="1"/>
        <pt x="112" y="179" on="0"/>
        <pt x="200" y="48" on="0"/>
        <pt x="270" y="48" on="1"/>
        <pt x="320" y="48" on="0"/>
        <pt x="405" y="89" on="0"/>
      </contour>
      <contour>
        <pt x="112" y="298" on="1"/>
        <pt x="346" y="308" on="1"/>
        <pt x="348" y="308" on="0"/>
        <pt x="348" y="326" on="1"/>
        <pt x="348" y="378" on="0"/>
        <pt x="287" y="422" on="0"/>
        <pt x="180" y="422" on="0"/>
        <pt x="112" y="356" on="0"/>
      </contour>
    </TTGlyph>
    <TTGlyph name="edieresis" xMin="28" yMin="-14" xMax="444" yMax="696">
      <contour>
        <pt x="167" y="696" on="0"/>
        <pt x="194" y="666" on="0"/>
        <pt x="194" y="619" on="0"/>
        <pt x="156" y="588" on="0"/>
        <pt x="110" y="588" on="0"/>
        <pt x="86" y="619" on="0"/>
        <pt x="86" y="663" on="0"/>
        <pt x="123" y="696" on="0"/>
      </contour>
      <contour>
        <pt x="371" y="696" on="0"/>
        <pt x="396" y="666" on="0"/>
        <pt x="396" y="619" on="0"/>
        <pt x="358" y="588" on="0"/>
        <pt x="313" y="588" on="0"/>
        <pt x="288" y="618" on="0"/>
        <pt x="288" y="663" on="0"/>
        <pt x="326" y="696" on="0"/>
      </contour>
      <contour>
        <pt x="426" y="122" on="1"/>
        <pt x="444" y="104" on="1"/>
        <pt x="380" y="-14" on="0"/>
        <pt x="214" y="-14" on="1"/>
        <pt x="137" y="-14" on="0"/>
        <pt x="28" y="122" on="0"/>
        <pt x="28" y="206" on="1"/>
        <pt x="28" y="319" on="0"/>
        <pt x="175" y="480" on="0"/>
        <pt x="280" y="480" on="1"/>
        <pt x="330" y="480" on="0"/>
        <pt x="368" y="451" on="1"/>
        <pt x="436" y="398" on="0"/>
        <pt x="436" y="314" on="1"/>
        <pt x="436" y="302" on="0"/>
        <pt x="427" y="268" on="0"/>
        <pt x="424" y="268" on="1"/>
        <pt x="112" y="258" on="1"/>
        <pt x="112" y="179" on="0"/>
        <pt x="200" y="48" on="0"/>
        <pt x="270" y="48" on="1"/>
        <pt x="320" y="48" on="0"/>
        <pt x="405" y="89" on="0"/>
      </contour>
      <contour>
        <pt x="112" y="298" on="1"/>
        <pt x="346" y="308" on="1"/>
        <pt x="348" y="308" on="0"/>
        <pt x="348" y="326" on="1"/>
        <pt x="348" y="378" on="0"/>
        <pt x="287" y="422" on="0"/>
        <pt x="180" y="422" on="0"/>
        <pt x="112" y="356" on="0"/>
      </contour>
    </TTGlyph>
    <TTGlyph name="egrave" xMin="28" yMin="-14" xMax="444" yMax="702">
      <contour>
        <pt x="426" y="122" on="1"/>
        <pt x="444" y="104" on="1"/>
        <pt x="380" y="-14" on="0"/>
        <pt x="214" y="-14" on="1"/>
        <pt x="137" y="-14" on="0"/>
        <pt x="28" y="122" on="0"/>
        <pt x="28" y="206" on="1"/>
        <pt x="28" y="319" on="0"/>
        <pt x="175" y="480" on="0"/>
        <pt x="280" y="480" on="1"/>
        <pt x="330" y="480" on="0"/>
        <pt x="368" y="451" on="1"/>
        <pt x="436" y="398" on="0"/>
        <pt x="436" y="314" on="1"/>
        <pt x="436" y="302" on="0"/>
        <pt x="427" y="268" on="0"/>
        <pt x="424" y="268" on="1"/>
        <pt x="112" y="258" on="1"/>
        <pt x="112" y="179" on="0"/>
        <pt x="200" y="48" on="0"/>
        <pt x="270" y="48" on="1"/>
        <pt x="320" y="48" on="0"/>
        <pt x="405" y="89" on="0"/>
      </contour>
      <contour>
        <pt x="112" y="298" on="1"/>
        <pt x="346" y="308" on="1"/>
        <pt x="348" y="308" on="0"/>
        <pt x="348" y="326" on="1"/>
        <pt x="348" y="378" on="0"/>
        <pt x="287" y="422" on="0"/>
        <pt x="180" y="422" on="0"/>
        <pt x="112" y="356" on="0"/>
      </contour>
      <contour>
        <pt x="230" y="702" on="1"/>
        <pt x="338" y="548" on="1"/>
        <pt x="314" y="532" on="1"/>
        <pt x="164" y="660" on="1"/>
      </contour>
    </TTGlyph>
    <TTGlyph name="eight" xMin="36" yMin="-12" xMax="494" yMax="702">
      <contour>
        <pt x="215" y="355" on="1"/>
        <pt x="170" y="339" on="0"/>
        <pt x="108" y="247" on="0"/>
        <pt x="108" y="197" on="1"/>
        <pt x="108" y="124" on="0"/>
        <pt x="205" y="39" on="0"/>
        <pt x="264" y="39" on="1"/>
        <pt x="413" y="39" on="0"/>
        <pt x="413" y="187" on="1"/>
        <pt x="413" y="258" on="0"/>
        <pt x="302" y="345" on="0"/>
      </contour>
      <contour>
        <pt x="182" y="381" on="1"/>
        <pt x="127" y="402" on="0"/>
        <pt x="66" y="465" on="0"/>
        <pt x="66" y="521" on="1"/>
        <pt x="66" y="593" on="0"/>
        <pt x="197" y="702" on="0"/>
        <pt x="359" y="702" on="0"/>
        <pt x="445" y="614" on="0"/>
        <pt x="445" y="505" on="0"/>
        <pt x="391" y="422" on="0"/>
        <pt x="343" y="398" on="1"/>
        <pt x="412" y="374" on="0"/>
        <pt x="494" y="267" on="0"/>
        <pt x="494" y="110" on="0"/>
        <pt x="359" y="-12" on="0"/>
        <pt x="150" y="-12" on="0"/>
        <pt x="36" y="109" on="0"/>
        <pt x="36" y="245" on="0"/>
        <pt x="117" y="355" on="0"/>
      </contour>
      <contour>
        <pt x="293" y="419" on="1"/>
        <pt x="326" y="438" on="0"/>
        <pt x="379" y="513" on="0"/>
        <pt x="379" y="589" on="0"/>
        <pt x="312" y="652" on="0"/>
        <pt x="199" y="652" on="0"/>
        <pt x="140" y="587" on="0"/>
        <pt x="140" y="506" on="0"/>
        <pt x="168" y="479" on="1"/>
        <pt x="213" y="436" on="0"/>
      </contour>
    </TTGlyph>
    <TTGlyph name="emdash" xMin="0" yMin="188" xMax="936" yMax="236">
      <contour>
        <pt x="936" y="188" on="1"/>
        <pt x="0" y="188" on="1"/>
        <pt x="0" y="236" on="1"/>
        <pt x="936" y="236" on="1"/>
      </contour>
    </TTGlyph>
    <TTGlyph name="endash" xMin="0" yMin="188" xMax="468" yMax="236">
      <contour>
        <pt x="468" y="188" on="1"/>
        <pt x="0" y="188" on="1"/>
        <pt x="0" y="236" on="1"/>
        <pt x="468" y="236" on="1"/>
      </contour>
    </TTGlyph>
    <TTGlyph name="equal" xMin="191" yMin="144" xMax="589" yMax="356">
      <contour>
        <pt x="589" y="308" on="1"/>
        <pt x="191" y="308" on="1"/>
        <pt x="191" y="356" on="1"/>
        <pt x="589" y="356" on="1"/>
      </contour>
      <contour>
        <pt x="589" y="144" on="1"/>
        <pt x="191" y="144" on="1"/>
        <pt x="191" y="192" on="1"/>
        <pt x="589" y="192" on="1"/>
      </contour>
    </TTGlyph>
    <TTGlyph name="eth" xMin="52" yMin="-14" xMax="526" yMax="746">
      <contour>
        <pt x="402" y="718" on="1"/>
        <pt x="306" y="632" on="1"/>
        <pt x="526" y="496" on="0"/>
        <pt x="526" y="260" on="1"/>
        <pt x="526" y="151" on="0"/>
        <pt x="363" y="-14" on="0"/>
        <pt x="258" y="-14" on="1"/>
        <pt x="170" y="-14" on="0"/>
        <pt x="52" y="118" on="0"/>
        <pt x="52" y="279" on="0"/>
        <pt x="133" y="402" on="0"/>
        <pt x="251" y="466" on="0"/>
        <pt x="358" y="466" on="0"/>
        <pt x="386" y="454" on="1"/>
        <pt x="334" y="526" on="0"/>
        <pt x="254" y="590" on="1"/>
        <pt x="156" y="504" on="1"/>
        <pt x="132" y="532" on="1"/>
        <pt x="226" y="612" on="1"/>
        <pt x="148" y="665" on="0"/>
        <pt x="96" y="690" on="1"/>
        <pt x="106" y="720" on="1"/>
        <pt x="198" y="692" on="0"/>
        <pt x="274" y="652" on="1"/>
        <pt x="380" y="746" on="1"/>
      </contour>
      <contour>
        <pt x="122" y="167" on="0"/>
        <pt x="235" y="44" on="0"/>
        <pt x="376" y="44" on="0"/>
        <pt x="456" y="150" on="0"/>
        <pt x="456" y="206" on="1"/>
        <pt x="456" y="289" on="0"/>
        <pt x="352" y="410" on="0"/>
        <pt x="201" y="410" on="0"/>
        <pt x="122" y="316" on="0"/>
        <pt x="122" y="260" on="1"/>
      </contour>
    </TTGlyph>
    <TTGlyph name="exclam" xMin="85" yMin="-16" xMax="193" yMax="718">
      <contour>
        <pt x="169" y="198" on="1"/>
        <pt x="121" y="180" on="1"/>
        <pt x="101" y="688" on="1"/>
        <pt x="187" y="718" on="1"/>
      </contour>
      <contour>
        <pt x="193" y="16" on="0"/>
        <pt x="155" y="-16" on="0"/>
        <pt x="110" y="-16" on="0"/>
        <pt x="85" y="16" on="0"/>
        <pt x="85" y="60" on="0"/>
        <pt x="123" y="94" on="0"/>
        <pt x="168" y="94" on="0"/>
        <pt x="193" y="62" on="0"/>
      </contour>
    </TTGlyph>
    <TTGlyph name="exclamdown" xMin="65" yMin="-254" xMax="173" yMax="480">
      <contour>
        <pt x="157" y="-224" on="1"/>
        <pt x="71" y="-254" on="1"/>
        <pt x="89" y="268" on="1"/>
        <pt x="137" y="286" on="1"/>
      </contour>
      <contour>
        <pt x="148" y="480" on="0"/>
        <pt x="173" y="450" on="0"/>
        <pt x="173" y="405" on="0"/>
        <pt x="135" y="372" on="0"/>
        <pt x="90" y="372" on="0"/>
        <pt x="65" y="402" on="0"/>
        <pt x="65" y="449" on="0"/>
        <pt x="103" y="480" on="0"/>
      </contour>
    </TTGlyph>
    <TTGlyph name="f" xMin="44" yMin="0" xMax="398" yMax="772">
      <contour>
        <pt x="312" y="772" on="1"/>
        <pt x="350" y="772" on="0"/>
        <pt x="398" y="748" on="1"/>
        <pt x="390" y="658" on="1"/>
        <pt x="362" y="660" on="1"/>
        <pt x="362" y="680" on="0"/>
        <pt x="322" y="732" on="0"/>
        <pt x="290" y="732" on="1"/>
        <pt x="236" y="732" on="0"/>
        <pt x="182" y="626" on="0"/>
        <pt x="182" y="508" on="1"/>
        <pt x="182" y="468" on="0"/>
        <pt x="222" y="468" on="1"/>
        <pt x="320" y="468" on="1"/>
        <pt x="320" y="426" on="1"/>
        <pt x="184" y="426" on="1"/>
        <pt x="184" y="74" on="1"/>
        <pt x="184" y="58" on="0"/>
        <pt x="187" y="43" on="0"/>
        <pt x="207" y="28" on="0"/>
        <pt x="228" y="28" on="1"/>
        <pt x="260" y="28" on="1"/>
        <pt x="260" y="0" on="1"/>
        <pt x="44" y="0" on="1"/>
        <pt x="44" y="28" on="1"/>
        <pt x="56" y="28" on="1"/>
        <pt x="78" y="28" on="0"/>
        <pt x="99" y="43" on="0"/>
        <pt x="102" y="58" on="0"/>
        <pt x="102" y="74" on="1"/>
        <pt x="102" y="390" on="1"/>
        <pt x="102" y="409" on="0"/>
        <pt x="88" y="426" on="0"/>
        <pt x="66" y="426" on="1"/>
        <pt x="44" y="426" on="1"/>
        <pt x="44" y="468" on="1"/>
        <pt x="102" y="468" on="1"/>
        <pt x="102" y="512" on="1"/>
        <pt x="102" y="772" on="0"/>
      </contour>
    </TTGlyph>
    <TTGlyph name="five" xMin="50" yMin="-14" xMax="518" yMax="730">
      <contour>
        <pt x="50" y="54" on="1"/>
        <pt x="90" y="162" on="1"/>
        <pt x="116" y="162" on="1"/>
        <pt x="141" y="70" on="0"/>
        <pt x="200" y="48" on="1"/>
        <pt x="227" y="38" on="0"/>
        <pt x="266" y="38" on="1"/>
        <pt x="340" y="38" on="0"/>
        <pt x="434" y="138" on="0"/>
        <pt x="434" y="226" on="1"/>
        <pt x="434" y="289" on="0"/>
        <pt x="338" y="398" on="0"/>
        <pt x="199" y="398" on="0"/>
        <pt x="110" y="324" on="1"/>
        <pt x="86" y="324" on="1"/>
        <pt x="108" y="690" on="1"/>
        <pt x="342" y="690" on="1"/>
        <pt x="390" y="690" on="0"/>
        <pt x="431" y="711" on="0"/>
        <pt x="438" y="730" on="1"/>
        <pt x="456" y="726" on="1"/>
        <pt x="430" y="606" on="1"/>
        <pt x="160" y="606" on="1"/>
        <pt x="148" y="408" on="1"/>
        <pt x="152" y="408" on="1"/>
        <pt x="202" y="443" on="0"/>
        <pt x="269" y="466" on="0"/>
        <pt x="318" y="466" on="1"/>
        <pt x="398" y="466" on="0"/>
        <pt x="518" y="333" on="0"/>
        <pt x="518" y="252" on="1"/>
        <pt x="518" y="130" on="0"/>
        <pt x="348" y="-14" on="0"/>
        <pt x="232" y="-14" on="1"/>
        <pt x="174" y="-14" on="0"/>
        <pt x="94" y="18" on="0"/>
      </contour>
    </TTGlyph>
    <TTGlyph name="four" xMin="15" yMin="0" xMax="560" yMax="718">
      <contour>
        <pt x="334" y="276" on="1"/>
        <pt x="334" y="612" on="1"/>
        <pt x="171" y="374" on="0"/>
        <pt x="114" y="279" on="1"/>
        <pt x="114" y="275" on="1"/>
      </contour>
      <contour>
        <pt x="506" y="0" on="1"/>
        <pt x="252" y="0" on="1"/>
        <pt x="252" y="28" on="1"/>
        <pt x="286" y="28" on="1"/>
        <pt x="316" y="28" on="0"/>
        <pt x="334" y="52" on="0"/>
        <pt x="334" y="74" on="1"/>
        <pt x="334" y="212" on="1"/>
        <pt x="15" y="212" on="1"/>
        <pt x="15" y="231" on="1"/>
        <pt x="76" y="330" on="0"/>
        <pt x="300" y="623" on="0"/>
        <pt x="334" y="670" on="1"/>
        <pt x="379" y="670" on="0"/>
        <pt x="404" y="714" on="1"/>
        <pt x="418" y="718" on="1"/>
        <pt x="418" y="276" on="1"/>
        <pt x="531" y="276" on="0"/>
        <pt x="541" y="332" on="1"/>
        <pt x="560" y="328" on="1"/>
        <pt x="532" y="212" on="1"/>
        <pt x="418" y="212" on="1"/>
        <pt x="418" y="74" on="1"/>
        <pt x="418" y="52" on="0"/>
        <pt x="438" y="28" on="0"/>
        <pt x="468" y="28" on="1"/>
        <pt x="506" y="28" on="1"/>
      </contour>
    </TTGlyph>
    <TTGlyph name="g" xMin="14" yMin="-248" xMax="496" yMax="504">
      <contour>
        <pt x="184" y="52" on="1"/>
        <pt x="284" y="56" on="1"/>
        <pt x="398" y="56" on="0"/>
        <pt x="486" y="7" on="0"/>
        <pt x="486" y="-101" on="0"/>
        <pt x="424" y="-181" on="0"/>
        <pt x="374" y="-204" on="1"/>
        <pt x="275" y="-248" on="0"/>
        <pt x="162" y="-248" on="1"/>
        <pt x="96" y="-248" on="0"/>
        <pt x="14" y="-185" on="0"/>
        <pt x="14" y="-138" on="1"/>
        <pt x="14" y="-28" on="0"/>
        <pt x="108" y="4" on="1"/>
        <pt x="85" y="4" on="0"/>
        <pt x="56" y="24" on="0"/>
        <pt x="56" y="49" on="0"/>
        <pt x="64" y="73" on="0"/>
        <pt x="82" y="98" on="0"/>
        <pt x="95" y="113" on="0"/>
        <pt x="110" y="128" on="1"/>
        <pt x="130" y="148" on="1"/>
        <pt x="76" y="196" on="0"/>
        <pt x="76" y="361" on="0"/>
        <pt x="200" y="482" on="0"/>
        <pt x="274" y="482" on="1"/>
        <pt x="320" y="482" on="0"/>
        <pt x="356" y="456" on="1"/>
        <pt x="398" y="504" on="0"/>
        <pt x="496" y="504" on="1"/>
        <pt x="486" y="418" on="1"/>
        <pt x="480" y="427" on="0"/>
        <pt x="450" y="444" on="0"/>
        <pt x="442" y="444" on="1"/>
        <pt x="415" y="444" on="0"/>
        <pt x="386" y="426" on="1"/>
        <pt x="424" y="382" on="0"/>
        <pt x="424" y="320" on="1"/>
        <pt x="424" y="242" on="0"/>
        <pt x="304" y="120" on="0"/>
        <pt x="228" y="120" on="1"/>
        <pt x="189" y="120" on="0"/>
        <pt x="164" y="134" on="1"/>
        <pt x="122" y="84" on="0"/>
        <pt x="122" y="72" on="1"/>
        <pt x="122" y="52" on="0"/>
      </contour>
      <contour>
        <pt x="234" y="2" on="1"/>
        <pt x="164" y="2" on="1"/>
        <pt x="133" y="-17" on="0"/>
        <pt x="113" y="-37" on="0"/>
        <pt x="99" y="-55" on="0"/>
        <pt x="94" y="-64" on="1"/>
        <pt x="84" y="-85" on="0"/>
        <pt x="84" y="-137" on="0"/>
        <pt x="108" y="-156" on="1"/>
        <pt x="149" y="-186" on="0"/>
        <pt x="296" y="-186" on="0"/>
        <pt x="422" y="-136" on="0"/>
        <pt x="422" y="-48" on="0"/>
        <pt x="320" y="2" on="0"/>
      </contour>
      <contour>
        <pt x="140" y="260" on="0"/>
        <pt x="215" y="178" on="0"/>
        <pt x="309" y="178" on="0"/>
        <pt x="360" y="237" on="0"/>
        <pt x="360" y="336" on="0"/>
        <pt x="287" y="424" on="0"/>
        <pt x="189" y="424" on="0"/>
        <pt x="140" y="367" on="0"/>
      </contour>
    </TTGlyph>
    <TTGlyph name="germandbls" xMin="44" yMin="-14" xMax="556" yMax="772">
      <contour>
        <pt x="252" y="28" on="1"/>
        <pt x="262" y="136" on="1"/>
        <pt x="288" y="134" on="1"/>
        <pt x="288" y="100" on="0"/>
        <pt x="359" y="38" on="0"/>
        <pt x="440" y="38" on="0"/>
        <pt x="482" y="68" on="0"/>
        <pt x="482" y="134" on="0"/>
        <pt x="440" y="184" on="0"/>
        <pt x="379" y="217" on="0"/>
        <pt x="318" y="252" on="0"/>
        <pt x="276" y="309" on="0"/>
        <pt x="276" y="386" on="0"/>
        <pt x="309" y="442" on="0"/>
        <pt x="336" y="454" on="1"/>
        <pt x="384" y="476" on="0"/>
        <pt x="443" y="476" on="1"/>
        <pt x="476" y="476" on="0"/>
        <pt x="476" y="622" on="0"/>
        <pt x="372" y="727" on="0"/>
        <pt x="235" y="727" on="0"/>
        <pt x="184" y="592" on="0"/>
        <pt x="184" y="426" on="1"/>
        <pt x="184" y="74" on="1"/>
        <pt x="184" y="58" on="0"/>
        <pt x="187" y="43" on="0"/>
        <pt x="208" y="28" on="0"/>
        <pt x="230" y="28" on="1"/>
      </contour>
      <contour>
        <pt x="270" y="0" on="1"/>
        <pt x="44" y="0" on="1"/>
        <pt x="44" y="28" on="1"/>
        <pt x="56" y="28" on="1"/>
        <pt x="78" y="28" on="0"/>
        <pt x="99" y="43" on="0"/>
        <pt x="102" y="58" on="0"/>
        <pt x="102" y="74" on="1"/>
        <pt x="102" y="390" on="1"/>
        <pt x="102" y="409" on="0"/>
        <pt x="88" y="426" on="0"/>
        <pt x="66" y="426" on="1"/>
        <pt x="44" y="426" on="1"/>
        <pt x="44" y="468" on="1"/>
        <pt x="102" y="468" on="1"/>
        <pt x="102" y="512" on="1"/>
        <pt x="102" y="611" on="0"/>
        <pt x="151" y="687" on="1"/>
        <pt x="176" y="726" on="0"/>
        <pt x="272" y="772" on="0"/>
        <pt x="336" y="772" on="1"/>
        <pt x="421" y="772" on="0"/>
        <pt x="537" y="670" on="0"/>
        <pt x="537" y="589" on="1"/>
        <pt x="537" y="542" on="0"/>
        <pt x="495" y="443" on="0"/>
        <pt x="470" y="420" on="1"/>
        <pt x="436" y="436" on="0"/>
        <pt x="373" y="436" on="0"/>
        <pt x="332" y="403" on="0"/>
        <pt x="332" y="348" on="0"/>
        <pt x="365" y="311" on="0"/>
        <pt x="415" y="293" on="0"/>
        <pt x="473" y="267" on="0"/>
        <pt x="523" y="238" on="0"/>
        <pt x="556" y="175" on="0"/>
        <pt x="556" y="93" on="0"/>
        <pt x="521" y="35" on="0"/>
        <pt x="493" y="18" on="1"/>
        <pt x="438" y="-14" on="0"/>
        <pt x="319" y="-14" on="0"/>
        <pt x="270" y="20" on="1"/>
      </contour>
    </TTGlyph>
    <TTGlyph name="grave" xMin="64" yMin="532" xMax="238" yMax="702">
      <contour>
        <pt x="130" y="702" on="1"/>
        <pt x="238" y="548" on="1"/>
        <pt x="214" y="532" on="1"/>
        <pt x="64" y="660" on="1"/>
      </contour>
    </TTGlyph>
    <TTGlyph name="grave.cap" xMin="35" yMin="736" xMax="233" yMax="876">
      <contour>
        <pt x="214" y="736" on="1"/>
        <pt x="35" y="818" on="1"/>
        <pt x="87" y="876" on="1"/>
        <pt x="233" y="758" on="1"/>
      </contour>
    </TTGlyph>
    <TTGlyph name="greater" xMin="154" yMin="0" xMax="616" yMax="486">
      <contour>
        <pt x="616" y="218" on="1"/>
        <pt x="154" y="0" on="1"/>
        <pt x="154" y="65" on="1"/>
        <pt x="555" y="253" on="1"/>
        <pt x="154" y="439" on="1"/>
        <pt x="154" y="486" on="1"/>
        <pt x="616" y="268" on="1"/>
      </contour>
    </TTGlyph>
    <TTGlyph name="guillemotleft" xMin="60" yMin="82" xMax="406" yMax="418">
      <contour>
        <pt x="228" y="82" on="1"/>
        <pt x="60" y="222" on="1"/>
        <pt x="60" y="278" on="1"/>
        <pt x="228" y="418" on="1"/>
        <pt x="234" y="398" on="1"/>
        <pt x="130" y="250" on="1"/>
        <pt x="234" y="102" on="1"/>
      </contour>
      <contour>
        <pt x="400" y="82" on="1"/>
        <pt x="232" y="222" on="1"/>
        <pt x="232" y="278" on="1"/>
        <pt x="400" y="418" on="1"/>
        <pt x="406" y="398" on="1"/>
        <pt x="302" y="250" on="1"/>
        <pt x="406" y="102" on="1"/>
      </contour>
    </TTGlyph>
    <TTGlyph name="guillemotright" xMin="60" yMin="82" xMax="406" yMax="418">
      <contour>
        <pt x="406" y="278" on="1"/>
        <pt x="406" y="222" on="1"/>
        <pt x="238" y="82" on="1"/>
        <pt x="232" y="102" on="1"/>
        <pt x="336" y="250" on="1"/>
        <pt x="232" y="398" on="1"/>
        <pt x="238" y="418" on="1"/>
      </contour>
      <contour>
        <pt x="234" y="278" on="1"/>
        <pt x="234" y="222" on="1"/>
        <pt x="66" y="82" on="1"/>
        <pt x="60" y="102" on="1"/>
        <pt x="164" y="250" on="1"/>
        <pt x="60" y="398" on="1"/>
        <pt x="66" y="418" on="1"/>
      </contour>
    </TTGlyph>
    <TTGlyph name="guilsinglleft" xMin="60" yMin="82" xMax="234" yMax="418">
      <contour>
        <pt x="228" y="82" on="1"/>
        <pt x="60" y="222" on="1"/>
        <pt x="60" y="278" on="1"/>
        <pt x="228" y="418" on="1"/>
        <pt x="234" y="398" on="1"/>
        <pt x="130" y="250" on="1"/>
        <pt x="234" y="102" on="1"/>
      </contour>
    </TTGlyph>
    <TTGlyph name="guilsinglright" xMin="60" yMin="82" xMax="234" yMax="418">
      <contour>
        <pt x="234" y="278" on="1"/>
        <pt x="234" y="222" on="1"/>
        <pt x="66" y="82" on="1"/>
        <pt x="60" y="102" on="1"/>
        <pt x="164" y="250" on="1"/>
        <pt x="60" y="398" on="1"/>
        <pt x="66" y="418" on="1"/>
      </contour>
    </TTGlyph>
    <TTGlyph name="h" xMin="40" yMin="0" xMax="546" yMax="762">
      <contour>
        <pt x="546" y="0" on="1"/>
        <pt x="372" y="0" on="1"/>
        <pt x="372" y="28" on="1"/>
        <pt x="378" y="28" on="1"/>
        <pt x="388" y="28" on="0"/>
        <pt x="402" y="49" on="0"/>
        <pt x="402" y="66" on="1"/>
        <pt x="402" y="320" on="1"/>
        <pt x="402" y="412" on="0"/>
        <pt x="322" y="412" on="1"/>
        <pt x="265" y="412" on="0"/>
        <pt x="178" y="292" on="0"/>
        <pt x="178" y="262" on="1"/>
        <pt x="178" y="72" on="1"/>
        <pt x="178" y="57" on="0"/>
        <pt x="180" y="49" on="1"/>
        <pt x="185" y="28" on="0"/>
        <pt x="222" y="28" on="1"/>
        <pt x="242" y="28" on="1"/>
        <pt x="242" y="0" on="1"/>
        <pt x="40" y="0" on="1"/>
        <pt x="40" y="28" on="1"/>
        <pt x="54" y="28" on="1"/>
        <pt x="81" y="28" on="0"/>
        <pt x="98" y="47" on="0"/>
        <pt x="98" y="66" on="1"/>
        <pt x="98" y="660" on="1"/>
        <pt x="98" y="679" on="0"/>
        <pt x="72" y="696" on="0"/>
        <pt x="40" y="696" on="1"/>
        <pt x="40" y="724" on="1"/>
        <pt x="61" y="724" on="0"/>
        <pt x="143" y="746" on="0"/>
        <pt x="160" y="758" on="1"/>
        <pt x="178" y="762" on="1"/>
        <pt x="178" y="348" on="1"/>
        <pt x="230" y="480" on="0"/>
        <pt x="366" y="480" on="1"/>
        <pt x="402" y="480" on="0"/>
        <pt x="453" y="448" on="0"/>
        <pt x="464" y="423" on="1"/>
        <pt x="484" y="381" on="0"/>
        <pt x="484" y="338" on="1"/>
        <pt x="484" y="68" on="1"/>
        <pt x="484" y="54" on="0"/>
        <pt x="486" y="47" on="1"/>
        <pt x="490" y="28" on="0"/>
        <pt x="526" y="28" on="1"/>
        <pt x="546" y="28" on="1"/>
      </contour>
    </TTGlyph>
    <TTGlyph name="hbar" xMin="2" yMin="0" xMax="546" yMax="762">
      <contour>
        <pt x="546" y="0" on="1"/>
        <pt x="372" y="0" on="1"/>
        <pt x="372" y="28" on="1"/>
        <pt x="378" y="28" on="1"/>
        <pt x="388" y="28" on="0"/>
        <pt x="402" y="49" on="0"/>
        <pt x="402" y="66" on="1"/>
        <pt x="402" y="320" on="1"/>
        <pt x="402" y="412" on="0"/>
        <pt x="322" y="412" on="1"/>
        <pt x="265" y="412" on="0"/>
        <pt x="178" y="292" on="0"/>
        <pt x="178" y="262" on="1"/>
        <pt x="178" y="72" on="1"/>
        <pt x="178" y="57" on="0"/>
        <pt x="180" y="49" on="1"/>
        <pt x="185" y="28" on="0"/>
        <pt x="222" y="28" on="1"/>
        <pt x="242" y="28" on="1"/>
        <pt x="242" y="0" on="1"/>
        <pt x="40" y="0" on="1"/>
        <pt x="40" y="28" on="1"/>
        <pt x="54" y="28" on="1"/>
        <pt x="81" y="28" on="0"/>
        <pt x="98" y="47" on="0"/>
        <pt x="98" y="66" on="1"/>
        <pt x="98" y="452" on="1"/>
        <pt x="2" y="356" on="1"/>
        <pt x="2" y="410" on="1"/>
        <pt x="98" y="504" on="1"/>
        <pt x="98" y="660" on="1"/>
        <pt x="98" y="679" on="0"/>
        <pt x="72" y="696" on="0"/>
        <pt x="40" y="696" on="1"/>
        <pt x="40" y="724" on="1"/>
        <pt x="61" y="724" on="0"/>
        <pt x="143" y="746" on="0"/>
        <pt x="160" y="758" on="1"/>
        <pt x="178" y="762" on="1"/>
        <pt x="178" y="586" on="1"/>
        <pt x="282" y="688" on="1"/>
        <pt x="282" y="640" on="1"/>
        <pt x="178" y="534" on="1"/>
        <pt x="178" y="348" on="1"/>
        <pt x="230" y="480" on="0"/>
        <pt x="366" y="480" on="1"/>
        <pt x="402" y="480" on="0"/>
        <pt x="453" y="448" on="0"/>
        <pt x="464" y="423" on="1"/>
        <pt x="484" y="381" on="0"/>
        <pt x="484" y="338" on="1"/>
        <pt x="484" y="68" on="1"/>
        <pt x="484" y="54" on="0"/>
        <pt x="486" y="47" on="1"/>
        <pt x="490" y="28" on="0"/>
        <pt x="526" y="28" on="1"/>
        <pt x="546" y="28" on="1"/>
      </contour>
    </TTGlyph>
    <TTGlyph name="hyphen" xMin="65" yMin="226" xMax="463" yMax="274">
      <contour>
        <pt x="463" y="226" on="1"/>
        <pt x="65" y="226" on="1"/>
        <pt x="65" y="274" on="1"/>
        <pt x="463" y="274" on="1"/>
      </contour>
    </TTGlyph>
    <TTGlyph name="i" xMin="44" yMin="0" xMax="246" yMax="696">
      <contour>
        <pt x="159" y="696" on="0"/>
        <pt x="184" y="666" on="0"/>
        <pt x="184" y="619" on="0"/>
        <pt x="146" y="588" on="0"/>
        <pt x="101" y="588" on="0"/>
        <pt x="76" y="618" on="0"/>
        <pt x="76" y="663" on="0"/>
        <pt x="114" y="696" on="0"/>
      </contour>
      <contour>
        <pt x="246" y="0" on="1"/>
        <pt x="44" y="0" on="1"/>
        <pt x="44" y="28" on="1"/>
        <pt x="60" y="28" on="1"/>
        <pt x="87" y="28" on="0"/>
        <pt x="102" y="46" on="0"/>
        <pt x="102" y="66" on="1"/>
        <pt x="102" y="366" on="1"/>
        <pt x="102" y="385" on="0"/>
        <pt x="77" y="402" on="0"/>
        <pt x="44" y="402" on="1"/>
        <pt x="44" y="430" on="1"/>
        <pt x="64" y="430" on="0"/>
        <pt x="145" y="459" on="0"/>
        <pt x="166" y="472" on="1"/>
        <pt x="184" y="476" on="1"/>
        <pt x="184" y="72" on="1"/>
        <pt x="184" y="56" on="0"/>
        <pt x="187" y="42" on="0"/>
        <pt x="207" y="28" on="0"/>
        <pt x="228" y="28" on="1"/>
        <pt x="246" y="28" on="1"/>
      </contour>
    </TTGlyph>
    <TTGlyph name="iacute" xMin="44" yMin="0" xMax="246" yMax="702">
      <contour>
        <pt x="246" y="0" on="1"/>
        <pt x="44" y="0" on="1"/>
        <pt x="44" y="28" on="1"/>
        <pt x="60" y="28" on="1"/>
        <pt x="87" y="28" on="0"/>
        <pt x="102" y="46" on="0"/>
        <pt x="102" y="66" on="1"/>
        <pt x="102" y="366" on="1"/>
        <pt x="102" y="385" on="0"/>
        <pt x="77" y="402" on="0"/>
        <pt x="44" y="402" on="1"/>
        <pt x="44" y="430" on="1"/>
        <pt x="64" y="430" on="0"/>
        <pt x="145" y="459" on="0"/>
        <pt x="166" y="472" on="1"/>
        <pt x="184" y="476" on="1"/>
        <pt x="184" y="72" on="1"/>
        <pt x="184" y="56" on="0"/>
        <pt x="187" y="42" on="0"/>
        <pt x="207" y="28" on="0"/>
        <pt x="228" y="28" on="1"/>
        <pt x="246" y="28" on="1"/>
      </contour>
      <contour>
        <pt x="236" y="660" on="1"/>
        <pt x="88" y="532" on="1"/>
        <pt x="64" y="548" on="1"/>
        <pt x="170" y="702" on="1"/>
      </contour>
    </TTGlyph>
</ttFont>
